<svg width="56" height="56" viewBox="0 0 56 56" version="1.1" xmlns="http://www.w3.org/2000/svg"
    xmlns:xlink="http://www.w3.org/1999/xlink">
    <path part="background" fill="lightgray"
        d="M24.45 8.574c-6.745 0-12.255 5.32-12.605 12.014a10.339 10.339 0 0 0-6.76 11.082c.579 4.608 4.298 8.334 8.883 8.904h16.525c-2.825-3.789-8.492-12.264-8.492-19.275 0-5.634 1.913-9.828 5.81-12.27a12.565 12.565 0 0 0-3.361-.455z" />
    <path part="highlight" fill="cadetblue"
        d="M37.794 6.983S25.72 15.93 36.28 42.573h3.502C50.34 15.932 37.794 6.937 37.794 6.937Z" />
    <path part="outline" fill="black"
        d="M10.795 3.35a.75.75 0 1 0 0 1.5h8a.75.75 0 0 0 0-1.5h-8zm11 0a.75.75 0 1 0 0 1.5h1a.75.75 0 0 0 0-1.5h-1zm16.39 2.566c-10.928.046-16.714 5.534-16.714 15.475 0 1.673.303 3.474.879 5.386.876 2.911 2.352 5.994 4.257 9.141a65.566 65.566 0 0 0 4.65 6.684l.216.267-.002 7.16c0 1.31 1.019 2.387 2.299 2.387h8.9c1.28 0 2.3-1.078 2.3-2.387v-6.914c.08-.106.23-.307.434-.592.34-.472.718-1.012 1.125-1.609a87.386 87.386 0 0 0 3.416-5.406c1.137-1.962 2.124-3.865 2.918-5.674 1.359-3.093 2.108-5.79 2.108-8.004 0-9.1-6.308-15.914-16.649-15.914h-.136zm.29 1.5c9.394.065 14.996 6.161 14.996 14.414 0 1.966-.698 4.481-1.98 7.4-.771 1.754-1.734 3.61-2.845 5.526a85.887 85.887 0 0 1-4.46 6.892l-.094.131-.086.117-.014.02h-6.996c-5.452-14.462-5.043-24.64-1.129-31.275.626-1.06 1.292-1.925 1.955-2.61a8.67 8.67 0 0 1 .633-.6l.02-.015zm-2.207.07a16.562 16.562 0 0 0-1.694 2.393c-4.11 6.965-4.575 17.446.82 32.037h-2.763l-.02-.023a56.157 56.157 0 0 1-1.305-1.686 64.045 64.045 0 0 1-3.415-5.064c-1.846-3.048-3.269-6.025-4.104-8.8-.536-1.78-.816-3.438-.816-4.952 0-8.421 4.373-13.194 13.058-13.887l.239-.018zM1.795 11.35a.75.75 0 1 0 0 1.5h18a.75.75 0 0 0 0-1.5h-18zm8 7a.75.75 0 1 0 0 1.5h3a.75.75 0 1 0 0-1.5h-3zM32.97 43.416h10.5v6.613c0 .498-.369.887-.801.887h-8.9l-.098-.008c-.389-.053-.701-.418-.701-.879v-6.613z" />
</svg>