<svg width="56" height="56" viewBox="0 0 56 56" fill="none" xmlns="http://www.w3.org/2000/svg">
<g clip-path="url(#clip0_11_1335)">
<path fill-rule="evenodd" clip-rule="evenodd" d="M36.4857 29.878C36.4857 39.2658 28.8763 46.8753 19.4885 46.8753C10.1017 46.8753 2.49121 39.2658 2.49121 29.878C2.49121 20.4902 10.1017 12.8807 19.4885 12.8807C28.8763 12.8807 36.4857 20.4902 36.4857 29.878Z" fill="#C0C0C0"/>
<path d="M3.61911 32.554C3.99706 32.3759 4.44781 32.5379 4.62589 32.9158C5.42818 34.6186 6.52128 36.1773 7.88051 37.5366C11.2731 40.9292 15.8876 42.6253 20.5847 42.3233C21.0016 42.2965 21.3614 42.6128 21.3882 43.0297C21.415 43.4467 21.0987 43.8064 20.6818 43.8332C15.555 44.1628 10.5142 42.31 6.81065 38.6064C5.32759 37.1234 4.13359 35.4207 3.25722 33.5607C3.07913 33.1828 3.24116 32.732 3.61911 32.554ZM9.83982 9.55672C16.8094 5.62219 25.6362 6.7653 31.3793 12.5084C31.8158 12.9459 32.2267 13.4011 32.6118 13.8731C32.8758 14.1969 32.8275 14.6734 32.5037 14.9375C32.1799 15.2016 31.7034 15.1532 31.4393 14.8294C31.0862 14.3966 30.7091 13.9788 30.3088 13.5776C25.0498 8.3186 16.9653 7.27162 10.5836 10.8743C10.2198 11.0797 9.75833 10.9512 9.55294 10.5874C9.34755 10.2236 9.47599 9.76211 9.83982 9.55672ZM5.74427 16.2678L7.39067 20.4566C7.54351 20.8454 7.35218 21.2845 6.96334 21.4374C6.57449 21.5902 6.13537 21.3989 5.98254 21.0101L5.00826 18.5307C4.62233 19.2893 4.15387 20.2482 3.99863 20.612C3.76442 21.1608 3.5625 21.7224 3.39481 22.2916C3.22508 22.8711 3.09027 23.4514 2.99154 24.0311C2.92139 24.443 2.53063 24.72 2.11876 24.6499C1.70689 24.5797 1.42987 24.189 1.50002 23.7771C1.60872 23.1389 1.75679 22.5014 1.94315 21.8651C2.12787 21.2382 2.34975 20.6211 2.60706 20.0181C2.72804 19.7346 3.00723 19.1522 3.30357 18.5542L3.55849 18.0446L3.62473 17.9126L1.12816 18.895C0.771722 19.0351 0.373036 18.886 0.191341 18.5607L0.147362 18.4677C-0.00547415 18.0788 0.185849 17.6397 0.574694 17.4869L4.76346 15.8405C5.15231 15.6876 5.59143 15.879 5.74427 16.2678ZM2.00546 26.8826C2.42219 26.8527 2.78427 27.1663 2.81418 27.583C2.85695 28.1787 2.93638 28.7661 3.05272 29.343C3.13533 29.7525 2.87028 30.1515 2.46073 30.2341C2.05117 30.3167 1.6522 30.0516 1.56959 29.6421C1.44045 29.0018 1.3524 28.3507 1.30507 27.6914C1.27515 27.2746 1.58873 26.9126 2.00546 26.8826Z" fill="#1C1C1C"/>
<path fill-rule="evenodd" clip-rule="evenodd" d="M42.879 14.3635C44.6584 13.9997 46.4265 15.01 47.0397 16.7198L51.1807 28.3683L50.879 28.5004C52.1344 28.6407 53.1571 28.7883 53.9493 28.9191C55.1321 29.1145 56 30.13 56 31.3284V45.3374C56 46.8622 54.6259 48.0097 53.1261 47.7395C50.2522 47.2208 45.4491 46.5546 39.7563 46.5546C34.3733 46.5546 29.0537 46.9713 25.9812 47.2645C24.55 47.4006 23.3152 46.2718 23.3152 44.8343L23.3152 40.5716L23.1772 40.6322C21.8597 40.5263 20.6468 39.7076 20.0979 38.4124L20.0206 38.2145L16.2725 27.752C15.6593 26.0401 16.3858 24.1369 17.9938 23.2878C20.401 22.0155 24.4152 20.1072 30.1568 18.0513C35.9545 15.9735 40.2369 14.9029 42.879 14.3635Z" fill="white"/>
<path d="M39.6575 27.1783C45.5014 27.1783 48.9731 27.4961 53.0725 28.1728C54.6214 28.4286 55.7565 29.7606 55.7565 31.3285V45.3375C55.7565 47.3335 53.956 48.8379 51.9917 48.484C47.4089 47.6569 44.3875 47.3111 39.7563 47.3111C35.2727 47.3111 30.5174 47.5917 26.0528 48.0176C24.178 48.196 22.5586 46.7185 22.5586 44.8344V31.3358C22.5586 29.7649 23.699 28.432 25.2509 28.1788C28.9423 27.5748 33.757 27.1783 39.6575 27.1783ZM39.6575 28.6913C33.8394 28.6913 29.1064 29.0811 25.4949 29.672C24.6725 29.8062 24.0716 30.5085 24.0716 31.3358V44.8344C24.0716 45.8275 24.924 46.6052 25.9093 46.5114C30.4175 46.0813 35.2178 45.7981 39.7563 45.7981C44.4929 45.7981 47.5965 46.1534 52.2602 46.995C53.2964 47.1817 54.2435 46.3904 54.2435 45.3375V31.3285C54.2435 30.5024 53.6457 29.801 52.826 29.6656C48.804 29.0017 45.4136 28.6913 39.6575 28.6913Z" fill="#1C1C1C"/>
<path d="M47.7523 16.4664L51.8933 28.1149C52.0333 28.5086 51.8276 28.9412 51.4339 29.0811C51.0402 29.2211 50.6077 29.0154 50.4677 28.6217L46.3275 16.9752C45.8394 15.6144 44.4358 14.8173 43.0302 15.1047C39.5792 15.8093 35.3626 16.9892 30.4117 18.7635C25.5142 20.5171 21.5026 22.2889 18.3469 23.9567C17.076 24.6279 16.4967 26.1349 16.9845 27.4968L20.7326 37.9593C21.1234 39.0497 22.108 39.7873 23.2377 39.8781C23.6542 39.9116 23.9646 40.2763 23.9311 40.6928C23.8977 41.1093 23.5329 41.4197 23.1165 41.3863C21.4002 41.2483 19.9018 40.1258 19.3082 38.4697L15.5602 28.0071C14.8191 25.9384 15.7017 23.6427 17.6401 22.6189C20.8588 20.9179 24.9361 19.1171 29.9014 17.3391C34.9199 15.5407 39.2059 14.3413 42.7273 13.6223C44.8726 13.1838 47.0104 14.3977 47.7523 16.4664ZM39.1381 25.3428C39.4242 26.141 39.5019 26.9828 39.3741 27.8035C39.3098 28.2164 38.923 28.4989 38.5102 28.4346C38.0973 28.3703 37.8148 27.9835 37.8791 27.5707C37.9682 26.9984 37.9141 26.4121 37.7138 25.8532C37.0597 24.0284 35.0502 23.0793 33.225 23.7335C31.5132 24.346 30.557 26.1645 31.0095 27.9123C31.1142 28.3167 30.8711 28.7295 30.4667 28.8342C30.0622 28.9389 29.6494 28.6959 29.5447 28.2914C28.8966 25.7877 30.2648 23.1858 32.7149 22.3091C35.3262 21.373 38.2019 22.7312 39.1381 25.3428Z" fill="#1C1C1C"/>
<path fill-rule="evenodd" clip-rule="evenodd" d="M45.1832 37.6341C45.1832 40.6857 42.7094 43.1595 39.6578 43.1595C36.6061 43.1595 34.1323 40.6857 34.1323 37.6341C34.1323 34.5824 36.6061 32.1086 39.6578 32.1086C42.7094 32.1086 45.1832 34.5824 45.1832 37.6341Z" fill="#5F9EA0"/>
</g>
<defs>
<clipPath id="clip0_11_1335">
<rect width="56" height="56" fill="white"/>
</clipPath>
</defs>
</svg>
