<svg width="56" height="56" viewBox="0 0 56 56" version="1.1" xmlns="http://www.w3.org/2000/svg">

   <clipPath id="clip">
      <circle cx="19.488281" cy="29.878756" r="16.997896">
         <animateTransform
            attributeName="transform"
            values="0,0; 0,0; 0,0; 0,0; 17,2; 18,4; -2,2; 0,0"
            dur="2s"
            repeatCount="indefinite" />
      </circle>
   </clipPath>
   <path clip-path="url(#clip)" part="background" fill="red"
      d="m -1e-6,-4e-6 v 56 h 56 v -56 z m 43.554688,15.046875 c 1.216974,-0.02136 2.34635,0.737034 2.773437,1.927734 l 3.826172,10.767579 C 47.14743,27.36 44.082733,27.17773 39.658202,27.17773 c -0.07549,0 -0.151432,-1.29e-4 -0.226562,0 0.01777,-0.618245 -0.07915,-1.237436 -0.292969,-1.833984 -0.9362,-2.6116 -3.812528,-3.971256 -6.423828,-3.035156 -2.238091,0.800839 -3.572628,3.041926 -3.292969,5.332031 -1.51991,0.150281 -2.912121,0.332937 -4.171875,0.539063 -1.5519,0.253198 -2.691406,1.585349 -2.691406,3.15625 V 39.74023 C 21.725709,39.465835 21.042302,38.823602 20.732421,37.95898 L 16.984374,27.49609 c -0.4878,-1.3619 0.09238,-2.867863 1.363281,-3.539063 3.1557,-1.6678 7.166953,-3.439759 12.064453,-5.193359 4.9509,-1.7743 9.166188,-2.953604 12.617188,-3.658203 0.1757,-0.03592 0.351537,-0.05559 0.525391,-0.05859 z m -9.013672,8.480469 c 1.390418,0.05231 2.673634,0.936187 3.171875,2.326172 0.156078,0.435507 0.225118,0.886744 0.205078,1.335937 -2.549734,0.03479 -4.880643,0.146663 -6.988281,0.316406 -0.219689,-1.615423 0.715746,-3.206438 2.294921,-3.771484 0.342225,-0.122658 0.692076,-0.190348 1.03711,-0.205078 0.09345,-0.004 0.186603,-0.0054 0.279297,-0.002 z m 5.117187,5.164062 c 5.7561,-1e-6 9.145969,0.31071 13.167969,0.97461 0.8197,0.1354 1.417969,0.836009 1.417969,1.662109 v 14.009766 c 0,1.0529 -0.948175,1.84295 -1.984375,1.65625 -4.6637,-0.8416 -7.767307,-1.195313 -12.503907,-1.195313 -4.5385,0 -9.337503,0.282791 -13.845703,0.712891 -0.9853,0.0938 -1.83789,-0.684635 -1.83789,-1.677735 V 31.335934 c 0,-0.827301 0.599475,-1.529863 1.421875,-1.664063 3.6115,-0.5909 8.345962,-0.980469 14.164062,-0.980469 z" />
   <path fill="#000000" part="outline"
      d="m 18.203125,7.2480425 c -2.875379,0.07255 -5.749689,0.833145 -8.3632816,2.308594 -0.36383,0.20539 -0.492499,0.6674495 -0.287109,1.0312495 0.20539,0.3638 0.6674496,0.492509 1.0312496,0.287109 6.3817,-3.6026795 14.46561,-2.5558745 19.72461,2.703125 0.4003,0.4012 0.777759,0.819153 1.130859,1.251953 0.2641,0.3238 0.740653,0.371522 1.064453,0.107422 0.3238,-0.2641 0.371422,-0.740653 0.107422,-1.064453 -0.3851,-0.472 -0.795922,-0.927735 -1.232422,-1.365235 C 27.789469,8.9183705 22.995424,7.1271245 18.203125,7.2480425 Z m 25.326172,6.2851555 c -0.265217,0.0047 -0.534572,0.03503 -0.802735,0.08984 -3.521399,0.719 -7.805718,1.918397 -12.824218,3.716797 -4.9653,1.778 -9.043019,3.578297 -12.261719,5.279297 -1.9384,1.023801 -2.821178,3.319973 -2.080078,5.388672 l 3.748047,10.460938 c 0.528263,1.473814 1.772706,2.525117 3.25,2.835938 v 3.529295 c 0,1.8841 1.61934,3.361994 3.49414,3.183594 4.4646,-0.4259 9.219525,-0.707031 13.703125,-0.707031 4.6312,0 7.653529,0.346728 12.236329,1.173828 1.9643,0.3539 3.763671,-1.150484 3.763671,-3.146484 V 31.328121 c 0,-1.5679 -1.134693,-2.90045 -2.683593,-3.15625 -0.414624,-0.06844 -0.823631,-0.132217 -1.228516,-0.193359 l -4.091797,-11.51172 c -0.649162,-1.810113 -2.366141,-2.966724 -4.222656,-2.933594 z m 0.02539,1.513672 c 1.216973,-0.02136 2.34635,0.737034 2.773437,1.927734 l 3.826172,10.76758 C 47.14743,27.360001 44.082733,27.17773 39.658202,27.17773 c -0.07549,0 -0.151429,-1.29e-4 -0.226562,0 0.01777,-0.618245 -0.07915,-1.237436 -0.292969,-1.833984 -0.9362,-2.6116 -3.812528,-3.971257 -6.423828,-3.035157 -2.238091,0.800839 -3.572629,3.041927 -3.292969,5.332032 -1.51991,0.150281 -2.912121,0.332937 -4.171875,0.539063 -1.5519,0.253199 -2.691406,1.58535 -2.691406,3.15625 V 39.74023 C 21.725709,39.465835 21.042302,38.823602 20.732421,37.95898 L 16.984374,27.49609 c -0.4878,-1.3619 0.09238,-2.867863 1.363281,-3.539063 3.1557,-1.667801 7.166953,-3.43976 12.064453,-5.19336 4.9509,-1.7743 9.166188,-2.953603 12.617188,-3.658202 0.1757,-0.03592 0.351537,-0.05554 0.525391,-0.05859 z M 4.9843754,15.789057 c -0.07423,0.0054 -0.147794,0.02211 -0.220703,0.05078 l -4.189454,1.646484 c -0.388845,0.1528 -0.58057,0.591569 -0.427734,0.980469 l 0.04492,0.09375 c 0.181695,0.3253 0.581062,0.474084 0.9375,0.333984 l 2.496096,-0.98242 -0.06641,0.132813 -0.255859,0.509766 c -0.29634,0.597999 -0.574332,1.17939 -0.695312,1.46289 -0.25731,0.603 -0.479343,1.220756 -0.664063,1.847656 -0.18636,0.6363 -0.334659,1.273911 -0.443359,1.912111 -0.07015,0.4119 0.20727,0.802847 0.61914,0.873047 0.41187,0.0701 0.802897,-0.207241 0.873047,-0.619141 0.09873,-0.5797 0.232614,-1.160734 0.402344,-1.740235 0.16769,-0.5692 0.369306,-1.130888 0.603515,-1.679688 0.155241,-0.3638 0.623836,-1.321478 1.009766,-2.080078 l 0.974609,2.478516 c 0.15283,0.3888 0.591619,0.580534 0.980469,0.427734 0.38884,-0.1529 0.580575,-0.591669 0.427735,-0.980469 l -1.646485,-4.189453 c -0.124182,-0.3159 -0.438121,-0.502039 -0.759765,-0.478516 z m 29.2773436,7.740236 c 1.495148,-0.06382 2.919715,0.841569 3.451172,2.324219 0.156078,0.435507 0.225122,0.886744 0.205078,1.335937 -2.549734,0.03479 -4.880642,0.146663 -6.988281,0.316406 -0.219688,-1.615423 0.715746,-3.206438 2.294921,-3.771484 0.342225,-0.122663 0.692076,-0.190351 1.03711,-0.205078 z M 2.0820314,26.880855 c -0.02555,-7.56e-4 -0.05013,8.5e-5 -0.07617,0.002 -0.41673,0.03 -0.731092,0.391794 -0.701172,0.808594 0.04733,0.6593 0.136485,1.310872 0.265625,1.951172 0.08261,0.4095 0.481065,0.674397 0.890625,0.591797 0.40955,-0.0826 0.674407,-0.481125 0.591797,-0.890625 -0.11634,-0.576947 -0.195511,-1.166066 -0.238281,-1.761766 -0.02804,-0.390656 -0.349158,-0.689829 -0.732422,-0.701172 z m 37.5761716,1.810547 c 5.7561,0 9.145969,0.31071 13.167969,0.97461 0.8197,0.1354 1.417969,0.836009 1.417969,1.662109 v 14.009765 c 0,1.0529 -0.948175,1.84295 -1.984375,1.65625 -4.6637,-0.8416 -7.767307,-1.195313 -12.503907,-1.195313 -4.5385,0 -9.337503,0.282791 -13.845703,0.712891 -0.9853,0.0938 -1.83789,-0.684635 -1.83789,-1.677735 V 31.335934 c 0,-0.8273 0.599475,-1.529863 1.421875,-1.664063 3.6115,-0.5909 8.345962,-0.980469 14.164062,-0.980469 z M 3.9101564,32.482418 c -0.09819,0.004 -0.196528,0.02774 -0.291016,0.07227 -0.37795,0.177999 -0.539418,0.627959 -0.361328,1.005859 0.87637,1.86 2.069675,3.561922 3.552734,5.044922 3.7035506,3.7036 8.7442946,5.558115 13.8710946,5.228515 0.4169,-0.0268 0.733831,-0.387687 0.707031,-0.804688 -0.0268,-0.416899 -0.387788,-0.731877 -0.804688,-0.705077 -4.6971,0.302 -9.310535,-1.39451 -12.7031246,-4.78711 -1.35923,-1.359304 -2.453569,-2.918297 -3.255859,-4.621097 -0.13356,-0.283425 -0.420276,-0.445454 -0.714844,-0.433594 z" />
   <circle fill="cadetblue" part="highlight" cx="39.6578" cy="37.6341" r="5.5254" />
</svg>