<svg width="56" height="56" viewBox="0 0 56 56" version="1.1" xmlns="http://www.w3.org/2000/svg"
  xmlns:xlink="http://www.w3.org/1999/xlink">
  <path part="highlight" fill="cadetblue"
    d="M47.5,25.8c-3.6,0-5.8,1.3-5.8,2.2s2.2,2.2,5.8,2.2,5.8-1.3,5.8-2.2-2.2-2.2-5.8-2.2Z" />
  <path part="background" fill="silver"
    d="M 41.990234 1 C 40.290234 1 38.990234 2.3 38.990234 4 L 38.990234 37 C 38.990234 38.06 39.499063 38.97 40.289062 39.5 L 40.300781 39.5 L 40.300781 28 C 40.300781 27.38 40.55 26.810781 41 26.300781 C 41.95 25.280781 43.760938 24.509297 45.960938 24.279297 C 46.120937 24.259297 46.289219 24.250234 46.449219 24.240234 C 46.529219 24.240234 46.599688 24.230703 46.679688 24.220703 C 46.909687 24.210703 47.150625 24.199219 47.390625 24.199219 C 49.150625 24.199219 50.750234 24.530078 51.990234 25.080078 L 51.990234 4 C 51.990234 2.3 50.690234 1 48.990234 1 L 41.990234 1 z M 24.5 10 C 22.8 10 21.5 11.3 21.5 13 L 21.5 24.199219 L 26.199219 24.199219 L 26.199219 23 C 26.199219 22.5 26.5 22.199219 27 22.199219 C 27.5 22.199219 27.800781 22.6 27.800781 23 L 27.800781 24.199219 L 30 24.199219 C 32.11 24.199219 33.84 25.550859 34.5 27.380859 L 34.5 13 C 34.5 11.3 33.2 10 31.5 10 L 24.5 10 z M 7 19 C 4 19 4 20.3 4 22 L 4 37 C 4 38.51 3.9996094 39.699219 6.0996094 39.949219 L 6.0996094 29 C 6.0996094 26.3 8.3003906 24.199219 10.900391 24.199219 L 14.099609 24.199219 L 14.099609 23 C 14.099609 22.5 14.400391 22.199219 14.900391 22.199219 C 15.400391 22.199219 15.699219 22.6 15.699219 23 L 15.699219 24.199219 L 17 24.199219 L 17 22 C 17 20.3 15.7 19 14 19 L 7 19 z " />
  <path part="outline" fill="black"
    d="M47.4,24.2c-.24,0-.47,0-.71.02-.08,0-.15.01-.23.02-.17.01-.33.02-.49.04,0,0,0,0,0,0-2.2.23-4.02,1-4.96,2.02-.45.5-.7,1.07-.7,1.7v12.7c-1.3-.8-3.2-1.4-5.5-1.4v-10.3c0-2.6-2.1-4.8-4.8-4.8h-2.2v-1.2c0-.4-.3-.8-.8-.8s-.8.3-.8.8v1.2h-10.5v-1.2c0-.4-.3-.8-.8-.8s-.8.3-.8.8v1.2h-3.2c-2.6,0-4.8,2.1-4.8,4.8v14c0,2.6,2.1,4.8,4.8,4.8h16.2v3.2c0,2.1,3.1,3.8,7.2,3.8s7.2-1.6,7.2-3.8v-.7c1.3.9,3.4,1.4,5.8,1.4,4.1,0,7.2-1.6,7.2-3.8v-20s0-.02,0-.04c-.04-2.02-3.2-3.66-7.1-3.66ZM7.8,29c0-1.8,1.5-3.2,3.2-3.2h3.2v1.2c0,.4.3.8.8.8s.8-.3.8-.8v-1.2h10.5v1.2c0,.4.3.8.8.8s.8-.3.8-.8v-1.2h2.2c1.8,0,3.2,1.5,3.2,3.2v1.8H7.8v-1.8ZM27.3,43v3.2H11c-1.8,0-3.2-1.5-3.2-3.2v-10.8h25.5v7.1c-3.5.3-6,1.8-6,3.7ZM40.2,51c0,.9-2.2,2.2-5.8,2.2s-5.8-1.3-5.8-2.2v-1.7c1.3.9,3.4,1.4,5.8,1.4s4.4-.5,5.8-1.4v1.7ZM40.2,47c0,.9-2.2,2.2-5.8,2.2s-5.8-1.3-5.8-2.2v-1.7c1.3.9,3.4,1.4,5.8,1.4s4.4-.5,5.8-1.4v1.7ZM34.5,45.2c-3.6,0-5.8-1.3-5.8-2.2s2.2-2.2,5.8-2.2,5.8,1.3,5.8,2.2-2.2,2.2-5.8,2.2ZM53.2,48c0,.9-2.2,2.2-5.8,2.2s-5.8-1.3-5.8-2.2v-1.7c1.3.9,3.4,1.4,5.8,1.4s4.4-.5,5.8-1.4v1.7ZM53.2,44c0,.9-2.2,2.2-5.8,2.2s-5.8-1.3-5.8-2.2v-1.7c1.3.9,3.4,1.4,5.8,1.4s4.4-.5,5.8-1.4v1.7ZM53.2,40c0,.9-2.2,2.2-5.8,2.2s-5.8-1.3-5.8-2.2v-1.7c1.3.9,3.4,1.4,5.8,1.4s4.4-.5,5.8-1.4v1.7ZM53.2,36c0,.9-2.2,2.2-5.8,2.2s-5.8-1.3-5.8-2.2v-1.7c1.3.9,3.4,1.4,5.8,1.4s4.4-.5,5.8-1.4v1.7ZM53.2,32c0,.9-2.2,2.2-5.8,2.2s-5.8-1.3-5.8-2.2v-1.7c1.3.9,3.4,1.4,5.8,1.4s4.4-.5,5.8-1.4v1.7ZM47.5,30.2c-3.6,0-5.8-1.3-5.8-2.2s2.2-2.2,5.8-2.2,5.8,1.3,5.8,2.2-2.2,2.2-5.8,2.2Z" />
</svg>