<svg width="56" height="56" viewBox="0 0 56 56" version="1.1" xmlns="http://www.w3.org/2000/svg"
  xmlns:xlink="http://www.w3.org/1999/xlink">
  <path part="background" fill="silver"
    d="m 3.5605472,20.980468 c -1.3899999,0 -2.5195312,1.129531 -2.5195312,2.519532 v 6.121093 c 0,1.39 1.1295312,2.519532 2.5195312,2.519532 H 16.300782 c 0.0197,-0.137882 0.04042,-0.325667 0.04101,-0.560547 V 30.75 c 0,-0.11 -0.0017,-0.199063 -0.01172,-0.289063 v -6.580078 c 0,-0.99 0.101485,-1.96039 0.271485,-2.900391 z m 0,16.63086 c -1.3899999,0 -2.5195312,1.129531 -2.5195312,2.519531 V 46.25 c 0,1.39 1.1295312,2.519531 2.5195312,2.519531 H 32.810547 c 1.38,0 2.499532,-1.120001 2.519531,-2.5 -0.289999,0.09 -0.57914,0.160703 -0.86914,0.220703 v 0.01953 c -0.62,0.130001 -1.260156,0.191406 -1.910156,0.191406 -0.65,0 -1.280157,-0.06141 -1.910157,-0.191406 -0.61,-0.119999 -1.199297,-0.308827 -1.779297,-0.548828 -0.559999,-0.24 -1.099374,-0.531093 -1.609374,-0.871094 -0.5,-0.34 -0.970391,-0.720156 -1.400391,-1.160156 -0.43,-0.43 -0.820391,-0.898437 -1.150391,-1.398437 -0.34,-0.51 -0.641094,-1.051328 -0.871094,-1.611329 -0.199999,-0.469999 -0.34875,-0.959218 -0.46875,-1.449218 h -5.541015 c -1.28,0 -2.369375,-0.769376 -2.859375,-1.859375 z" />
  <path part="outline" fill="black"
    d="M 32.560547 3.2304688 C 32.040547 3.2304688 31.539063 3.2808594 31.039062 3.3808594 C 30.559062 3.4808594 30.080859 3.6303125 29.630859 3.8203125 C 29.180859 4.0103125 28.749609 4.2395313 28.349609 4.5195312 C 27.949609 4.7895312 27.580234 5.0994531 27.240234 5.4394531 C 26.900234 5.7794531 26.590314 6.1507813 26.320312 6.5507812 C 26.050313 6.9607813 25.809141 7.3800781 25.619141 7.8300781 C 25.429141 8.2900781 25.279687 8.76 25.179688 9.25 L 25.119141 9.4492188 C 19.899141 12.159219 16.330078 17.600859 16.330078 23.880859 L 16.330078 30.460938 C 16.330078 30.550937 16.329844 30.64 16.339844 30.75 C 16.349844 31.03 16.359844 31.320078 16.339844 31.580078 C 16.339844 31.850078 16.319063 32.060937 16.289062 32.210938 C 16.219062 32.590938 16.059609 32.929297 15.599609 33.779297 C 15.469609 34.019297 15.400078 34.139063 15.330078 34.289062 C 14.910078 35.089062 14.699219 35.699844 14.699219 36.339844 C 14.699219 38.069844 16.100078 39.470703 17.830078 39.470703 L 23.369141 39.470703 C 23.489141 39.960703 23.639844 40.449922 23.839844 40.919922 C 24.079844 41.479922 24.370938 42.019297 24.710938 42.529297 C 25.050937 43.029297 25.429375 43.499688 25.859375 43.929688 C 26.289375 44.359687 26.759766 44.749844 27.259766 45.089844 C 27.769766 45.429844 28.309141 45.720937 28.869141 45.960938 C 29.439141 46.200938 30.040391 46.389766 30.650391 46.509766 C 31.270391 46.639766 31.910547 46.699219 32.560547 46.699219 C 33.210547 46.699219 33.840703 46.639766 34.470703 46.509766 C 35.080703 46.389766 35.67 46.200936 36.25 45.960938 C 36.81 45.720937 37.349375 45.429844 37.859375 45.089844 C 38.359375 44.749844 38.829766 44.369453 39.259766 43.939453 C 39.689766 43.509453 40.079922 43.039062 40.419922 42.539062 C 40.759922 42.029063 41.059064 41.489688 41.289062 40.929688 C 41.489064 40.459688 41.639766 39.970469 41.759766 39.480469 L 47.339844 39.480469 C 49.069844 39.480469 50.470703 38.079609 50.470703 36.349609 C 50.470703 35.709609 50.259844 35.100781 49.839844 34.300781 C 49.759844 34.160781 49.700314 34.029063 49.570312 33.789062 L 49.519531 33.800781 C 49.059531 32.960781 48.900078 32.610469 48.830078 32.230469 C 48.800078 32.080469 48.789297 31.859609 48.779297 31.599609 C 48.769297 31.339609 48.779297 31.049766 48.779297 30.759766 C 48.779297 30.649766 48.779064 30.569531 48.789062 30.519531 L 48.789062 24.990234 L 47.289062 24.990234 L 47.289062 30.470703 L 47.289062 30.560547 L 47.289062 30.689453 C 47.279063 30.999453 47.269062 31.319141 47.289062 31.619141 C 47.289062 31.959141 47.319141 32.250469 47.369141 32.480469 C 47.479141 33.070469 47.680703 33.5 48.220703 34.5 C 48.350703 34.73 48.410469 34.850469 48.480469 34.980469 C 48.800469 35.590469 48.939453 35.999844 48.939453 36.339844 C 48.939453 37.239844 48.210547 37.970703 47.310547 37.970703 L 17.820312 37.970703 C 16.920313 37.970703 16.189453 37.239844 16.189453 36.339844 C 16.189453 35.999844 16.330391 35.580469 16.650391 34.980469 C 16.720391 34.850469 16.780156 34.73 16.910156 34.5 C 17.450156 33.51 17.649766 33.080469 17.759766 32.480469 C 17.799766 32.240469 17.829844 31.949375 17.839844 31.609375 L 17.839844 30.679688 C 17.839844 30.559687 17.830078 30.460391 17.830078 30.400391 L 17.830078 23.869141 C 17.830078 15.719141 24.439844 9.109375 32.589844 9.109375 C 35.769844 9.109375 38.709141 10.129844 41.119141 11.839844 L 41.800781 10.490234 C 41.220781 10.090234 40.620234 9.7301563 39.990234 9.4101562 L 39.949219 9.2304688 C 39.849219 8.7504687 39.709766 8.2800781 39.509766 7.8300781 C 39.319766 7.3800781 39.090312 6.9507812 38.820312 6.5507812 C 38.550312 6.1507812 38.240391 5.7794531 37.900391 5.4394531 C 37.560391 5.0994531 37.189297 4.7895312 36.779297 4.5195312 C 36.379297 4.2495313 35.95 4.0203125 35.5 3.8203125 C 35.04 3.6303125 34.570078 3.4808594 34.080078 3.3808594 C 33.590078 3.2808594 33.080547 3.2304687 32.560547 3.2304688 z M 32.529297 4.7597656 C 32.949297 4.7597656 33.35 4.8008594 33.75 4.8808594 C 34.14 4.9608594 34.520859 5.0804688 34.880859 5.2304688 C 35.240859 5.3804688 35.580391 5.5690625 35.900391 5.7890625 C 36.220391 6.0090625 36.519064 6.2492969 36.789062 6.5292969 C 37.069063 6.8092969 37.309297 7.1099219 37.529297 7.4199219 C 37.749297 7.7399219 37.929844 8.0892187 38.089844 8.4492188 C 38.119844 8.5192188 38.139922 8.5996875 38.169922 8.6796875 C 36.419922 8.0296875 34.530781 7.6601564 32.550781 7.6601562 C 30.570781 7.6601562 28.650859 8.0392186 26.880859 8.6992188 C 26.910859 8.6192186 26.940703 8.5292188 26.970703 8.4492188 L 26.960938 8.4394531 C 27.110937 8.0794531 27.299531 7.7399219 27.519531 7.4199219 C 27.739531 7.0999219 27.979766 6.7992969 28.259766 6.5292969 C 28.529766 6.2592969 28.830391 6.0090625 29.150391 5.7890625 C 29.470391 5.5690625 29.809687 5.3904688 30.179688 5.2304688 C 30.549688 5.0804687 30.920547 4.9608594 31.310547 4.8808594 C 31.710547 4.8008594 32.109297 4.7597656 32.529297 4.7597656 z M 45 11 C 44.59 11 44.25 11.34 44.25 11.75 L 44.25 19.25 C 44.25 19.66 44.59 20 45 20 C 45.41 20 45.75 19.66 45.75 19.25 L 45.75 11.75 C 45.75 11.34 45.41 11 45 11 z M 45 21 C 44.59 21 44.25 21.34 44.25 21.75 C 44.25 22.16 44.59 22.5 45 22.5 C 45.41 22.5 45.75 22.16 45.75 21.75 C 45.75 21.34 45.41 21 45 21 z M 24.890625 39.490234 L 40.169922 39.490234 C 40.079922 39.780234 39.989141 40.069375 39.869141 40.359375 L 39.849609 40.359375 C 39.649609 40.829375 39.399141 41.280937 39.119141 41.710938 C 38.839141 42.130938 38.510391 42.520625 38.150391 42.890625 C 37.790391 43.250625 37.390703 43.579375 36.970703 43.859375 C 36.540703 44.149375 36.089141 44.399844 35.619141 44.589844 C 35.139141 44.789844 34.640859 44.950781 34.130859 45.050781 C 33.600859 45.160781 33.069531 45.210937 32.519531 45.210938 C 31.969531 45.210938 31.440156 45.160781 30.910156 45.050781 C 30.400156 44.950781 29.899922 44.789844 29.419922 44.589844 C 28.949922 44.389844 28.500314 44.139375 28.070312 43.859375 C 27.650312 43.579375 27.260625 43.250625 26.890625 42.890625 C 26.530625 42.530625 26.199922 42.130937 25.919922 41.710938 C 25.629922 41.280938 25.379453 40.829375 25.189453 40.359375 C 25.069453 40.079375 24.970625 39.790234 24.890625 39.490234 z M 45.882812 44.541016 A 0.75 0.75 0 0 0 45.689453 44.570312 A 0.75 0.75 0 0 0 45.242188 44.929688 C 44.962972 45.439979 44.668524 45.924613 44.339844 46.384766 A 0.75 0.75 0 0 0 44.513672 47.429688 A 0.75 0.75 0 0 0 45.560547 47.255859 C 45.931866 46.736012 46.25781 46.200099 46.558594 45.650391 A 0.75 0.75 0 0 0 46.259766 44.632812 A 0.75 0.75 0 0 0 45.882812 44.541016 z M 42.474609 48.730469 A 0.75 0.75 0 0 0 42.025391 48.908203 C 41.583217 49.28309 41.123784 49.635749 40.648438 49.958984 C 40.178747 50.278375 39.683434 50.564649 39.169922 50.835938 C 38.660437 51.099899 38.141322 51.327131 37.607422 51.527344 A 0.75 0.75 0 0 0 37.167969 52.494141 A 0.75 0.75 0 0 0 38.132812 52.931641 C 38.717549 52.712364 39.295962 52.461194 39.865234 52.166016 A 0.750075 0.750075 0 0 0 39.871094 52.164062 C 40.417582 51.875352 40.961879 51.559829 41.492188 51.199219 C 42.016841 50.842454 42.516314 50.457848 42.994141 50.052734 A 0.75 0.75 0 0 0 43.082031 48.994141 A 0.75 0.75 0 0 0 42.572266 48.732422 A 0.75 0.75 0 0 0 42.474609 48.730469 z " />
  <path part="warning" fill="orange"
    d="M54.05,22.11l-7.26-14.53c-.19-.39-.51-.7-.89-.89-.99-.49-2.19-.09-2.68.89l-7.26,14.53c-.14.28-.21.58-.21.89,0,1.1.9,2,2,2h14.53c.31,0,.62-.07.89-.21.99-.49,1.39-1.7.89-2.68ZM45,22.5c-.41,0-.75-.34-.75-.75s.34-.75.75-.75.75.34.75.75-.34.75-.75.75ZM45.75,19.25c0,.41-.34.75-.75.75s-.75-.34-.75-.75v-7.5c0-.41.34-.75.75-.75s.75.34.75.75v7.5Z" />
</svg>