<?xml version="1.0" encoding="UTF-8" standalone="no"?>
<svg
   width="56"
   height="56"
   viewBox="0 0 56 56"
   version="1.1"
   id="svg3"
   sodipodi:docname="box.curve.box.half-circle.medium.svg"
   inkscape:version="1.4.2 (ebf0e940, 2025-05-08)"
   xmlns:inkscape="http://www.inkscape.org/namespaces/inkscape"
   xmlns:sodipodi="http://sodipodi.sourceforge.net/DTD/sodipodi-0.dtd"
   xmlns="http://www.w3.org/2000/svg"
   xmlns:svg="http://www.w3.org/2000/svg">
  <clipPath
       id="clipPath30">
      <circle   
         cx="27.938269"
         cy="27.658203"
         r="27.091028"/>
    </clipPath>
  <path
     part="highlight"
     fill="#5f9ea0"
     d="m 48.07,32.339 -11.843,3.951 -12.23,-3.951 11.92,-4.15 11.908,4.066 z"
     id="highlight" />
  <path
     part="outline"
     fill="#000000"
     d="m 41.424,1.773 -0.051,0.002 -0.025,0.002 -4.864,0.502 a 0.75,0.75 0 1 0 0.154,1.492 l 2.69,-0.277 -6.898,5.92 H 20.756 L 20.65,9.422 A 0.749,0.749 0 0 0 20.082,9.836 L 13.289,23.834 H 4.12 c -0.199,0 -0.39,0.08 -0.531,0.22 l -2.352,2.35 a 0.75,0.75 0 0 0 0,1.06 l 0.084,0.073 a 0.75,0.75 0 0 0 0.977,-0.072 l 2.13,-2.131 h 9.33 l 0.108,-0.008 a 0.749,0.749 0 0 0 0.569,-0.414 l 6.793,-13.998 h 11.48 c 0.18,0 0.352,-0.063 0.488,-0.18 l 7.018,-6.025 -0.498,2.455 a 0.75,0.75 0 1 0 1.469,0.299 l 0.976,-4.79 0.004,-0.017 0.004,-0.037 A 0.719,0.719 0 0 0 42.173,2.461 L 42.171,2.445 A 0.88,0.88 0 0 0 42.167,2.412 L 42.157,2.355 42.147,2.32 A 0.77,0.77 0 0 0 42.13,2.268 0.952,0.952 0 0 0 42.066,2.131 L 42.042,2.098 42.015,2.058 A 0.753,0.753 0 0 0 41.98,2.018 L 41.95,1.988 41.911,1.951 C 41.901,1.942 41.889,1.934 41.878,1.926 A 0.673,0.673 0 0 0 41.7,1.826 L 41.665,1.812 H 41.663 A 0.768,0.768 0 0 0 41.575,1.789 L 41.567,1.787 C 41.549,1.784 41.53,1.779 41.511,1.777 L 41.474,1.775 41.46,1.773 h -0.035 z m -5.557,20.67 a 0.752,0.752 0 0 0 -0.701,0.75 v 2.797 l -1.914,-2.476 a 0.75,0.75 0 0 0 -0.824,-0.256 l -12.92,4.183 a 0.75,0.75 0 0 0 -0.295,1.248 l 3.83,3.764 -2.535,4.108 a 0.75,0.75 0 0 0 0.383,1.1 l 3.638,1.32 v 10.37 c 0,0.317 0.2,0.6 0.496,0.708 l 10.637,3.84 0.018,0.005 c 0.018,0.006 0.037,0.013 0.056,0.018 l 0.024,0.004 0.01,0.004 a 0.756,0.756 0 0 0 0.38,-0.026 l 12.155,-4.006 a 0.749,0.749 0 0 0 0.515,-0.71 v -10.57 l 3.532,-1.145 a 0.75,0.75 0 0 0 0.304,-1.237 l -3.715,-3.81 3.711,-3.742 A 0.75,0.75 0 0 0 52.34,27.437 L 36.137,22.475 a 0.755,0.755 0 0 0 -0.27,-0.032 z m 0.799,1.764 14.047,4.3 -2.848,2.874 -11.199,-3.733 z m -4.28,0.64 2.3,2.975 -10.497,3.655 -3.043,-2.989 11.24,-3.64 z m 3.532,4.135 9.701,3.311 -9.398,3.207 -9.866,-3.188 7.502,-2.615 z m -11.594,4.252 10.48,3.4 -2.091,3.632 -7.178,-2.516 -3.265,-1.186 z m 23.34,0.03 3.076,3.154 -10.947,3.549 -2.363,-3.287 z m -10.998,5.191 2.25,2.858 0.022,0.027 0.04,0.043 0.014,0.013 0.024,0.022 c 0.015,0.013 0.03,0.024 0.045,0.035 l 0.044,0.031 0.047,0.028 0.043,0.02 a 0.76,0.76 0 0 0 0.16,0.052 l 0.041,0.008 a 0.738,0.738 0 0 0 0.073,0.006 l 0.039,0.002 0.027,-0.002 h 0.026 l 0.07,-0.01 0.008,-0.002 0.066,-0.016 0.01,-0.002 0.025,-0.007 7.58,-2.221 v 9.305 l -10.654,3.511 v -13.7 z m -1.5,0.729 v 12.941 l -9.137,-3.299 v -9.314 l 6.778,2.375 a 0.745,0.745 0 0 0 0.158,0.037 l 0.056,0.004 0.045,0.002 a 0.757,0.757 0 0 0 0.067,-0.004 l 0.045,-0.008 c 0.018,-0.003 0.037,-0.005 0.054,-0.01 a 0.768,0.768 0 0 0 0.059,-0.017 l 0.04,-0.014 0.058,-0.027 0.039,-0.02 a 0.76,0.76 0 0 0 0.049,-0.031 l 0.046,-0.035 0.034,-0.028 a 0.765,0.765 0 0 0 0.048,-0.048 l 0.038,-0.047 -0.004,0.01 0.006,-0.008 v -0.002 l 0.02,-0.03 0.009,-0.013 0.002,-0.002 0.006,-0.008 v -0.002 l 0.004,-0.002 0.003,-0.006 0.004,-0.006 z m -6.393,5.492 a 0.75,0.75 0 0 0 -0.263,1.459 l 0.691,0.238 a 0.75043254,0.75043254 0 0 0 0.486,-1.42 l -0.69,-0.236 a 0.756,0.756 0 0 0 -0.224,-0.041 z m 2.315,0.812 a 0.75,0.75 0 0 0 -0.248,1.463 l 0.674,0.223 0.912,0.3 a 0.75,0.75 0 1 0 0.47,-1.424 l -0.912,-0.3 -0.673,-0.223 a 0.754,0.754 0 0 0 -0.223,-0.039 z m -2.547,1.678 a 0.75,0.75 0 0 0 -0.242,1.463 l 4.039,1.316 a 0.75011632,0.75011632 0 0 0 0.463,-1.427 l -4.037,-1.315 a 0.75,0.75 0 0 0 -0.223,-0.037 z"
     id="outline"/>
  <path
     id="background"
     part="background"
     fill="silver"
     d="M 0 0 L 0 23.59375 L 2.71875 21.0625 L 11.537109 21.035156 L 18.53125 6.6210938 L 30.175781 6.8964844 L 38.185547 0 L 0 0 z M 51.5 0 L 34.974609 13.738281 L 22.910156 13.738281 L 15.984375 28.134766 L 5.5878906 28.134766 L 0 33.65625 L 0 56 L 56 56 L 56 0 L 51.5 0 z M 35.935547 22.441406 C 36.003706 22.44312 36.071305 22.454622 36.136719 22.474609 L 52.339844 27.4375 C 52.880021 27.602656 53.05066 28.283079 52.652344 28.683594 L 48.941406 32.425781 L 52.65625 36.236328 C 53.043728 36.634146 52.879523 37.300443 52.351562 37.472656 L 48.820312 38.617188 L 48.820312 49.1875 C 48.819978 49.510956 48.612041 49.797655 48.304688 49.898438 L 36.150391 53.904297 C 36.027699 53.945197 35.896566 53.953938 35.769531 53.929688 L 35.759766 53.925781 L 35.736328 53.921875 C 35.717328 53.916875 35.697688 53.910297 35.679688 53.904297 L 35.662109 53.898438 L 25.025391 50.058594 C 24.729391 49.950594 24.529297 49.668563 24.529297 49.351562 L 24.529297 38.980469 L 20.890625 37.660156 C 20.442941 37.498195 20.257494 36.965507 20.507812 36.560547 L 23.042969 32.453125 L 19.212891 28.689453 C 18.811661 28.294591 18.972276 27.614904 19.507812 27.441406 L 32.427734 23.257812 C 32.728939 23.160653 33.058717 23.263012 33.251953 23.513672 L 35.166016 25.990234 L 35.166016 23.193359 C 35.166163 22.797877 35.472611 22.47009 35.867188 22.443359 C 35.889935 22.441884 35.912827 22.440835 35.935547 22.441406 z "
     clip-path="url(#clipPath30)" />
</svg>
