<svg width="96" height="96" viewBox="0 0 96 96" version="1.1" xmlns="http://www.w3.org/2000/svg"
   xmlns:xlink="http://www.w3.org/1999/xlink">
   <path part="background" fill="silver"
      d="M 68.759766 0 C 67.099766 0 65.759766 1.34 65.759766 3 L 65.759766 43.169922 L 78.25 46.980469 C 78.96 47.200469 79.190156 48.089375 78.660156 48.609375 L 71.359375 55.949219 L 78.669922 63.419922 C 79.179922 63.939922 78.959531 64.819063 78.269531 65.039062 L 71.310547 67.289062 L 71.310547 77.759766 L 90.009766 77.759766 C 91.669766 77.759766 93.009766 76.419766 93.009766 74.759766 L 93.009766 3 C 93.009766 1.34 91.669766 0 90.009766 0 L 90 0 L 68.759766 0 z M 37.380859 18.080078 C 35.720859 18.080078 34.380859 19.420078 34.380859 21.080078 L 34.380859 41.220703 L 38.599609 39.859375 C 40.009609 36.129375 43.609609 33.470703 47.849609 33.470703 C 52.369609 33.470703 56.169609 36.489375 57.349609 40.609375 L 61.619141 41.910156 L 61.619141 21.080078 C 61.619141 19.420078 60.279141 18.080078 58.619141 18.080078 L 37.380859 18.080078 z M 6 36.169922 C 4.34 36.169922 3 37.509922 3 39.169922 L 3 74.769531 C 3 76.429531 4.34 77.769531 6 77.769531 L 26.279297 77.769531 L 26.279297 67.990234 L 19.130859 65.400391 C 18.540859 65.190391 18.300859 64.490938 18.630859 63.960938 L 23.599609 55.949219 L 16.119141 48.630859 C 15.589141 48.110859 15.799766 47.220234 16.509766 46.990234 L 30.25 42.560547 L 30.25 39.169922 C 30.25 37.509922 28.91 36.169922 27.25 36.169922 L 6 36.169922 z " />
   <path part="outline" fill="black"
      d="M 47.769531 39.050781 C 47.349531 39.050781 47.019531 39.390781 47.019531 39.800781 L 47.019531 42.550781 L 44.369141 42.550781 C 43.959141 42.550781 43.619141 42.890781 43.619141 43.300781 C 43.619141 43.710781 43.959141 44.050781 44.369141 44.050781 L 47.019531 44.050781 L 47.019531 46.800781 C 47.019531 47.210781 47.359531 47.550781 47.769531 47.550781 C 48.179531 47.550781 48.519531 47.210781 48.519531 46.800781 L 48.519531 44.050781 L 51.369141 44.050781 C 51.779141 44.050781 52.119141 43.710781 52.119141 43.300781 C 52.119141 42.890781 51.779141 42.550781 51.369141 42.550781 L 48.519531 42.550781 L 48.519531 39.800781 C 48.519531 39.390781 48.189531 39.050781 47.769531 39.050781 z M 38.619141 39.859375 L 16.519531 46.990234 C 15.809531 47.220234 15.600859 48.110859 16.130859 48.630859 L 23.609375 55.949219 L 18.640625 63.960938 C 18.310625 64.490938 18.550625 65.190391 19.140625 65.400391 L 26.289062 67.990234 L 26.289062 87.800781 C 26.289062 88.210781 26.549453 88.580469 26.939453 88.730469 L 47.019531 95.949219 L 47.029297 95.949219 C 47.099297 95.979219 47.160469 95.99 47.230469 96 L 47.300781 96 L 47.330078 96 L 47.400391 96 L 47.439453 96 L 47.5 96 L 47.570312 95.980469 L 47.550781 95.980469 C 47.550781 95.980469 47.599141 95.980703 47.619141 95.970703 L 47.650391 95.970703 L 47.669922 95.949219 L 70.599609 88.419922 C 71.009609 88.289922 71.279297 87.910234 71.279297 87.490234 L 71.279297 67.300781 L 78.240234 65.050781 C 78.940234 64.820781 79.150625 63.949688 78.640625 63.429688 L 71.330078 55.960938 L 71.359375 55.949219 L 78.660156 48.609375 C 79.180156 48.079375 78.96 47.190469 78.25 46.980469 L 57.349609 40.609375 C 57.549609 41.299375 57.670938 42.029297 57.710938 42.779297 L 76.099609 48.390625 L 70.039062 54.480469 L 55.429688 49.630859 C 54.929688 50.220859 54.37 50.739219 53.75 51.199219 L 67.009766 55.710938 L 47.939453 62.189453 L 27.960938 55.759766 L 41.689453 51 C 41.119453 50.54 40.600625 50.019219 40.140625 49.449219 L 25.109375 54.660156 L 18.669922 48.359375 L 38.060547 42.109375 C 38.160547 41.329375 38.349141 40.579375 38.619141 39.859375 z M 25.279297 56.970703 L 45.890625 63.630859 L 41.5 71.220703 L 27.599609 66.369141 L 20.939453 63.960938 L 25.279297 56.970703 z M 69.660156 57.050781 L 76.140625 63.660156 L 54.519531 70.640625 L 49.529297 63.740234 L 69.660156 57.050781 z M 48.339844 66.060547 L 53.349609 72.400391 L 53.390625 72.439453 L 53.419922 72.470703 L 53.439453 72.490234 L 53.480469 72.529297 L 53.482422 72.529297 L 53.482422 72.53125 L 53.484375 72.53125 L 53.486328 72.53125 L 53.488281 72.533203 C 53.495781 72.539297 53.502266 72.553047 53.509766 72.560547 C 53.529766 72.580547 53.550312 72.589609 53.570312 72.599609 L 53.572266 72.599609 L 53.574219 72.601562 L 53.576172 72.601562 L 53.578125 72.603516 C 53.588438 72.609609 53.601875 72.623359 53.609375 72.630859 L 53.669922 72.660156 L 53.710938 72.679688 L 53.769531 72.710938 C 53.789531 72.710938 53.800313 72.720469 53.820312 72.730469 L 53.929688 72.759766 C 54.029688 72.779766 54.130469 72.779531 54.230469 72.769531 C 54.290469 72.769531 54.340391 72.750234 54.400391 72.740234 L 69.310547 68.390625 L 69.310547 86.759766 L 69.320312 86.769531 L 48.339844 93.650391 L 48.339844 66.060547 z M 46.369141 67.189453 L 46.369141 93.609375 L 28.259766 87.099609 L 28.259766 68.679688 L 41.630859 73.349609 C 41.680859 73.369609 41.739063 73.380625 41.789062 73.390625 C 41.849063 73.390625 41.900703 73.400391 41.970703 73.400391 L 42.029297 73.400391 L 42.070312 73.400391 L 42.130859 73.400391 C 42.147109 73.400391 42.164895 73.397942 42.175781 73.392578 L 42.177734 73.392578 L 42.179688 73.390625 L 42.199219 73.390625 C 42.259219 73.370625 42.320859 73.350312 42.380859 73.320312 C 42.400859 73.310312 42.429219 73.299297 42.449219 73.279297 L 42.451172 73.279297 L 42.453125 73.279297 L 42.455078 73.279297 L 42.457031 73.277344 C 42.464531 73.274062 42.472969 73.267266 42.480469 73.259766 C 42.500469 73.249766 42.509297 73.240469 42.529297 73.230469 L 42.550781 73.210938 L 42.570312 73.189453 C 42.570312 73.189453 42.599375 73.170156 42.609375 73.160156 L 42.650391 73.119141 L 42.689453 73.080078 L 42.730469 73.029297 L 42.740234 73.019531 L 42.769531 72.990234 L 42.789062 72.960938 L 46.369141 67.189453 z M 35.712891 80.019531 C 35.328516 80.036406 34.972578 80.277656 34.830078 80.660156 C 34.640078 81.170156 34.900156 81.739688 35.410156 81.929688 L 36.519531 82.349609 C 37.029531 82.539609 37.599063 82.279531 37.789062 81.769531 C 37.979062 81.259531 37.720937 80.69 37.210938 80.5 L 36.099609 80.080078 C 35.972109 80.032578 35.841016 80.013906 35.712891 80.019531 z M 39.642578 81.582031 C 39.257734 81.591875 38.9 81.828437 38.75 82.210938 C 38.55 82.710937 38.800547 83.280469 39.310547 83.480469 L 40.470703 83.929688 L 42.039062 84.539062 C 42.549062 84.739062 43.120312 84.490469 43.320312 83.980469 C 43.520312 83.480469 43.269766 82.910938 42.759766 82.710938 L 41.189453 82.099609 L 40.029297 81.650391 C 39.901797 81.600391 39.770859 81.57875 39.642578 81.582031 z M 35.033203 84.277344 C 34.648359 84.291406 34.290625 84.527656 34.140625 84.910156 C 33.950625 85.420156 34.200938 85.979687 34.710938 86.179688 L 41.660156 88.839844 C 42.170156 89.029844 42.749453 88.779531 42.939453 88.269531 C 43.129453 87.759531 42.879141 87.2 42.369141 87 L 35.419922 84.339844 C 35.292422 84.292344 35.161484 84.272656 35.033203 84.277344 z " />
   <path part="highlight" fill="cadetblue"
      d="M47.85,33.47c-5.46,0-9.88,4.41-9.88,9.84s4.43,9.84,9.88,9.84,9.88-4.41,9.88-9.84-4.43-9.84-9.88-9.84ZM51.37,44.05h-2.85v2.75c0,.41-.33.75-.75.75s-.75-.34-.75-.75v-2.75h-2.65c-.41,0-.75-.34-.75-.75s.34-.75.75-.75h2.65v-2.75c0-.41.34-.75.75-.75s.75.34.75.75v2.75s2.85,0,2.85,0c.41,0,.75.34.75.75s-.34.75-.75.75Z" />
</svg>