<svg width="56" height="56" viewBox="0 0 56 56" version="1.1" xmlns="http://www.w3.org/2000/svg"
  xmlns:xlink="http://www.w3.org/1999/xlink">
  <path part="background" fill="silver"
    d="M16.75,24.23v18.77h2.5v-2c0-1.52,1.59-2.78,4-3.37V8h-10.25c-2.21,0-4,1.79-4,4v7.26c.17,0,.33-.01.5-.01,4.13,0,7.25,1.61,7.25,3.75v1.23Z" />
  <path part="outline" fill="black"
    d="M 28 3.25 C 25.38 3.25 23.25 5.38 23.25 8 L 23.25 37.630859 C 20.84 38.230859 19.25 39.48 19.25 41 L 19.25 49 C 19.25 51.14 22.37 52.75 26.5 52.75 C 30.63 52.75 33.75 51.14 33.75 49 L 33.75 48.75 L 49 48.75 C 51.62 48.75 53.75 46.62 53.75 44 L 53.75 8 C 53.75 5.38 51.62 3.25 49 3.25 L 28 3.25 z M 28 4.75 L 49 4.75 C 50.79 4.75 52.25 6.21 52.25 8 L 52.25 44 C 52.25 45.79 50.79 47.25 49 47.25 L 33.75 47.25 L 33.75 41 C 33.75 38.86 30.63 37.25 26.5 37.25 C 25.89 37.25 25.31 37.289375 24.75 37.359375 L 24.75 8 C 24.75 6.21 26.21 4.75 28 4.75 z M 30 7.25 C 28.48 7.25 27.25 8.48 27.25 10 L 27.25 15 C 27.25 16.52 28.48 17.75 30 17.75 L 47 17.75 C 48.52 17.75 49.75 16.52 49.75 15 L 49.75 10 C 49.75 8.48 48.52 7.25 47 7.25 L 30 7.25 z M 30 8.75 L 47 8.75 C 47.69 8.75 48.25 9.31 48.25 10 L 48.25 15 C 48.25 15.69 47.69 16.25 47 16.25 L 30 16.25 C 29.31 16.25 28.75 15.69 28.75 15 L 28.75 10 C 28.75 9.31 29.31 8.75 30 8.75 z M 9.5 19.25 C 5.37 19.25 2.25 20.86 2.25 23 L 2.25 43 C 2.25 45.14 5.37 46.75 9.5 46.75 C 13.63 46.75 16.75 45.14 16.75 43 L 16.75 23 C 16.75 20.86 13.63 19.25 9.5 19.25 z M 30.5 20.25 C 28.71 20.25 27.25 21.71 27.25 23.5 C 27.25 25.29 28.71 26.75 30.5 26.75 C 32.29 26.75 33.75 25.29 33.75 23.5 C 33.75 21.71 32.29 20.25 30.5 20.25 z M 38.5 20.25 C 36.71 20.25 35.25 21.71 35.25 23.5 C 35.25 25.29 36.71 26.75 38.5 26.75 C 40.29 26.75 41.75 25.29 41.75 23.5 C 41.75 21.71 40.29 20.25 38.5 20.25 z M 46.5 20.25 C 44.71 20.25 43.25 21.71 43.25 23.5 C 43.25 25.29 44.71 26.75 46.5 26.75 C 48.29 26.75 49.75 25.29 49.75 23.5 C 49.75 21.71 48.29 20.25 46.5 20.25 z M 9.5 20.75 C 13.06 20.75 15.25 22.06 15.25 23 C 15.25 23.94 13.06 25.25 9.5 25.25 C 5.94 25.25 3.75 23.94 3.75 23 C 3.75 22.06 5.94 20.75 9.5 20.75 z M 30.5 21.75 C 31.46 21.75 32.25 22.54 32.25 23.5 C 32.25 24.46 31.46 25.25 30.5 25.25 C 29.54 25.25 28.75 24.46 28.75 23.5 C 28.75 22.54 29.54 21.75 30.5 21.75 z M 38.5 21.75 C 39.46 21.75 40.25 22.54 40.25 23.5 C 40.25 24.46 39.46 25.25 38.5 25.25 C 37.54 25.25 36.75 24.46 36.75 23.5 C 36.75 22.54 37.54 21.75 38.5 21.75 z M 46.5 21.75 C 47.46 21.75 48.25 22.54 48.25 23.5 C 48.25 24.46 47.46 25.25 46.5 25.25 C 45.54 25.25 44.75 24.46 44.75 23.5 C 44.75 22.54 45.54 21.75 46.5 21.75 z M 3.75 25.330078 C 5.05 26.200078 7.1 26.75 9.5 26.75 C 11.9 26.75 13.95 26.210078 15.25 25.330078 L 15.25 27 C 15.25 27.94 13.06 29.25 9.5 29.25 C 5.94 29.25 3.75 27.94 3.75 27 L 3.75 25.330078 z M 30.5 29.25 C 28.71 29.25 27.25 30.71 27.25 32.5 C 27.25 34.29 28.71 35.75 30.5 35.75 C 32.29 35.75 33.75 34.29 33.75 32.5 C 33.75 30.71 32.29 29.25 30.5 29.25 z M 38.5 29.25 C 36.71 29.25 35.25 30.71 35.25 32.5 C 35.25 34.29 36.71 35.75 38.5 35.75 C 40.29 35.75 41.75 34.29 41.75 32.5 C 41.75 30.71 40.29 29.25 38.5 29.25 z M 46.5 29.25 C 44.71 29.25 43.25 30.71 43.25 32.5 C 43.25 34.29 44.71 35.75 46.5 35.75 C 48.29 35.75 49.75 34.29 49.75 32.5 C 49.75 30.71 48.29 29.25 46.5 29.25 z M 3.75 29.330078 C 5.05 30.200078 7.1 30.75 9.5 30.75 C 11.9 30.75 13.95 30.210078 15.25 29.330078 L 15.25 31 C 15.25 31.94 13.06 33.25 9.5 33.25 C 5.94 33.25 3.75 31.94 3.75 31 L 3.75 29.330078 z M 30.5 30.75 C 31.46 30.75 32.25 31.54 32.25 32.5 C 32.25 33.46 31.46 34.25 30.5 34.25 C 29.54 34.25 28.75 33.46 28.75 32.5 C 28.75 31.54 29.54 30.75 30.5 30.75 z M 38.5 30.75 C 39.46 30.75 40.25 31.54 40.25 32.5 C 40.25 33.46 39.46 34.25 38.5 34.25 C 37.54 34.25 36.75 33.46 36.75 32.5 C 36.75 31.54 37.54 30.75 38.5 30.75 z M 46.5 30.75 C 47.46 30.75 48.25 31.54 48.25 32.5 C 48.25 33.46 47.46 34.25 46.5 34.25 C 45.54 34.25 44.75 33.46 44.75 32.5 C 44.75 31.54 45.54 30.75 46.5 30.75 z M 3.75 33.330078 C 5.05 34.200078 7.1 34.75 9.5 34.75 C 11.9 34.75 13.95 34.210078 15.25 33.330078 L 15.25 35 C 15.25 35.94 13.06 37.25 9.5 37.25 C 5.94 37.25 3.75 35.94 3.75 35 L 3.75 33.330078 z M 3.75 37.330078 C 5.05 38.200078 7.1 38.75 9.5 38.75 C 11.9 38.75 13.95 38.210078 15.25 37.330078 L 15.25 39 C 15.25 39.94 13.06 41.25 9.5 41.25 C 5.94 41.25 3.75 39.94 3.75 39 L 3.75 37.330078 z M 38.5 38.25 C 36.71 38.25 35.25 39.71 35.25 41.5 C 35.25 43.29 36.71 44.75 38.5 44.75 C 40.29 44.75 41.75 43.29 41.75 41.5 C 41.75 39.71 40.29 38.25 38.5 38.25 z M 46.5 38.25 C 44.71 38.25 43.25 39.71 43.25 41.5 C 43.25 43.29 44.71 44.75 46.5 44.75 C 48.29 44.75 49.75 43.29 49.75 41.5 C 49.75 39.71 48.29 38.25 46.5 38.25 z M 26.5 38.75 C 30.06 38.75 32.25 40.06 32.25 41 C 32.25 41.94 30.06 43.25 26.5 43.25 C 22.94 43.25 20.75 41.94 20.75 41 C 20.75 40.06 22.94 38.75 26.5 38.75 z M 38.5 39.75 C 39.46 39.75 40.25 40.54 40.25 41.5 C 40.25 42.46 39.46 43.25 38.5 43.25 C 37.54 43.25 36.75 42.46 36.75 41.5 C 36.75 40.54 37.54 39.75 38.5 39.75 z M 46.5 39.75 C 47.46 39.75 48.25 40.54 48.25 41.5 C 48.25 42.46 47.46 43.25 46.5 43.25 C 45.54 43.25 44.75 42.46 44.75 41.5 C 44.75 40.54 45.54 39.75 46.5 39.75 z M 3.75 41.330078 C 5.05 42.200078 7.1 42.75 9.5 42.75 C 11.9 42.75 13.95 42.210078 15.25 41.330078 L 15.25 43 C 15.25 43.94 13.06 45.25 9.5 45.25 C 5.94 45.25 3.75 43.94 3.75 43 L 3.75 41.330078 z M 20.75 43.330078 C 22.05 44.200078 24.1 44.75 26.5 44.75 C 28.9 44.75 30.95 44.210078 32.25 43.330078 L 32.25 45 C 32.25 45.94 30.06 47.25 26.5 47.25 C 22.94 47.25 20.75 45.94 20.75 45 L 20.75 43.330078 z M 20.75 47.330078 C 22.05 48.200078 24.1 48.75 26.5 48.75 C 28.9 48.75 30.95 48.210078 32.25 47.330078 L 32.25 49 C 32.25 49.94 30.06 51.25 26.5 51.25 C 22.94 51.25 20.75 49.94 20.75 49 L 20.75 47.330078 z " />
  <path part="highlight" fill="cadetblue"
    d="M9.5,20.75c-3.56,0-5.75,1.31-5.75,2.25s2.19,2.25,5.75,2.25,5.75-1.31,5.75-2.25-2.19-2.25-5.75-2.25Z" />
</svg>