<svg width="96" height="96" viewBox="0 0 96 96" version="1.1" xmlns="http://www.w3.org/2000/svg"
   xmlns:xlink="http://www.w3.org/1999/xlink">
   <path part="background" fill="silver"
      d="M 38 14 C 36.34 14 35 15.34 35 17 L 35 34 L 60 34 L 60 17 C 60 15.34 58.66 14 57 14 L 38 14 z M 6 30 C 4.34 30 3 31.34 3 33 L 3 71 C 3 72.66 4.34 74 6 74 L 11 74 L 11 39 C 11 36.24 13.24 34 16 34 L 28 34 L 28 33 C 28 31.34 26.66 30 25 30 L 6 30 z M 70 30 C 68.34 30 67 31.34 67 33 L 67 34.419922 C 68.76 35.189922 70 36.95 70 39 L 70 44.710938 C 75.18 46.170938 79.450703 49.839141 81.720703 54.619141 C 86.680703 49.909141 89.5 43.37 89.5 36.5 C 89.5 34.26 89.200391 32.08 88.650391 30 L 70 30 z M 90.839844 30.650391 C 91.249844 32.540391 91.5 34.49 91.5 36.5 C 91.5 44.17 88.229297 51.469844 82.529297 56.589844 C 83.159297 58.449844 83.5 60.43 83.5 62.5 C 83.5 66.23 82.380703 69.699375 80.470703 72.609375 L 81.859375 74 L 89 74 C 90.66 74 92 72.66 92 71 L 92 33 C 92 32.04 91.539844 31.200391 90.839844 30.650391 z " />
   <path part="outline" fill="black"
      d="M 62.09375 9.6054688 C 62.05946 9.6051514 62.025234 9.60625 61.990234 9.609375 C 60.680234 9.729375 59.369609 9.9497656 58.099609 10.259766 C 57.559609 10.389766 57.229375 10.930703 57.359375 11.470703 C 57.469375 11.930703 57.880078 12.230469 58.330078 12.230469 L 58.339844 12.230469 C 58.419844 12.230469 58.500078 12.229219 58.580078 12.199219 C 59.760078 11.909219 60.969687 11.709609 62.179688 11.599609 C 62.729687 11.549609 63.140078 11.059766 63.080078 10.509766 C 63.033203 9.9941406 62.608093 9.6102295 62.09375 9.6054688 z M 68.755859 9.8476562 C 68.288555 9.8655665 67.889297 10.207186 67.810547 10.679688 C 67.720547 11.219686 68.090859 11.740078 68.630859 11.830078 C 80.730859 13.840078 89.509766 24.210234 89.509766 36.490234 C 89.509766 43.360234 86.680469 49.899375 81.730469 54.609375 C 79.460469 49.819375 75.199766 46.159219 70.009766 44.699219 L 70.009766 38.990234 C 70.009766 36.230234 67.769766 33.990234 65.009766 33.990234 L 16 33.990234 C 13.24 33.990234 11 36.230234 11 38.990234 L 11 73.990234 C 11 76.750234 13.24 78.990234 16 78.990234 L 56.679688 78.990234 C 59.189687 80.260234 62.01 80.990234 65 80.990234 C 68.21 80.990234 71.229141 80.170703 73.869141 78.720703 L 84.75 89.599609 C 85.6 90.449609 86.729686 90.919922 87.929688 90.919922 C 89.129688 90.919922 90.259375 90.449609 91.109375 89.599609 C 91.959375 88.749609 92.429688 87.619922 92.429688 86.419922 C 92.429688 85.219922 91.959375 84.090234 91.109375 83.240234 L 80.480469 72.609375 C 82.390469 69.699375 83.509766 66.23 83.509766 62.5 C 83.509766 60.43 83.159063 58.449844 82.539062 56.589844 C 88.249062 51.469844 91.509766 44.17 91.509766 36.5 C 91.509766 23.23 82.020937 12.029375 68.960938 9.859375 C 68.892188 9.848125 68.822617 9.8450978 68.755859 9.8476562 z M 52.820312 12.25 C 52.69125 12.257344 52.561953 12.289609 52.439453 12.349609 C 51.669453 12.729609 50.909687 13.159141 50.179688 13.619141 C 49.709688 13.909141 49.569375 14.53 49.859375 15 C 50.049375 15.3 50.380938 15.470703 50.710938 15.470703 L 50.710938 15.460938 C 50.890937 15.460938 51.080234 15.410547 51.240234 15.310547 C 51.920234 14.890547 52.620078 14.490625 53.330078 14.140625 C 53.820078 13.890625 54.019297 13.290781 53.779297 12.800781 C 53.591797 12.433281 53.2075 12.227969 52.820312 12.25 z M 46.542969 16.722656 C 46.287969 16.717656 46.030078 16.81 45.830078 17 C 43.140078 19.58 41.009844 22.699141 39.589844 26.119141 L 37.820312 21.269531 C 37.630313 20.749531 37.059063 20.479922 36.539062 20.669922 C 36.019062 20.859922 35.749453 21.429219 35.939453 21.949219 L 39.017578 30.40625 L 47.470703 27.330078 C 47.990703 27.140078 48.260313 26.570781 48.070312 26.050781 C 47.880313 25.530781 47.309063 25.259219 46.789062 25.449219 L 41.179688 27.490234 C 42.499688 24.090234 44.560937 20.979453 47.210938 18.439453 C 47.610937 18.059453 47.620234 17.419297 47.240234 17.029297 C 47.050234 16.829297 46.797969 16.727656 46.542969 16.722656 z M 39.017578 30.40625 L 39.009766 30.410156 L 39.019531 30.410156 L 39.017578 30.40625 z M 16 36 L 65 36 C 66.65 36 68 37.35 68 39 L 68 41 L 13 41 L 13 39 C 13 37.35 14.35 36 16 36 z M 13 43 L 68 43 L 68 44.269531 C 67.02 44.109531 66.02 44 65 44 C 59.35 44 54.290625 46.550547 50.890625 50.560547 C 50.730625 50.230547 50.39 50 50 50 L 43.5 50 C 42.95 50 42.5 50.45 42.5 51 C 42.5 51.55 42.95 52 43.5 52 L 49.789062 52 C 48.939062 53.23 48.240938 54.58 47.710938 56 L 43.509766 56 C 42.959766 56 42.509766 56.45 42.509766 57 C 42.509766 57.55 42.959766 58 43.509766 58 L 47.089844 58 C 46.769844 59.29 46.579062 60.62 46.539062 62 L 43.509766 62 C 42.959766 62 42.509766 62.45 42.509766 63 C 42.509766 63.55 42.959766 64 43.509766 64 L 46.580078 64 C 46.690078 65.38 46.949375 66.72 47.359375 68 L 43.519531 68 C 42.969531 68 42.519531 68.45 42.519531 69 C 42.519531 69.55 42.969531 70 43.519531 70 L 48.019531 70 C 48.019531 70 48.079375 69.980469 48.109375 69.980469 C 49.339375 72.740469 51.220547 75.15 53.560547 77 L 16 77 C 14.35 77 13 75.65 13 74 L 13 43 z M 65.009766 45.970703 C 65.529766 45.970703 66.039062 46.000781 66.539062 46.050781 C 68.529062 46.230781 70.399141 46.779609 72.119141 47.599609 C 72.249141 47.659609 72.389531 47.729064 72.519531 47.789062 C 72.809531 47.939062 73.079375 48.089766 73.359375 48.259766 C 73.479375 48.329766 73.600703 48.410469 73.720703 48.480469 C 74.000703 48.660469 74.280781 48.829297 74.550781 49.029297 C 74.640781 49.089297 74.720781 49.160703 74.800781 49.220703 C 75.700781 49.890703 76.529531 50.640703 77.269531 51.470703 C 77.339531 51.550703 77.42 51.630703 77.5 51.720703 C 77.71 51.960703 77.899844 52.210937 78.089844 52.460938 C 78.189844 52.590938 78.290859 52.719609 78.380859 52.849609 C 78.550859 53.089609 78.720625 53.339844 78.890625 53.589844 C 78.990625 53.749844 79.079687 53.910313 79.179688 54.070312 C 79.329688 54.310313 79.469375 54.560547 79.609375 54.810547 C 79.729375 55.040547 79.839219 55.269766 79.949219 55.509766 C 80.109219 55.859766 80.260391 56.210313 80.400391 56.570312 C 80.510391 56.840314 80.609219 57.110625 80.699219 57.390625 C 80.769219 57.590625 80.820859 57.79 80.880859 58 C 80.960859 58.29 81.039609 58.569141 81.099609 58.869141 C 81.139609 59.069141 81.190703 59.260937 81.220703 59.460938 C 81.280703 59.790937 81.329141 60.119219 81.369141 60.449219 C 81.389141 60.619219 81.419687 60.790936 81.429688 60.960938 C 81.479686 61.470937 81.509766 61.98 81.509766 62.5 C 81.509766 63.02 81.479453 63.490469 81.439453 63.980469 C 81.429453 64.140469 81.410625 64.300938 81.390625 64.460938 C 81.350625 64.790937 81.300234 65.109688 81.240234 65.429688 C 81.200234 65.659688 81.149609 65.899141 81.099609 66.119141 C 81.019609 66.449141 80.939609 66.779609 80.849609 67.099609 C 80.759609 67.409609 80.649062 67.719297 80.539062 68.029297 C 80.509062 68.099297 80.490937 68.170234 80.460938 68.240234 C 79.700936 70.290234 78.540078 72.150703 77.080078 73.720703 C 77.060078 73.740703 77.049297 73.759297 77.029297 73.779297 C 76.779297 74.049297 76.510234 74.310547 76.240234 74.560547 C 76.170234 74.620547 76.099297 74.69 76.029297 74.75 C 75.769297 74.98 75.510469 75.209687 75.230469 75.429688 C 75.160469 75.489688 75.08 75.539609 75 75.599609 L 75 75.609375 C 73.71 76.599375 72.270937 77.390703 70.710938 77.970703 C 70.670936 77.980703 70.629844 77.999766 70.589844 78.009766 C 70.169844 78.159766 69.740547 78.300156 69.310547 78.410156 C 69.100547 78.470156 68.889922 78.520313 68.669922 78.570312 C 68.469922 78.610314 68.270313 78.659219 68.070312 78.699219 C 67.660314 78.779219 67.240313 78.840625 66.820312 78.890625 C 66.710313 78.900625 66.590469 78.909922 66.480469 78.919922 C 65.990469 78.959922 65.5 78.990234 65 78.990234 C 61.99 78.990234 59.189766 78.169531 56.759766 76.769531 C 56.519766 76.629531 56.280781 76.489844 56.050781 76.339844 C 55.860781 76.219844 55.670469 76.089219 55.480469 75.949219 C 55.290469 75.819219 55.109922 75.679297 54.919922 75.529297 C 54.639922 75.319297 54.379141 75.099141 54.119141 74.869141 C 53.929141 74.699141 53.730781 74.529609 53.550781 74.349609 C 53.380781 74.179609 53.210781 74.009844 53.050781 73.839844 C 52.900781 73.679844 52.749375 73.519375 52.609375 73.359375 C 52.459375 73.189375 52.300156 73.010078 52.160156 72.830078 C 51.920156 72.530078 51.690938 72.220391 51.460938 71.900391 C 51.340938 71.720391 51.219609 71.539609 51.099609 71.349609 C 50.959609 71.139609 50.830938 70.919219 50.710938 70.699219 C 50.610937 70.519219 50.500156 70.350156 50.410156 70.160156 C 50.220156 69.790156 50.029141 69.419297 49.869141 69.029297 C 49.799141 68.879297 49.749453 68.730314 49.689453 68.570312 C 49.569453 68.270314 49.459375 67.970156 49.359375 67.660156 C 49.309375 67.500156 49.260937 67.349453 49.210938 67.189453 C 49.080936 66.749453 48.959141 66.309375 48.869141 65.859375 C 48.849141 65.769375 48.840313 65.689609 48.820312 65.599609 C 48.740313 65.199609 48.680859 64.790859 48.630859 64.380859 C 48.610859 64.240859 48.599844 64.110703 48.589844 63.970703 C 48.549844 63.480703 48.509766 62.980703 48.509766 62.470703 C 48.509766 53.360703 55.899766 45.970703 65.009766 45.970703 z M 17.5 50 C 16.95 50 16.5 50.45 16.5 51 C 16.5 51.55 16.95 52 17.5 52 L 24 52 C 24.55 52 25 51.55 25 51 C 25 50.45 24.55 50 24 50 L 17.5 50 z M 30.5 50 C 29.95 50 29.5 50.45 29.5 51 C 29.5 51.55 29.95 52 30.5 52 L 37 52 C 37.55 52 38 51.55 38 51 C 38 50.45 37.55 50 37 50 L 30.5 50 z M 17.5 56 C 16.95 56 16.5 56.45 16.5 57 C 16.5 57.55 16.95 58 17.5 58 L 24 58 C 24.55 58 25 57.55 25 57 C 25 56.45 24.55 56 24 56 L 17.5 56 z M 30.5 56 C 29.95 56 29.5 56.45 29.5 57 C 29.5 57.55 29.95 58 30.5 58 L 37 58 C 37.55 58 38 57.55 38 57 C 38 56.45 37.55 56 37 56 L 30.5 56 z M 17.5 62 C 16.95 62 16.5 62.45 16.5 63 C 16.5 63.55 16.95 64 17.5 64 L 24 64 C 24.55 64 25 63.55 25 63 C 25 62.45 24.55 62 24 62 L 17.5 62 z M 30.5 62 C 29.95 62 29.5 62.45 29.5 63 C 29.5 63.55 29.95 64 30.5 64 L 37 64 C 37.55 64 38 63.55 38 63 C 38 62.45 37.55 62 37 62 L 30.5 62 z M 17.5 68 C 16.95 68 16.5 68.45 16.5 69 C 16.5 69.55 16.95 70 17.5 70 L 24 70 C 24.55 70 25 69.55 25 69 C 25 68.45 24.55 68 24 68 L 17.5 68 z M 30.5 68 C 29.95 68 29.5 68.45 29.5 69 C 29.5 69.55 29.95 70 30.5 70 L 37 70 C 37.55 70 38 69.55 38 69 C 38 68.45 37.55 68 37 68 L 30.5 68 z M 79.279297 74.25 L 89.689453 84.660156 C 90.159453 85.130156 90.419922 85.759687 90.419922 86.429688 C 90.419922 87.099688 90.159453 87.719219 89.689453 88.199219 L 89.689453 88.189453 C 88.739453 89.139453 87.100391 89.129453 86.150391 88.189453 L 75.599609 77.640625 C 76.969609 76.680625 78.209297 75.54 79.279297 74.25 z " />
   <path part="highlight" fill="cadetblue"
      d="M 61.009766 54.990234 C 59.909766 54.990234 59.009766 55.890234 59.009766 56.990234 L 59.009766 59.990234 C 59.009766 61.090234 59.909766 61.990234 61.009766 61.990234 L 81.480469 61.990234 C 81.470469 61.640234 81.459688 61.289219 81.429688 60.949219 L 81.369141 60.439453 L 81.359375 60.449219 C 81.319375 60.119219 81.270937 59.780938 81.210938 59.460938 C 81.170937 59.260937 81.129844 59.059141 81.089844 58.869141 C 81.019844 58.579141 80.949141 58.29 80.869141 58 C 80.809141 57.8 80.759453 57.590625 80.689453 57.390625 C 80.599453 57.110625 80.490625 56.840313 80.390625 56.570312 C 80.250625 56.210313 80.099453 55.859766 79.939453 55.509766 C 79.859453 55.339766 79.779453 55.170234 79.689453 54.990234 L 61.009766 54.990234 z M 50.320312 55 C 49.240313 57.11 48.609297 59.48 48.529297 62 L 55 62 C 56.1 62 57 61.1 57 60 L 57 57 C 57 55.9 56.1 55 55 55 L 50.320312 55 z M 48.580078 64 C 48.590078 64.14 48.609141 64.270391 48.619141 64.400391 C 48.669141 64.810391 48.730547 65.219141 48.810547 65.619141 C 48.830547 65.709141 48.839375 65.790859 48.859375 65.880859 C 48.949375 66.330859 49.069219 66.770938 49.199219 67.210938 C 49.249219 67.370937 49.299609 67.519688 49.349609 67.679688 C 49.449609 67.989688 49.559688 68.289844 49.679688 68.589844 C 49.739688 68.739844 49.799375 68.900781 49.859375 69.050781 C 50.029375 69.430781 50.210391 69.809687 50.400391 70.179688 L 50.699219 70.720703 C 50.759219 70.820703 50.819141 70.909766 50.869141 71.009766 L 64.990234 71.009766 C 66.090234 71.009766 66.990234 70.109766 66.990234 69.009766 L 67 69 L 67 66 C 67 64.9 66.1 64 65 64 L 48.580078 64 z M 71.009766 64 C 69.909766 64 69.009766 64.9 69.009766 66 L 69 66 L 69 69 C 69 70.1 69.9 71 71 71 L 79.109375 71 C 79.629375 70.13 80.089219 69.210234 80.449219 68.240234 C 80.479219 68.170234 80.499297 68.099297 80.529297 68.029297 C 80.639297 67.719297 80.749844 67.419609 80.839844 67.099609 C 80.939844 66.779609 81.019844 66.449141 81.089844 66.119141 C 81.139844 65.889141 81.190469 65.659688 81.230469 65.429688 C 81.290469 65.109688 81.340859 64.790937 81.380859 64.460938 C 81.400859 64.310937 81.419688 64.15 81.429688 64 L 71.009766 64 z " />
</svg>