<svg width="56" height="56" viewBox="0 0 56 56" version="1.1" xmlns="http://www.w3.org/2000/svg"
  xmlns:xlink="http://www.w3.org/1999/xlink">
  <path part="background" fill="silver"
    d="m 40.910156,1 c -1.656854,0 -3,1.3431458 -3,3 v 16.511719 c 1.787716,0.721989 3.050782,2.484449 3.050782,4.544922 v 7.953125 c 2.962,0.047 5.335937,1.373 5.335937,3 0,0.813 -0.591687,1.549843 -1.554687,2.089843 l 0.30664,-0.08984 L 45.125,40 H 48 c 1.656854,0 3,-1.343146 3,-3 V 4 C 51,2.3431458 49.656854,1 48,1 Z M 15.28125,39.904297 C 14.798276,39.143287 14.517578,38.23861 14.517578,37.267578 V 25.056641 c 0,-2.090715 1.300035,-3.874772 3.128906,-4.576172 -0.545824,-0.888506 -1.513871,-1.429844 -2.55664,-1.429688 H 8 c -1.6568542,0 -3,1.343146 -3,3 v 14.859375 c 0,1.656854 1.3431458,3 3,3 h 7.089844 c 0.06385,8.4e-5 0.127683,-0.0019 0.191406,-0.0059 z m 6.167969,-19.742188 h 13.089843 v -6.697265 c 0,-1.656854 -1.343146,-3 -3,-3 h -7.089843 c -1.656854,0 -3,1.343146 -3,3 z" />
  <path part="highlight" fill="cadetblue"
    d="m 18.396,20.018 h 19 a 3.5,3.5 0 0 1 3.5,3.5 v 3.5 h -26 v -3.5 a 3.5,3.5 0 0 1 3.5,-3.5 z" />
  <path part="outline" fill="black"
    d="M 11.664,1.041 A 0.75,0.75 0 0 0 10.99,1.408 l -0.047,0.09 a 0.75,0.75 0 0 0 0.307,0.938 l 1.893,1.125 A 15.752,15.752 0 0 0 10.869,4.236 C 10.307,4.452 9.761,4.698 9.232,4.975 a 0.75,0.75 0 1 0 0.696,1.328 13.899,13.899 0 0 1 3.677,-1.307 l -1.209,1.992 a 0.751,0.751 0 0 0 1.283,0.777 L 15.797,4.277 A 0.75,0.75 0 0 0 15.539,3.244 L 12.018,1.146 A 0.747,0.747 0 0 0 11.664,1.041 Z M 6.75,6.813 A 0.744,0.744 0 0 0 6.28,6.998 C 5.83,7.393 5.404,7.82 5.008,8.27 A 0.75003817,0.75003817 0 0 0 6.135,9.26 C 6.488,8.858 6.868,8.478 7.27,8.125 A 0.75,0.75 0 0 0 6.75,6.812 Z m -3.479,4.07 a 0.751,0.751 0 0 0 -0.666,0.383 12.744,12.744 0 0 0 -1.607,5.838 0.75028011,0.75028011 0 0 0 1.5,0.041 c 0.05,-1.795 0.54,-3.576 1.418,-5.147 A 0.751,0.751 0 0 0 3.271,10.883 Z m 18.614,6.486 a 0.75,0.75 0 0 0 -0.75,0.75 v 1.283 H 19.48 c -3.17,0.01 -5.712,2.524 -5.712,5.647 v 12.209 c 0,3.068 2.609,5.502 5.712,5.502 h 3.586 a 0.75,0.75 0 0 0 0,-1.5 H 19.48 c -2.297,0 -4.212,-1.786 -4.212,-4.002 v -9.963 h 24.941 l 0.002,4.002 a 0.75,0.75 0 1 0 1.5,0 v -6.248 c 0,-3.161 -2.494,-5.636 -5.77,-5.647 H 34.797 V 18.14 a 0.75,0.75 0 1 0 -1.5,0 v 1.263 H 22.635 V 18.12 a 0.75,0.75 0 0 0 -0.75,-0.75 z m -2.403,3.533 h 1.653 v 0.754 a 0.75,0.75 0 0 0 1.5,0 v -0.754 h 10.662 v 0.776 a 0.75,0.75 0 0 0 1.5,0 v -0.776 h 1.142 c 2.45,0.008 4.272,1.816 4.272,4.147 l -0.002,0.746 H 15.268 v -0.746 c 0,-2.291 1.868,-4.139 4.214,-4.147 z M 40.797,33.01 c -2.914,0 -5.297,1.236 -5.486,2.799 a 0.75,0.75 0 0 0 -0.014,0.13 l -0.014,3.012 -0.857,-1.918 a 0.818,0.818 0 0 0 -0.108,-0.176 c -0.925,-1.378 -3.7,-1.26 -6.271,0.284 -2.616,1.571 -4.027,4.024 -3.152,5.48 l 0.017,0.043 1.397,3.246 c 0.01,0.024 0.02,0.046 0.033,0.069 l 0.035,0.058 a 0.729,0.729 0 0 0 0.037,0.049 l 0.025,0.031 0.002,0.002 0.012,0.012 0.006,0.006 0.027,0.025 0.01,0.01 c 1.347,1.21 3.852,0.71 6.547,-0.983 0.974,-0.611 1.74,-1.338 2.262,-2.06 0.004,0.018 0.01,0.035 0.015,0.053 l 0.014,0.04 0.006,0.014 0.014,0.032 0.019,0.037 0.012,0.021 c 0.838,1.497 2.627,2.434 5.521,2.434 2.375,0 4.792,-1.038 5.37,-2.55 a 0.752,0.752 0 0 0 0.05,-0.251 v -7.031 a 0.717,0.717 0 0 0 -0.08,-0.332 c -0.37,-1.461 -2.67,-2.586 -5.45,-2.586 z m 0,1.5 c 2.32,0 4,0.917 4,1.5 0,0.583 -1.68,1.5 -4,1.5 -2.32,0 -4,-0.917 -4,-1.5 0,-0.583 1.68,-1.5 4,-1.5 z m -8.682,2.867 c 0.494,0.005 0.843,0.123 0.965,0.326 0.326,0.543 -0.639,2.222 -2.639,3.424 -1.934,1.162 -3.809,1.26 -4.224,0.773 L 26.215,41.898 V 41.896 A 0.376,0.376 0 0 1 26.18,41.85 l 0.035,0.046 -0.022,-0.05 -0.023,-0.059 a 0.509,0.509 0 0 0 -0.041,-0.078 c -0.125,-0.65 0.839,-2.171 2.69,-3.283 1.25,-0.751 2.474,-1.057 3.296,-1.049 z m 12.711,0.674 v 1.492 c -0.406,0.71 -2.207,1.373 -4.02,1.373 -2.283,0 -3.453,-0.538 -4.025,-1.426 l 0.006,-1.428 c 1.003,0.583 2.429,0.948 4.01,0.948 1.591,0 3.025,-0.37 4.03,-0.96 z m -10.816,1.724 0.48,1.077 0.08,0.18 0.034,0.072 c 0.07,0.477 -0.715,1.782 -2.358,2.814 -2.075,1.303 -3.881,1.709 -4.639,1.219 l -0.638,-1.49 0.125,0.005 c 1.202,0.034 2.692,-0.383 4.119,-1.24 1.189,-0.714 2.129,-1.611 2.719,-2.514 z m 10.816,1.698 v 1.306 c -0.415,0.757 -2.177,1.48 -3.92,1.48 -2.26,0 -3.528,-0.604 -4.127,-1.523 l 0.002,-1.213 c 0.945,0.578 2.259,0.893 4.026,0.893 1.48,0 2.955,-0.343 4.02,-0.943 z m 9.371,1.037 a 0.752,0.752 0 0 0 -0.68,0.605 c -0.513,2.621 -1.336,4.08 -3.072,5.65 -1.49,1.348 -3.748,2.396 -5.732,2.69 l 1.451,-2.392 a 0.75,0.75 0 1 0 -1.281,-0.777 l -2.117,3.485 a 0.75,0.75 0 0 0 0.257,1.034 l 3.52,2.097 a 0.751,0.751 0 0 0 1.03,-0.26 l 0.046,-0.091 a 0.749,0.749 0 0 0 -0.308,-0.936 l -1.442,-0.86 c 2.013,-0.48 4.105,-1.54 5.582,-2.876 1.976,-1.788 2.964,-3.539 3.54,-6.477 A 0.749,0.749 0 0 0 54.398,42.523 L 54.297,42.51 Z" />
</svg>