<svg width="96" height="96" viewBox="0 0 96 96" version="1.1" xmlns="http://www.w3.org/2000/svg"
  xmlns:xlink="http://www.w3.org/1999/xlink">
  <path part="highlight" fill="cadetblue"
    d="M23.02,44.8h43v-1.46c0-4.01-3.25-7.26-7.26-7.26h-2.59s0,1.57,0,1.57c0,.55-.45,1-1,1s-1-.45-1-1v-1.58h-18.7v1.54c0,.55-.45,1-1,1s-1-.45-1-1v-1.54s-3.19,0-3.19,0c-4.01,0-7.26,3.25-7.26,7.26v1.46Z" />
  <path part="background" fill="silver"
    d="M 70.070312 1.3007812 C 68.410313 1.3007812 67.070312 2.6407813 67.070312 4.3007812 L 67.070312 39.279297 C 67.670312 40.509297 68.019531 41.879844 68.019531 43.339844 L 68.019531 58.029297 C 72.639531 58.259297 76.270391 60.110859 76.400391 62.380859 L 76.400391 62.509766 L 76.400391 66.960938 L 86.970703 66.960938 C 88.630703 66.960938 89.970703 65.620937 89.970703 63.960938 L 89.970703 4.3007812 C 89.970703 2.6407812 88.630703 1.3007812 86.970703 1.3007812 L 70.070312 1.3007812 z M 39.529297 16.560547 C 37.869297 16.560547 36.529297 17.900547 36.529297 19.560547 L 36.529297 34.070312 L 54.160156 34.070312 L 54.169922 34.080078 L 54.169922 31.650391 C 54.169922 31.100391 54.619922 30.650391 55.169922 30.650391 C 55.719922 30.650391 56.169922 31.100391 56.169922 31.650391 L 56.169922 34.080078 L 58.759766 34.080078 C 58.989766 34.080078 59.209688 34.099375 59.429688 34.109375 L 59.429688 19.560547 C 59.429688 17.900547 58.089687 16.560547 56.429688 16.560547 L 39.529297 16.560547 z M 9 31.839844 C 7.34 31.839844 6 33.179844 6 34.839844 L 6 63.960938 C 6 65.620937 7.34 66.960938 9 66.960938 L 21.529297 66.960938 C 21.199297 66.010937 21.019531 64.999453 21.019531 63.939453 L 21.019531 43.339844 C 21.019531 38.719844 24.410078 34.900938 28.830078 34.210938 C 28.540078 32.860937 27.340391 31.839844 25.900391 31.839844 L 11.720703 31.839844 C 10.940703 33.889844 10.499453 36.06 10.439453 38.25 C 10.419453 38.8 9.9601563 39.240703 9.4101562 39.220703 C 8.8601562 39.200703 8.4194531 38.739453 8.4394531 38.189453 C 8.4994531 36.029453 8.8898438 33.879844 9.5898438 31.839844 L 9 31.839844 z " />
  <path part="outline" fill="black"
    d="m 26.724609,10.986328 c -0.320996,0.01738 -0.629687,0.190625 -0.804687,0.484375 l -0.05078,0.09961 c -0.2,0.460001 -0.03961,1.009532 0.40039,1.269532 l 3.759766,2.259765 c -0.74,0.12 -1.47875,0.280704 -2.21875,0.470703 -0.97,0.250001 -1.921328,0.559922 -2.861328,0.919922 -0.94,0.37 -1.858282,0.78 -2.738281,1.25 -0.49,0.26 -0.681876,0.85961 -0.421876,1.34961 0.26,0.49 0.861563,0.679922 1.351563,0.419922 0.82,-0.43 1.659297,-0.820391 2.529297,-1.150391 0.86,-0.34 1.740625,-0.619609 2.640625,-0.849609 0.73,-0.18 1.449687,-0.329219 2.179687,-0.449219 L 30.699219,17.029297 28.310547,21 c -0.29,0.47 -0.130156,1.089141 0.339844,1.369141 0.47,0.29 1.08914,0.130156 1.36914,-0.339844 l 3.580078,-5.949219 c 0.29,-0.47 0.130157,-1.089141 -0.339843,-1.36914 l -5.949219,-3.580079 h -0.02148 c -0.176249,-0.10875 -0.371855,-0.154961 -0.564453,-0.144531 z m -8.816406,9.910156 c -0.224714,0.0083 -0.449531,0.09203 -0.628906,0.253907 -0.75,0.66 -1.459141,1.378671 -2.119141,2.138671 -0.36,0.42 -0.32039,1.050157 0.09961,1.410157 0.42,0.36 1.050156,0.32039 1.410156,-0.09961 0.6,-0.69 1.249453,-1.348984 1.939453,-1.958984 0.41,-0.36 0.450078,-1.000156 0.08008,-1.410156 -0.2025,-0.230625 -0.492331,-0.344619 -0.78125,-0.333985 z m -5.892578,6.947266 c -0.354304,-0.0023 -0.699141,0.185625 -0.884766,0.515625 v -0.0098 c -1.6599996,3 -2.5916403,6.400079 -2.6816402,9.830079 -0.02,0.549999 0.4207031,1.011249 0.9707031,1.03125 0.55,0.02 1.0092971,-0.420704 1.0292971,-0.970704 0.08,-3.11 0.92164,-6.190156 2.43164,-8.910156 0.27,-0.48 0.08938,-1.089375 -0.390625,-1.359375 -0.15,-0.08438 -0.313562,-0.125891 -0.474609,-0.126953 z m 22.455078,2.746094 c -0.55,0 -1,0.45 -1,1 v 2.470703 h -3.191406 c -5.11,0 -9.259766,4.149765 -9.259766,9.259765 v 20.59961 c 0,5.11 4.139766,9.259765 9.259766,9.259766 h 7.431641 c 0.03,0.06 0.05961,0.110156 0.09961,0.160156 l 2.548828,5.019531 c 0,0 0.0016,0.01359 0.0059,0.02344 4.13e-4,7.94e-4 0.0034,0.0051 0.0039,0.0059 v 0.002 c 0,0.0012 0.0018,0.0047 0.002,0.0059 2.83e-4,0.0011 0.0016,0.0048 0.002,0.0059 5.08e-4,9.76e-4 0.0033,0.0049 0.0039,0.0059 0.0067,0.0087 0.01719,0.01524 0.02344,0.02148 0.01,0.02 0.01906,0.04055 0.03906,0.06055 v 0.002 l 0.002,0.002 v 0.002 c 0.0052,0.0106 0.02117,0.02508 0.0293,0.0332 0.01,0.02 0.02906,0.03078 0.03906,0.05078 0.03,0.04 0.06938,0.06937 0.109375,0.109375 1.89,1.52 5.250625,1.560313 10.390625,-1.179687 2.26,-1.21 4.079375,-2.760078 5.109375,-4.330078 h 1.541015 c 0,0 -2.34e-4,0.08109 0.0098,0.121093 v 0.0293 c 0.01,0.05 0.03078,0.100391 0.05078,0.150391 1.19,2.81 4.399688,4.15039 9.429688,4.15039 5.01,0 8.140156,-1.33039 9.160156,-4.15039 0.02,-0.05 0.02906,-0.100391 0.03906,-0.150391 0.02,-0.08 0.03125,-0.160234 0.03125,-0.240234 v -4.279297 l 0.01953,-6.320313 v -0.121093 c -0.13,-2.27 -3.75086,-4.10961 -8.38086,-4.34961 V 43.330078 c 0,-5.11 -4.139765,-9.259765 -9.259765,-9.259766 h -2.589844 v -2.439453 c 0,-0.55 -0.45,-1 -1,-1 -0.55,0 -1,0.45 -1,1 v 2.429688 H 35.470703 v -2.470703 c 0,-0.55 -0.45,-1 -1,-1 z m -4.191406,5.490234 h 3.191406 v 1.539063 c 0,0.55 0.45,1 1,1 0.55,0 1,-0.45 1,-1 v -1.539063 h 18.699219 v 1.580078 c 0,0.55 0.45,1 1,1 0.55,0 1,-0.45 1,-1 v -1.580078 h 2.589844 c 4.01,0 7.259765,3.249766 7.259765,7.259766 v 1.460937 h -43 v -1.460937 c 0,-4.01 3.249766,-7.259766 7.259766,-7.259766 z m -7.228516,10.708984 h 43 v 11.230469 c -4.6,0.24 -8.211328,2.070313 -8.361328,4.320313 l -0.0293,0.0098 V 62.5 71.189453 H 57 c 0.11,-0.55 0.09945,-1.089844 -0.06055,-1.589844 v -0.0098 c -0.01,-0.04 -0.02883,-0.08891 -0.04883,-0.128906 l -2.480469,-4.941407 c -0.03,-0.06 -0.05984,-0.129453 -0.08984,-0.189453 -1.17,-2.19 -5.830156,-2.000547 -10.410156,0.439453 -3.4,1.81 -5.800078,4.339922 -6.330078,6.419922 h -7.269531 c -4.01,0 -7.259766,-3.249766 -7.259766,-7.259765 z m 43.96875,13.201172 c 0.34,0 0.670235,0.0093 0.990235,0.0293 1.6,0.09 3.009609,0.401016 4.099609,0.791016 0.02,0 0.03078,0.0095 0.05078,0.01953 0.13,0.05 0.249141,0.100625 0.369141,0.140625 0.03,0.01 0.07156,0.02906 0.101562,0.03906 0.1,0.04 0.198829,0.09063 0.298829,0.140625 l 0.121093,0.06055 c 0.08,0.04 0.158282,0.07891 0.238281,0.128906 0.04,0.02 0.09086,0.05031 0.13086,0.07031 0.07,0.04 0.129453,0.07914 0.189453,0.119141 0.04,0.03 0.09086,0.05984 0.130859,0.08984 0.05,0.04 0.100625,0.07133 0.140625,0.111328 0.04,0.03 0.07914,0.06961 0.119141,0.09961 0.04,0.03 0.06961,0.06961 0.09961,0.09961 0.04,0.04 0.05984,0.06938 0.08984,0.109374 0.02,0.03 0.05031,0.0618 0.07031,0.0918 0.03,0.04 0.05031,0.07914 0.07031,0.119141 0.01,0.02 0.0293,0.05031 0.0293,0.07031 0.02,0.06 0.04102,0.119688 0.04102,0.179688 0,0.06 -0.01102,0.119688 -0.04102,0.179688 0,0 -0.0193,0.04031 -0.0293,0.07031 -0.02,0.04 -0.04031,0.07914 -0.07031,0.119141 -0.02,0.03 -0.04031,0.06008 -0.07031,0.08008 -0.03,0.04 -0.05961,0.07133 -0.09961,0.111328 -0.03,0.03 -0.06961,0.05961 -0.09961,0.09961 -0.04,0.03 -0.08109,0.06961 -0.121093,0.09961 -0.04,0.03 -0.08867,0.06961 -0.138672,0.09961 -0.04,0.03 -0.09086,0.05984 -0.13086,0.08984 -0.06,0.04 -0.119687,0.08133 -0.179687,0.111328 -0.05,0.03 -0.09063,0.05008 -0.140625,0.08008 -0.07,0.04 -0.148516,0.07914 -0.228516,0.119141 -0.05,0.02 -0.09063,0.05031 -0.140625,0.07031 -0.09,0.04 -0.179297,0.08086 -0.279297,0.13086 -0.04,0.02 -0.09086,0.03883 -0.130859,0.04883 -0.11,0.04 -0.219844,0.09086 -0.339844,0.130859 -0.03,0.01 -0.06937,0.01906 -0.109375,0.03906 -0.13,0.05 -0.270156,0.09062 -0.410156,0.140624 -0.02,0 -0.04078,0.0095 -0.05078,0.01953 -1.02,0.31 -2.250625,0.551093 -3.640625,0.621094 -0.3,0.02 -0.609688,0.0293 -0.929688,0.0293 -0.37,0 -0.729844,-0.02102 -1.089843,-0.04102 -1.810001,-0.11 -3.370469,-0.49875 -4.480469,-0.96875 -0.02,0 -0.02883,-0.0095 -0.04883,-0.01953 -0.11,-0.05 -0.220313,-0.100391 -0.320313,-0.150391 -0.03,-0.02 -0.05961,-0.03078 -0.09961,-0.05078 -0.09,-0.04 -0.17,-0.08891 -0.25,-0.128907 -0.04,-0.02 -0.08109,-0.04031 -0.121094,-0.07031 -0.07,-0.04 -0.129453,-0.08109 -0.189453,-0.121094 -0.04,-0.03 -0.07914,-0.06008 -0.119141,-0.08008 -0.05,-0.04 -0.10039,-0.06938 -0.15039,-0.109375 -0.04,-0.03 -0.08133,-0.06961 -0.111329,-0.09961 -0.04,-0.03 -0.06961,-0.06961 -0.09961,-0.09961 -0.04,-0.04 -0.05984,-0.07133 -0.08984,-0.111328 -0.02,-0.03 -0.05031,-0.06008 -0.07031,-0.08008 -0.03,-0.04 -0.04836,-0.07914 -0.06836,-0.119141 -0.01,-0.02 -0.03125,-0.04031 -0.03125,-0.07031 -0.02,-0.06 -0.0293,-0.119688 -0.0293,-0.179688 0,-0.06 0.0091,-0.119687 0.03906,-0.179687 0,-0.02 0.02125,-0.04031 0.03125,-0.07031 0.02,-0.04 0.03836,-0.08109 0.06836,-0.121093 0.02,-0.03 0.04031,-0.06008 0.07031,-0.08008 0.03,-0.04 0.05984,-0.06938 0.08984,-0.109374 0.03,-0.03 0.07156,-0.05961 0.101562,-0.09961 0.04,-0.03 0.06938,-0.06961 0.109375,-0.09961 0.04,-0.04 0.09039,-0.07133 0.150391,-0.111328 0.04,-0.03 0.07891,-0.05984 0.128906,-0.08984 0.06,-0.04 0.131406,-0.07914 0.191406,-0.119141 0.04,-0.02 0.07914,-0.05031 0.119141,-0.07031 0.08,-0.04 0.16,-0.08891 0.25,-0.128906 0.04,-0.02 0.07937,-0.04055 0.109375,-0.06055 0.1,-0.05 0.200547,-0.09062 0.310547,-0.140625 0.03,-0.01 0.05984,-0.01906 0.08984,-0.03906 0.12,-0.05 0.250859,-0.10039 0.380859,-0.150391 h 0.01953 c 1.31,-0.479999 3.089375,-0.830078 5.109375,-0.830078 z M 50.773438,64.785156 C 51.656504,64.768398 52.27875,64.930469 52.5,65.230469 V 65.25 l 0.07031,0.109375 c 0.3,0.95 -1.780625,3.681562 -5.390624,5.601563 -3.58,1.9 -6.970625,2.11914 -7.640626,1.36914 l -0.0098,-0.0098 -0.119141,-0.230468 c -0.05,-0.22 0.03898,-0.530625 0.208985,-0.890625 0.06,-0.13 0.140468,-0.270156 0.230468,-0.410157 0.03,-0.05 0.05961,-0.108203 0.09961,-0.158203 0.09,-0.13 0.181015,-0.270156 0.291015,-0.410156 0.06,-0.08 0.138985,-0.17 0.208985,-0.25 0.11,-0.13 0.210078,-0.250625 0.330078,-0.390625 0.2,-0.21 0.41039,-0.43039 0.650391,-0.65039 0.09,-0.08 0.191249,-0.16 0.28125,-0.25 0.189999,-0.16 0.379843,-0.330235 0.589843,-0.490235 0.11,-0.09 0.219844,-0.169765 0.339844,-0.259765 0.22,-0.170001 0.459219,-0.330235 0.699219,-0.490235 0.11,-0.07 0.219843,-0.14875 0.339844,-0.21875 0.359999,-0.23 0.74039,-0.459922 1.15039,-0.669922 2.275,-1.2125 4.471582,-1.737695 5.94336,-1.765625 z m 8.896484,0.515625 c 0.2,0.12 0.40914,0.229844 0.61914,0.339844 0.08,0.04 0.171719,0.07914 0.261719,0.119141 0.14,0.06 0.269922,0.119687 0.419922,0.179687 0.12,0.05 0.239141,0.100625 0.369141,0.140625 0.11,0.04 0.219843,0.07914 0.339844,0.119141 0.159999,0.05 0.310468,0.10039 0.480468,0.15039 0.05,0.02 0.109922,0.03078 0.169922,0.05078 0.93,0.26 1.970313,0.449062 3.070313,0.539062 0.54,0.05 1.090156,0.08008 1.660156,0.08008 0.16,0 0.30875,2.35e-4 0.46875,-0.0098 1.05,-0.02 2.050469,-0.130547 2.980469,-0.310547 h 0.0293 c 0.290001,-0.06 0.581329,-0.119453 0.861329,-0.189453 0.04,0 0.07937,-0.0193 0.109375,-0.0293 0.25,-0.06 0.490468,-0.130938 0.730468,-0.210938 0.07,-0.02 0.140704,-0.05008 0.220704,-0.08008 0.2,-0.07 0.388359,-0.129219 0.568359,-0.199219 0.12,-0.05 0.231562,-0.10039 0.351562,-0.15039 0.13,-0.06 0.258907,-0.109922 0.378907,-0.169922 0.23,-0.12 0.460156,-0.239375 0.660156,-0.359375 v 2.599609 l -0.0293,-0.0293 c -0.73,1.67 -3.081172,2.589844 -7.201172,2.589844 -0.37,0 -0.730312,-0.01125 -1.070312,-0.03125 -1.28,-0.06 -2.38836,-0.21875 -3.31836,-0.46875 -0.36,-0.1 -0.701719,-0.209844 -1.011719,-0.339844 h -0.0098 c -0.29,-0.12 -0.558594,-0.26039 -0.808594,-0.40039 -0.02,-0.01 -0.05031,-0.03102 -0.07031,-0.04102 -0.22,-0.14 -0.41961,-0.279453 -0.59961,-0.439453 -0.03,-0.03 -0.07156,-0.05008 -0.101562,-0.08008 -0.2,-0.18 -0.379297,-0.379844 -0.529297,-0.589844 z m -5.869141,2.478516 1.25,2.480469 c 0.03,0.13 0.02977,0.279453 0.0098,0.439453 -0.08,0.68 -0.619766,1.560469 -1.509766,2.480469 l -0.02148,0.0098 c -0.21,0.21 -0.429688,0.430625 -0.679688,0.640625 -0.03,0.03 -0.06961,0.06008 -0.09961,0.08008 -0.22,0.19 -0.439453,0.370547 -0.689453,0.560547 -0.12,0.09 -0.241094,0.169766 -0.371094,0.259766 -0.18,0.13 -0.358594,0.258672 -0.558594,0.388672 -0.34,0.22 -0.700078,0.430625 -1.080078,0.640625 -2.58,1.38 -4.631406,1.971172 -6.191406,1.951172 -0.86,-0.01 -1.449844,-0.191172 -1.839844,-0.451172 l -1.308593,-2.589844 c 0.24,0.02 0.488281,0.01977 0.738281,0.0098 0.09,0 0.181484,-0.0095 0.271484,-0.01953 0.17,0 0.339531,-0.02102 0.519531,-0.04102 0.11,-0.01 0.22961,-0.02906 0.34961,-0.03906 0.16,-0.02 0.320234,-0.04031 0.490234,-0.07031 0.13,-0.02 0.260625,-0.05008 0.390625,-0.08008 0.16,-0.03 0.318516,-0.06937 0.478516,-0.109376 0.14,-0.03 0.279922,-0.06938 0.419922,-0.109374 0.16,-0.04 0.310703,-0.09063 0.470703,-0.140626 0.15,-0.05 0.299218,-0.09063 0.449218,-0.140624 0.16,-0.05 0.310704,-0.109922 0.470704,-0.169922 0.15,-0.06 0.310937,-0.109922 0.460937,-0.169922 0.16,-0.07 0.330234,-0.138985 0.490235,-0.208985 0.149999,-0.06 0.299218,-0.121406 0.449218,-0.191406 0.32,-0.15 0.639219,-0.29875 0.949219,-0.46875 0.88,-0.47 1.680156,-0.98125 2.410156,-1.53125 0.71,-0.53 1.33086,-1.078672 1.88086,-1.638672 0.04,-0.04 0.06938,-0.08109 0.109375,-0.121093 0.21,-0.22 0.409843,-0.449922 0.589843,-0.669922 0.05,-0.06 0.100391,-0.129453 0.150391,-0.189454 0.2,-0.26 0.390781,-0.531015 0.550781,-0.791015 z M 85.5,69.951172 c -0.462793,0.0026 -0.874453,0.336094 -0.970703,0.808594 -1.11,5.65 -2.909922,8.85 -6.669922,12.25 -3.18,2.88 -7.95875,5.111015 -12.21875,5.791015 l 2.519531,-4.191406 c 0.29,-0.47 0.130156,-1.089141 -0.339844,-1.369141 -0.469999,-0.29 -1.091093,-0.130156 -1.371093,0.339844 l -3.580078,5.949219 c -0.29,0.47 -0.128203,1.091094 0.341797,1.371094 l 5.949218,3.580078 c 0.47,0.29 1.089141,0.130156 1.369141,-0.339844 l 0.05078,-0.101563 c 0.2,-0.459999 0.03961,-1.009531 -0.40039,-1.269531 l -3.529297,-2.11914 c 4.45,-0.86 9.249062,-3.180157 12.539062,-6.160157 4.08,-3.69 6.101016,-7.269609 7.291016,-13.349609 0.11,-0.54 -0.251016,-1.059922 -0.791016,-1.169922 h 0.0098 c -0.0675,-0.01375 -0.133106,-0.0199 -0.199219,-0.01953 z m -25.830078,0.818359 c 0.93,0.61 2.090703,1.050078 3.470703,1.330078 0.59,0.12 1.228437,0.209532 1.898437,0.269532 0.05,0 0.100391,0.0017 0.150391,0.01172 0.29,0.02 0.580625,0.04859 0.890625,0.05859 0.37,0.02 0.740859,0.02148 1.13086,0.02148 3.18,0 5.599218,-0.521329 7.199218,-1.611329 v 2.080079 c -0.72,1.75 -3.070469,2.701171 -7.230468,2.701171 l -0.01953,0.0098 c -0.51,0 -0.989453,-0.02102 -1.439453,-0.04102 -0.22,-0.01 -0.420859,-0.04055 -0.630859,-0.06055 -0.22,-0.02 -0.440625,-0.03859 -0.640625,-0.05859 -0.27,-0.04 -0.519531,-0.09063 -0.769531,-0.140625 -0.12,-0.02 -0.23961,-0.04031 -0.34961,-0.07031 -0.28,-0.06 -0.541015,-0.13875 -0.791016,-0.21875 -0.06,-0.02 -0.129453,-0.04055 -0.189453,-0.06055 -0.27,-0.09 -0.52,-0.200312 -0.75,-0.320312 -0.03,-0.01 -0.06008,-0.01906 -0.08008,-0.03906 -0.24,-0.12 -0.469922,-0.260156 -0.669922,-0.410156 0,0 -0.0193,-0.01148 -0.0293,-0.02148 -0.21,-0.15 -0.400546,-0.32 -0.560546,-0.5 -0.17,-0.18 -0.309688,-0.36836 -0.429688,-0.56836 -0.05,-0.08 -0.110156,-0.16 -0.160156,-0.25 z" />
</svg>