<svg xmlns="http://www.w3.org/2000/svg" viewBox="0 0 136 136" width="136" height="136">
  <path part="background" fill="silver"
    d="M 82.410156 13.660156 L 72.029297 13.669922 C 71.899297 13.749922 71.760859 13.820391 71.630859 13.900391 C 71.120859 14.220391 70.480078 14.099922 70.080078 13.669922 L 53.75 13.669922 C 52.28 13.669922 51.080078 15.000625 51.080078 16.640625 L 51.080078 22.060547 C 51.080078 22.060547 51.149453 22.019766 51.189453 22.009766 C 51.859453 21.839766 52.539219 22.249922 52.699219 22.919922 L 54.5 30.160156 C 55.11 28.880156 56.690469 26.080859 57.730469 24.380859 C 58.520469 23.100859 59.369063 21.869453 60.289062 20.689453 C 61.239064 19.489453 62.229766 18.360078 63.259766 17.330078 C 63.749766 16.840078 64.539297 16.840078 65.029297 17.330078 C 65.519297 17.820078 65.519297 18.609609 65.029297 19.099609 C 64.069297 20.059609 63.139766 21.110469 62.259766 22.230469 C 61.399766 23.330469 60.599141 24.479453 59.869141 25.689453 C 58.829141 27.389453 57.169453 30.330625 56.689453 31.390625 L 63.820312 29.619141 C 64.450312 29.459141 65.080781 29.810156 65.300781 30.410156 L 65.339844 30.529297 C 65.509844 31.199297 65.099688 31.879062 64.429688 32.039062 L 54.320312 34.550781 C 53.650312 34.720781 52.970547 34.310625 52.810547 33.640625 L 51.089844 26.740234 L 51.089844 43.619141 L 85.089844 43.619141 L 85.089844 16.640625 C 85.089844 15.000625 83.899922 13.669922 82.419922 13.669922 L 82.410156 13.660156 z M 6.5097656 36.259766 C 5.0397656 36.259766 3.8398437 37.590469 3.8398438 39.230469 L 3.8398438 99.529297 C 3.8398438 101.1693 5.0297656 102.5 6.5097656 102.5 L 12.75 102.5 L 12.75 48.900391 C 12.75 45.980391 15.420937 43.609375 18.710938 43.609375 L 37.839844 43.609375 L 37.839844 39.230469 C 37.839844 37.590469 36.649922 36.259766 35.169922 36.259766 L 6.5097656 36.259766 z M 100.82031 36.269531 C 99.350315 36.269531 98.150391 37.600234 98.150391 39.240234 L 98.150391 44.650391 C 99.620391 45.610391 100.58008 47.160391 100.58008 48.900391 L 100.58008 60.320312 C 99.780076 60.110312 98.150391 61.060547 98.150391 61.060547 C 110.47178 63.206798 119.83984 73.955455 119.83984 86.890625 C 119.83984 92.738457 117.92426 98.138768 114.6875 102.5 L 129.48047 102.5 C 130.95047 102.5 132.15039 101.1693 132.15039 99.529297 L 132.15039 50.480469 C 132.06039 51.990469 131.90062 53.499297 131.64062 55.029297 L 131.64062 55.019531 C 130.48064 61.789531 127.73039 68.019064 123.65039 73.289062 C 123.23039 73.839062 122.44039 73.939766 121.90039 73.509766 C 121.35039 73.089766 121.24969 72.299766 121.67969 71.759766 C 125.50969 66.809766 128.09945 60.959609 129.18945 54.599609 C 130.26945 48.249609 129.71936 41.999531 127.85938 36.269531 L 100.82031 36.269531 z M 130.55078 36.519531 C 131.43078 39.499531 131.97039 42.609062 132.15039 45.789062 L 132.15039 39.240234 C 132.15039 38.020234 131.49078 36.979531 130.55078 36.519531 z " />
  <path part="highlight" fill="cadetblue"
    d="M 118.55678,88.199219 H 102.7207 c -1.662,0 -2.999997,1.338 -2.999997,3 v 3.910156 c 0,1.662 1.337997,3 2.999997,3 h 13.21289 c 1.51468,-3.005992 2.43962,-6.360109 2.62305,-9.910156 z m -0.0625,-3.509766 c -0.31194,-3.57185 -1.37629,-6.92844 -3.0332,-9.910156 H 87.720703 c -1.662,0 -3,1.338 -3,3 v 3.910156 c 0,1.662 1.338,3 3,3 z M 71.777344,74.779297 c -1.656916,2.981716 -2.721261,6.338306 -3.033203,9.910156 h 9.835937 c 1.662,0 3,-1.338 3,-3 v -3.910156 c 0,-1.662 -1.338,-3 -3,-3 z m -3.095703,13.419922 c -0.05213,-1.008691 0,0 0,0 z m 0,0 c 0.183433,3.550048 1.10837,6.904164 2.623047,9.910156 h 22.265624 c 1.662001,0 3,-1.338 3,-3 v -3.910156 c 0,-1.662 -1.337999,-3 -3,-3 z" />
  <path part="outline" fill="black"
    d="m 90.87894,6.9941166 c -2.35875,0.0075 -4.7093,0.2197656 -7.0293,0.6347656 l 0.0195,0.00977 c -0.68,0.12 -1.12976,0.7692188 -1.00976,1.4492188 0.12,0.68 0.77117,1.129765 1.45117,1.009765 4.36,-0.7799986 8.83,-0.7990656 13.25,-0.03906 21.05,3.570001 35.1989,23.499063 31.6289,44.539063 -1.09,6.36 -3.67976,12.210156 -7.50976,17.160156 -0.43,0.54 -0.3293,1.33 0.2207,1.75 0.54,0.43 1.33,0.33125 1.75,-0.21875 4.08,-5.27 6.83025,-11.501484 7.99023,-18.271484 3.80001,-22.4 -11.26968,-43.629688 -33.67968,-47.429687 -2.355,-0.405 -4.72328,-0.60125 -7.08203,-0.59375 z M 74.77347,9.5605228 c -0.16234,0.00344 -0.32687,0.037422 -0.48437,0.1074219 v -0.00977 c -1.43,0.6500003 -2.74875,1.3398443 -3.96875,2.0898443 -0.59,0.36 -0.77016,1.130703 -0.41016,1.720703 0.36,0.59 1.1307,0.770156 1.7207,0.410156 1.12,-0.69 2.34946,-1.341406 3.68946,-1.941406 0.62,-0.28 0.89914,-1.018438 0.61914,-1.648438 -0.21,-0.4649999 -0.67899,-0.7388281 -1.16602,-0.7285156 z M 64.154331,16.941382 c -0.32,0 -0.639766,0.122189 -0.884766,0.367187 h 0.0098 c -1.03,1.030001 -2.01875,2.159374 -2.96875,3.359376 -0.92,1.179998 -1.770547,2.409453 -2.560547,3.689453 -1.035331,1.700221 -2.630634,4.519628 -3.242188,5.800781 l -1.808593,-7.25 c -0.16,-0.67 -0.839766,-1.080156 -1.509766,-0.910156 h 0.0098 c -0.67,0.16 -1.080157,0.839765 -0.910157,1.509765 l 2.521485,10.111328 c 0.16,0.67 0.839765,1.078204 1.509765,0.908203 L 64.42979,32.017554 c 0.67,-0.16 1.080156,-0.839766 0.910156,-1.509766 l -0.03906,-0.11914 c -0.22,-0.6 -0.850469,-0.951016 -1.480469,-0.791016 l -7.125,1.769531 c 0.486725,-1.059783 2.149251,-4.005274 3.185547,-5.699218 0.73,-1.210001 1.528672,-2.358985 2.388672,-3.458985 0.88,-1.12 1.809535,-2.170859 2.769531,-3.130859 0.490003,-0.49 0.49,-1.27953 0,-1.769532 -0.245,-0.245 -0.564765,-0.367187 -0.884765,-0.367187 z M 18.720737,42.357398 c -3.95,0 -7.210937,2.891015 -7.210937,6.541015 v 56.009767 c 0,3.64 3.270937,6.54102 7.210937,6.54102 H 81.32425 c 3.69931,1.85492 7.87518,2.89844 12.29493,2.89844 4.52744,-2e-5 8.79894,-1.0947 12.56444,-3.03516 l 15.79688,15.79492 c 2.15,2.15 5.64883,2.15 7.79883,0 l 0.62109,-0.61914 c 2.15,-2.15 2.15,-5.65078 0,-7.80078 h -0.01 L 115.36113,103.6699 c 3.59119,-4.643042 5.72851,-10.467739 5.72851,-16.791018 0,-12.309941 -8.09997,-22.731125 -19.25976,-26.222656 V 48.898413 c 0,-3.64 -3.27094,-6.541015 -7.21094,-6.541015 z m 0,2.490234 H 94.61918 c 2.62999,0 4.71093,1.851016 4.71093,4.041016 v 4.839843 c -0.15051,-0.06427 -0.31632,-0.09961 -0.49023,-0.09961 H 14.0098 v -4.740234 c 0,-2.2 2.080937,-4.041018 4.710937,-4.041015 z M 99.33011,56.029273 v 3.972656 c -1.8423,-0.389629 -3.7527,-0.59375 -5.71093,-0.59375 -11.40106,0 -21.18182,6.947828 -25.337896,16.839844 h -7.332031 c -0.69,0 -1.25,0.56 -1.25,1.25 0,0.69 0.56,1.25 1.25,1.25 h 6.421875 c -0.685153,2.213744 -1.096098,4.547118 -1.197266,6.960937 h -5.224609 c -0.69,0 -1.25,0.56 -1.25,1.25 0,0.69 0.56,1.25 1.25,1.25 h 5.230469 c 0.122443,2.567782 0.598551,5.043196 1.378906,7.378906 h -6.609375 c -0.69,0 -1.25,0.56 -1.25,1.25 0,0.69 0.56,1.25 1.25,1.25 h 7.583987 c 1.93505,4.323364 4.95426,8.055284 8.71289,10.849614 H 18.720737 c -2.63,0 -4.710937,-1.84906 -4.710937,-4.03906 V 56.128882 h 84.83008 c 0.17391,0 0.33972,-0.03534 0.49023,-0.09961 z m -5.71093,5.878906 c 13.78999,0 24.97069,11.180703 24.97069,24.970703 0,13.790008 -11.1807,24.968748 -24.97069,24.968758 -13.79001,-2e-5 -24.97071,-11.17875 -24.97071,-24.968758 0,-13.79 11.1807,-24.970703 24.97071,-24.970703 z m -71.628912,4.890625 c -0.69,0 -1.25,0.56 -1.25,1.25 0,0.69 0.56,1.25 1.25,1.25 h 9.669922 c 0.69,0 1.25,-0.56 1.25,-1.25 0,-0.69 -0.56,-1.25 -1.25,-1.25 z m 19.470704,0 c -0.69,0 -1.25,0.56 -1.25,1.25 0,0.69 0.56,1.25 1.25,1.25 h 9.669921 c 0.69,0 1.25,-0.56 1.25,-1.25 0,-0.69 -0.56,-1.25 -1.25,-1.25 z m 19.488281,0 c -0.69,0 -1.25,0.56 -1.25,1.25 0,0.69 0.56,1.25 1.25,1.25 h 9.669927 c 0.68999,0 1.25,-0.56 1.25,-1.25 0,-0.69 -0.56001,-1.25 -1.25,-1.25 z m -38.958985,9.449219 c -0.69,0 -1.25,0.56 -1.25,1.25 0,0.69 0.56,1.25 1.25,1.25 h 9.669922 c 0.69,0 1.25,-0.56 1.25,-1.25 0,-0.69 -0.56,-1.25 -1.25,-1.25 z m 19.470704,0 c -0.69,0 -1.25,0.56 -1.25,1.25 0,0.69 0.56,1.25 1.25,1.25 h 9.669921 c 0.69,0 1.25,-0.56 1.25,-1.25 0,-0.69 -0.56,-1.25 -1.25,-1.25 z M 21.990268,85.70896 c -0.69,0 -1.25,0.56 -1.25,1.25 0,0.69 0.56,1.25 1.25,1.25 h 9.669922 c 0.69,0 1.25,-0.56 1.25,-1.25 0,-0.69 -0.56,-1.25 -1.25,-1.25 z m 19.470704,0 c -0.69,0 -1.25,0.56 -1.25,1.25 0,0.69 0.56,1.25 1.25,1.25 h 9.669921 c 0.69,0 1.25,-0.56 1.25,-1.25 0,-0.69 -0.56,-1.25 -1.25,-1.25 z m -19.470704,9.878906 c -0.69,0 -1.25,0.56 -1.25,1.25 0,0.69 0.56,1.25 1.25,1.25 h 9.669922 c 0.69,0 1.25,-0.56 1.25,-1.25 0,-0.69 -0.56,-1.25 -1.25,-1.25 z m 19.470704,0 c -0.69,0 -1.25,0.56 -1.25,1.25 0,0.69 0.56,1.25 1.25,1.25 h 9.669921 c 0.69,0 1.25,-0.56 1.25,-1.25 0,-0.69 -0.56,-1.25 -1.25,-1.25 z m 72.279288,9.990234 14.87891,14.88086 c 1.17,1.17 1.17,3.08977 0,4.25977 l -0.61914,0.61914 -0.14062,0.14062 c -1.18001,1.04 -2.98915,0.98938 -4.11915,-0.14062 l -15.3164,-15.31641 c 1.95578,-1.25374 3.74127,-2.74934 5.3164,-4.44336 z" />
</svg>