<svg width="96" height="96" viewBox="0 0 96 96" version="1.1" xmlns="http://www.w3.org/2000/svg"
    xmlns:xlink="http://www.w3.org/1999/xlink">
    <path part="highlight" fill="cadetblue"
        d="M47,2.5 C55.39239,2.5 63.2481384,4.79729621 69.9727083,8.79735171 C65.4264638,7.30758186 60.5599626,6.5 55.5005184,6.5 C30.3718654,6.5 10,26.4230209 10,51 C10,68.621536 20.473642,83.8514248 35.6646111,91.0597667 C16.2991478,86.0354763 2,68.4378573 2,47.5 C2,22.646875 22.146875,2.5 47,2.5 Z" />
    <path part="outline" fill="black"
        d="M2.03716856,46.5 C2.60998093,46.5 3.07433711,46.9670727 3.07433711,47.5432362 C3.07433711,54.3791064 4.59966208,60.9802098 7.49729702,66.9869065 C8.42776431,68.8910827 9.50737459,70.7607982 10.730086,72.5952843 C11.8831177,74.3237645 13.2024857,76.0042534 14.6924548,77.6616993 C17.6082705,80.8765636 20.9781455,83.6636434 24.6769241,85.9142759 C31.6561212,90.1478099 39.6344863,92.4135276 47.9671409,92.4135276 C57.1808724,92.4135276 65.9758184,89.6374512 73.3760884,84.5320529 C73.8484666,84.2061623 74.4940548,84.3271542 74.81805,84.8022958 C75.1420452,85.2774375 75.021757,85.9268025 74.5493788,86.2526931 C66.8057542,91.5949695 57.6022661,94.5 47.9671409,94.5 C39.2541529,94.5 30.9058663,92.129231 23.6044657,87.7002493 C19.733956,85.3451232 16.2096443,82.4303154 13.1569276,79.0644942 C11.59929,77.3317896 10.2183817,75.5729163 9.00734466,73.7574816 C7.73380109,71.84673 6.60773277,69.8965565 5.63336284,67.9025043 C2.59723714,61.6087533 1,54.6964377 1,47.5432362 C1,46.9670727 1.46435618,46.5 2.03716856,46.5 Z M48.0375911,1.5 C54.8714321,1.5 61.4947867,2.94067298 67.5601641,5.68666005 C73.4348832,8.3463301 78.6376077,12.1291501 82.9803055,16.8660661 C86.1117018,20.3111267 88.7103241,24.1917579 90.6787054,28.3775628 C93.5121905,34.4019513 95,41.0035753 95,47.815716 C95,56.0650031 92.8089191,63.9864261 88.6989612,70.9884991 C88.410676,71.4796462 87.7754948,71.6460346 87.2802443,71.360138 C86.7849938,71.0742414 86.6172153,70.4443231 86.9055005,69.953176 C90.8324151,63.2629511 92.9248179,55.6982795 92.9248179,47.815716 C92.9248179,41.3053464 91.5039015,35.0005367 88.798016,29.2474431 C86.91703,25.247486 84.4329792,21.5379492 81.4418954,18.2472419 C77.290161,13.7186377 72.3162484,10.1021833 66.698369,7.55879268 C60.9023719,4.9347625 54.5727848,3.55798811 48.0375911,3.55798811 C47.4645453,3.55798811 47,3.09729178 47,2.52899405 C47,1.96069633 47.4645453,1.5 48.0375911,1.5 Z M67.5666662,28.6937506 C68.031282,29.027868 68.1392421,29.6784115 67.8078019,30.1467802 L41.6839873,67.0631621 C41.3570063,67.5252293 40.7232614,67.6383779 40.2587465,67.3176242 L22.4494973,55.020101 C21.9786476,54.694973 21.8584049,54.0466224 22.1809278,53.5719695 C22.5034507,53.0973165 23.1466064,52.9761026 23.6174562,53.3012306 L40.5895481,65.0198564 L66.1252791,28.936834 C66.4567194,28.4684653 67.1020503,28.3596332 67.5666662,28.6937506 Z M12.6841579,18.7893836 C13.0959403,19.1841209 13.1064446,19.8345133 12.70762,20.2420756 C10.8380996,22.1525542 7.53257367,27.5929726 6.03310745,31.5399106 C4.50024011,35.5747681 3.84156283,38.5868109 3.06421548,43.6275282 C2.97771888,44.1884163 2.44820176,44.5737052 1.88150588,44.4880951 C1.31481,44.402485 0.925531573,43.8783946 1.01202817,43.3175064 C1.80972244,38.1448493 2.49297056,35.0204474 4.08997845,30.8167573 C5.68455997,26.619454 9.13643938,20.9381589 11.2164239,18.8126052 C11.6152486,18.4050429 12.2723755,18.3946463 12.6841579,18.7893836 Z M24.8493924,8.0181893 C25.1482106,8.52468486 24.988554,9.18276401 24.4927894,9.48805023 C20.8940016,11.7041428 18.1190439,13.8021753 15.7898561,16.1857402 C15.3808832,16.6042609 14.7172553,16.6048248 14.3076017,16.1869996 C13.897948,15.7691745 13.8973961,15.0911822 14.3063689,14.6726615 C16.7720745,12.1493917 19.6775352,9.95269122 23.4106728,7.65386756 C23.9064374,7.34858134 24.5505741,7.51169374 24.8493924,8.0181893 Z M43.7118394,2.62971701 C43.7921481,3.19489618 43.399083,3.71816755 42.8339038,3.79847632 C39.0992325,4.32915203 32.5821108,6.01663436 29.3744175,7.31599661 C28.8453219,7.53032094 28.242661,7.27514847 28.0283367,6.74605294 C27.8140124,6.21695741 28.0691848,5.61429654 28.5982804,5.3999722 C31.9684883,4.03477909 38.6479884,2.30525199 42.54308,1.75178147 C43.1082592,1.6714727 43.6315306,2.06453783 43.7118394,2.62971701 Z" />
</svg>