<svg width="96" height="96" viewBox="0 0 96 96" version="1.1" xmlns="http://www.w3.org/2000/svg"
  xmlns:xlink="http://www.w3.org/1999/xlink">
  <path part="outline" fill="black"
    d="M 6.17,32.37 C 6.05,32.37 5.92,32.35 5.8,32.3 5.29,32.1 5.04,31.51 5.24,31 c 0.93,-2.32 2.05,-4.59 3.35,-6.73 0.28,-0.47 0.9,-0.63 1.37,-0.34 0.47,0.29 0.62,0.9 0.34,1.37 -1.24,2.05 -2.31,4.22 -3.2,6.44 -0.16,0.39 -0.53,0.63 -0.93,0.63 z M 88.3,28.95 c -0.37,0 -0.72,-0.2 -0.9,-0.55 -1,-2 -2.15,-3.93 -3.45,-5.76 -0.32,-0.45 -0.21,-1.07 0.24,-1.39 0.45,-0.32 1.08,-0.21 1.39,0.24 1.35,1.91 2.56,3.94 3.6,6.02 0.25,0.49 0.05,1.09 -0.45,1.34 -0.14,0.07 -0.3,0.1 -0.45,0.1 z M 80.7,18.08 c -0.26,0 -0.53,-0.1 -0.73,-0.31 C 76.47,14.07 72.4,11.03 67.87,8.73 67.38,8.48 67.18,7.88 67.43,7.39 67.68,6.9 68.28,6.7 68.77,6.95 c 4.73,2.4 8.99,5.58 12.65,9.45 0.38,0.4 0.36,1.03 -0.04,1.41 -0.19,0.18 -0.44,0.27 -0.69,0.27 z M 48,87 C 26.5,87 9,69.5 9,48 9,26.5 26.5,9 48,9 c 2.78,0 5.56,0.29 8.26,0.88 7.3,1.58 13.98,5.21 19.29,10.52 C 82.93,27.77 87,37.57 87,48 87,69.5 69.5,87 48,87 Z M 48,11 C 27.6,11 11,27.6 11,48 11,68.4 27.6,85 48,85 68.4,85 85,68.4 85,48 85,38.11 81.14,28.81 74.14,21.82 69.1,16.78 62.77,13.33 55.84,11.84 53.28,11.29 50.64,11.01 48,11.01 Z m -5.5,52 c -0.24,0 -0.48,-0.09 -0.66,-0.25 l -12.5,-11 c -0.41,-0.37 -0.46,-1 -0.09,-1.41 0.36,-0.42 1,-0.46 1.41,-0.09 L 42.39,60.58 66.23,32.36 c 0.35,-0.42 0.99,-0.48 1.41,-0.12 0.42,0.36 0.47,0.99 0.12,1.41 l -24.5,29 c -0.17,0.21 -0.42,0.33 -0.69,0.35 -0.02,0 -0.05,0 -0.07,0 z" />
  <path part="success" fill="green"
    d="M 43,79 C 33.41,79 24.66,75.44 17.97,69.58 24.69,78.91 35.64,85 48,85 68.4,85 85,68.4 85,48 85,40.19 82.59,32.76 78.13,26.53 79.97,30.99 81,35.87 81,41 81,61.99 63.99,79 43,79 Z" />
  <path part="background" fill="silver"
    d="M 48,87 C 26.5,87 9,69.5 9,48 9,44.86 9.38,41.82 10.08,38.89 7.48,44.03 6,49.84 6,56 6,76.99 23.01,94 44,94 58.97,94 71.92,85.34 78.11,72.76 70.95,81.45 60.11,87 48,87 Z" />
</svg>