<?xml version="1.0" encoding="UTF-8" standalone="no"?>
<svg width="136" height="136" viewBox="0 0 136 136">
   <path part="background" fill="silver"
      d="M 40.689453 59 C 37.529453 59.17 35.019531 61.780469 35.019531 64.980469 L 35.019531 112.98047 C 35.019531 116.29047 37.709531 118.98047 41.019531 118.98047 L 56.019531 118.98047 C 59.329531 118.98047 62.019531 116.29047 62.019531 112.98047 L 62.019531 103.5 C 61.709531 103.1 61.400859 102.6993 61.130859 102.2793 L 61.109375 102.30078 C 60.309375 101.09078 59.620312 99.810703 59.070312 98.470703 C 58.500312 97.110703 58.069297 95.700234 57.779297 94.240234 L 43.779297 94.240234 C 39.899297 94.240234 36.759766 91.079687 36.759766 87.179688 C 36.759766 85.719688 37.240469 84.310156 38.230469 82.410156 C 38.410469 82.070156 38.559141 81.780703 38.869141 81.220703 C 40.019141 79.110703 40.419375 78.230703 40.609375 77.220703 C 40.679375 76.830703 40.730234 76.269844 40.740234 75.589844 C 40.760234 74.929844 40.740703 74.219531 40.720703 73.519531 C 40.710703 73.239531 40.699453 73.029844 40.689453 72.839844 L 40.689453 59 z M 10 77 C 6.676 77 4 79.676 4 83 L 4 113 C 4 116.324 6.676 119 10 119 L 25 119 C 28.324 119 31 116.324 31 113 L 31 83 C 31 79.676 28.324 77 25 77 L 10 77 z M 66 107.56055 L 66 113 C 66 116.31 68.69 119 72 119 L 87 119 C 90.31 119 93 116.31 93 113 L 93 107.56055 C 92.64 107.84055 92.280156 108.13063 91.910156 108.39062 C 90.730156 109.20063 89.460625 109.9007 88.140625 110.4707 C 86.800625 111.0507 85.410703 111.48906 83.970703 111.78906 C 82.510703 112.08906 81.01 112.25 79.5 112.25 C 77.99 112.25 76.489297 112.09906 75.029297 111.78906 C 73.589297 111.48906 72.199375 111.0507 70.859375 110.4707 C 69.539375 109.9007 68.269844 109.20062 67.089844 108.39062 C 66.709844 108.13062 66.36 107.84055 66 107.56055 z " />
   <path part="outline" fill="black"
      d="M 79.019531 8.75 C 77.819531 8.75 76.630469 8.869375 75.480469 9.109375 C 74.350469 9.339375 73.239688 9.6808594 72.179688 10.130859 C 71.129688 10.570859 70.129453 11.11 69.189453 11.75 C 68.259453 12.38 67.389844 13.090625 66.589844 13.890625 C 65.789844 14.690625 65.069453 15.560469 64.439453 16.480469 C 63.799453 17.420469 63.260312 18.420938 62.820312 19.460938 C 62.480312 20.270937 62.190469 21.110937 61.980469 21.960938 C 49.350469 28.410937 40.689453 41.600312 40.689453 56.820312 L 40.689453 72.859375 C 40.689453 73.049375 40.710703 73.259062 40.720703 73.539062 C 40.750703 74.239063 40.760234 74.949375 40.740234 75.609375 C 40.720234 76.279375 40.679375 76.850234 40.609375 77.240234 C 40.429375 78.240234 40.019141 79.120234 38.869141 81.240234 C 38.559141 81.810234 38.410469 82.099688 38.230469 82.429688 C 37.240469 84.329688 36.759766 85.739219 36.759766 87.199219 C 36.759766 91.099219 39.899297 94.259766 43.779297 94.259766 L 57.779297 94.259766 C 58.069297 95.709766 58.500313 97.130234 59.070312 98.490234 C 59.630313 99.830234 60.309375 101.11031 61.109375 102.32031 C 61.899375 103.52031 62.810313 104.63016 63.820312 105.66016 C 64.820312 106.68016 65.919609 107.60016 67.099609 108.41016 C 68.279609 109.22016 69.539141 109.92023 70.869141 110.49023 C 72.209141 111.07023 73.599062 111.51055 75.039062 111.81055 C 76.499062 112.11055 77.999766 112.26953 79.509766 112.26953 C 81.019766 112.26953 82.520469 112.12055 83.980469 111.81055 C 85.420469 111.51055 86.810391 111.07023 88.150391 110.49023 C 89.470391 109.92023 90.729922 109.22016 91.919922 108.41016 C 93.099922 107.60016 94.199219 106.68016 95.199219 105.66016 C 96.199219 104.64016 97.110156 103.52031 97.910156 102.32031 C 98.710156 101.11031 99.399219 99.830234 99.949219 98.490234 C 100.43922 97.320234 100.81938 96.120859 101.10938 94.880859 L 101.24023 94.259766 L 115.24023 94.259766 C 119.12023 94.259766 122.25977 91.099219 122.25977 87.199219 C 122.25977 85.739219 121.77906 84.329687 120.78906 82.429688 C 120.60906 82.089687 120.46039 81.800234 120.15039 81.240234 L 120.14062 81.230469 C 118.99062 79.120469 118.59039 78.240469 118.40039 77.230469 C 118.33039 76.840469 118.27953 76.279609 118.26953 75.599609 C 118.24953 74.939609 118.26906 74.219297 118.28906 73.529297 C 118.28906 73.419297 118.29078 73.320469 118.30078 73.230469 L 118.30078 73.009766 C 118.30078 73.009766 118.31031 72.949687 118.32031 72.929688 L 118.32031 59.199219 C 117.51031 59.549219 116.68031 59.839844 115.82031 60.089844 L 115.82031 72.849609 C 115.82031 72.899609 115.79906 73.129922 115.78906 73.419922 C 115.75906 74.169922 115.74953 74.930156 115.76953 75.660156 C 115.78953 76.450156 115.83945 77.129688 115.93945 77.679688 C 116.18945 79.049688 116.64945 80.059922 117.93945 82.419922 C 118.16945 82.849922 118.31922 83.109375 118.44922 83.359375 L 118.56055 83.570312 C 119.38055 85.140312 119.75 86.229453 119.75 87.189453 C 119.75 89.709453 117.72047 91.75 115.23047 91.75 L 43.769531 91.75 C 41.269531 91.75 39.25 89.709453 39.25 87.189453 C 39.25 86.229453 39.619453 85.140313 40.439453 83.570312 L 40.550781 83.359375 C 40.680781 83.109375 40.820547 82.849922 41.060547 82.419922 C 42.350547 80.059922 42.810547 79.039687 43.060547 77.679688 C 43.160547 77.139687 43.210469 76.460156 43.230469 75.660156 C 43.250469 74.940156 43.230937 74.169687 43.210938 73.429688 C 43.200938 73.129688 43.189688 72.899531 43.179688 72.769531 L 43.179688 56.810547 C 43.179688 36.620547 59.449766 20.25 79.509766 20.25 C 84.369766 20.25 89.010234 21.220937 93.240234 22.960938 C 94.000234 22.160937 94.819453 21.42 95.689453 20.75 C 95.539453 20.31 95.390937 19.880937 95.210938 19.460938 C 94.770938 18.420938 94.229844 17.420469 93.589844 16.480469 C 92.959844 15.550469 92.239219 14.680625 91.449219 13.890625 C 90.649219 13.100625 89.779609 12.38 88.849609 11.75 C 87.909609 11.12 86.909375 10.570859 85.859375 10.130859 C 84.799375 9.6808594 83.700547 9.339375 82.560547 9.109375 C 81.410547 8.869375 80.219531 8.75 79.019531 8.75 z M 78.990234 11.240234 C 80.020234 11.240234 81.039297 11.340781 82.029297 11.550781 C 83.009297 11.750781 83.949375 12.039688 84.859375 12.429688 C 85.759375 12.809688 86.619922 13.270312 87.419922 13.820312 C 88.219922 14.360313 88.970391 14.980156 89.650391 15.660156 C 90.330391 16.340156 90.950234 17.090625 91.490234 17.890625 C 91.960234 18.590625 92.360938 19.319844 92.710938 20.089844 C 88.580938 18.589844 84.130469 17.759766 79.480469 17.759766 C 74.380469 17.759766 69.499062 18.750781 65.039062 20.550781 L 65.089844 20.439453 L 65.099609 20.429688 C 65.479609 19.539687 65.950234 18.680859 66.490234 17.880859 C 67.030234 17.090859 67.650078 16.340391 68.330078 15.650391 C 69.010078 14.970391 69.760547 14.350313 70.560547 13.820312 C 71.370547 13.270312 72.219141 12.809688 73.119141 12.429688 C 74.029141 12.049687 74.979219 11.750781 75.949219 11.550781 C 76.939219 11.350781 77.960234 11.240234 78.990234 11.240234 z M 130.72852 14.751953 C 130.32812 14.744531 129.92969 14.929297 129.67969 15.279297 L 111.56055 41 L 102.58008 31.070312 C 102.11008 30.560312 101.32055 30.520469 100.81055 30.980469 C 100.30055 31.450469 100.2607 32.24 100.7207 32.75 L 110.75 43.839844 C 111.29 44.429844 112.23922 44.380703 112.69922 43.720703 L 131.7207 16.720703 C 132.1207 16.160703 131.97992 15.380469 131.41992 14.980469 C 131.20992 14.830469 130.96875 14.756406 130.72852 14.751953 z M 60.339844 94.240234 L 98.660156 94.240234 C 98.410156 95.360234 98.059141 96.449766 97.619141 97.509766 L 97.630859 97.519531 C 97.140859 98.709531 96.530547 99.849922 95.810547 100.91992 C 95.100547 101.98992 94.290391 102.98062 93.400391 103.89062 C 92.510391 104.80062 91.530234 105.62008 90.490234 106.33008 C 89.440234 107.05008 88.320391 107.66969 87.150391 108.17969 C 85.970391 108.68969 84.730938 109.07984 83.460938 109.33984 C 82.170937 109.60984 80.84 109.75 79.5 109.75 C 78.16 109.75 76.829063 109.60984 75.539062 109.33984 C 74.269063 109.06984 73.039609 108.67969 71.849609 108.17969 C 70.679609 107.66969 69.559766 107.05008 68.509766 106.33008 C 67.459766 105.61008 66.489609 104.79086 65.599609 103.88086 C 64.709609 102.97086 63.899453 101.98016 63.189453 100.91016 C 62.479453 99.840156 61.869141 98.699766 61.369141 97.509766 C 60.939141 96.469766 60.589844 95.400781 60.339844 94.300781 L 60.339844 94.240234 z M 112.00586 107.74414 C 111.5193 107.73992 111.05211 108.0275 110.84961 108.5 C 110.26961 109.83 109.62016 111.12914 108.91016 112.36914 C 108.56016 112.96914 108.76914 113.74008 109.36914 114.08008 C 109.96914 114.43008 110.74008 114.21914 111.08008 113.61914 C 111.84008 112.28914 112.53063 110.91023 113.14062 109.49023 C 113.42063 108.86023 113.12023 108.11961 112.49023 107.84961 C 112.33273 107.77961 112.16805 107.74555 112.00586 107.74414 z M 103.92969 117.74805 C 103.64962 117.76394 103.37352 117.87445 103.15039 118.08008 L 103.15039 118.08984 C 102.11039 119.04984 101.00938 119.95906 99.859375 120.78906 C 98.709375 121.61906 97.520781 122.37078 96.300781 123.05078 C 95.080781 123.73078 93.819297 124.32961 92.529297 124.84961 C 91.889297 125.10961 91.579844 125.84047 91.839844 126.48047 C 92.099844 127.12047 92.830703 127.42992 93.470703 127.16992 C 94.860703 126.60992 96.209531 125.97023 97.519531 125.24023 C 98.829531 124.51023 100.10008 123.70055 101.33008 122.81055 C 102.56008 121.91055 103.73961 120.94992 104.84961 119.91992 C 105.35961 119.44992 105.38992 118.66039 104.91992 118.15039 C 104.65555 117.86352 104.28978 117.72761 103.92969 117.74805 z " />
   <path part="highlight" fill="cadetblue"
      d="M126.64,23.93l-13.94,19.79c-.46.66-1.41.71-1.95.12l-10.03-11.09c-.46-.51-.42-1.3.09-1.77.51-.46,1.3-.42,1.77.09l8.98,9.93,13.32-18.91c-4.02-3.77-9.43-6.09-15.38-6.09-12.43,0-22.5,10.07-22.5,22.5s10.07,22.5,22.5,22.5,22.5-10.07,22.5-22.5c0-5.56-2.02-10.64-5.36-14.57Z" />
</svg>