<svg width="96" height="96" viewBox="0 0 96 96" version="1.1" xmlns="http://www.w3.org/2000/svg"
   xmlns:xlink="http://www.w3.org/1999/xlink">
   <path part="outline" fill="black"
      d="M 46.123047 16.453125 C 45.915547 16.456875 45.709297 16.520625 45.529297 16.640625 C 43.109297 18.280625 40.810625 19.470938 38.640625 20.210938 L 38.230469 20.349609 C 36.160469 21.019609 33.570703 21.600078 30.470703 22.080078 C 29.750703 22.190078 29.199219 22.810781 29.199219 23.550781 C 29.159219 27.920781 30.290078 32.669063 32.580078 37.789062 C 34.910078 42.979063 39.059064 47.909844 45.039062 52.589844 C 45.699062 53.109844 46.639063 53.100314 47.289062 52.570312 L 48.060547 51.929688 L 48.289062 51.740234 C 54.189063 46.790234 58.030781 42.139766 59.800781 37.759766 C 61.630781 33.249766 62.669688 28.550156 62.929688 23.660156 L 62.929688 23.519531 C 62.909686 22.829531 62.42 22.249375 61.75 22.109375 L 61.619141 22.089844 C 58.859141 21.749844 56.299686 21.130469 53.929688 20.230469 C 51.439687 19.290469 49.049766 18.090859 46.759766 16.630859 L 46.730469 16.619141 C 46.540469 16.504141 46.330547 16.449375 46.123047 16.453125 z M 46.210938 18.619141 L 46.439453 18.769531 C 48.609453 20.089531 50.880234 21.209609 53.240234 22.099609 L 53.869141 22.330078 C 55.989141 23.090078 58.260156 23.640469 60.660156 23.980469 L 60.919922 24.009766 L 60.900391 24.289062 C 60.590391 28.689063 59.610936 32.929766 57.960938 37.009766 L 57.820312 37.359375 C 56.070312 41.409375 52.309062 45.829375 46.539062 50.609375 L 46.162109 50.917969 C 40.50153 46.449015 36.59335 41.804047 34.429688 36.980469 L 34.169922 36.400391 C 32.249922 31.940391 31.270469 27.840312 31.230469 24.070312 L 31.230469 24 L 31.439453 23.970703 C 34.579453 23.460703 37.200547 22.839141 39.310547 22.119141 C 41.510547 21.369141 43.789922 20.210391 46.169922 18.650391 L 46.189453 18.630859 L 46.210938 18.619141 z M 55.048828 26.474609 C 54.792578 26.470859 54.534844 26.564766 54.339844 26.759766 L 43.339844 37.509766 L 42.720703 38.119141 L 38.220703 33.660156 C 37.830703 33.260156 37.200547 33.270156 36.810547 33.660156 C 36.410547 34.050156 36.420547 34.680312 36.810547 35.070312 L 41.869141 40.080078 C 42.329141 40.540078 43.080781 40.540078 43.550781 40.080078 L 44.740234 38.919922 L 55.740234 28.169922 C 56.140234 27.789922 56.149766 27.149766 55.759766 26.759766 L 55.75 26.779297 C 55.56 26.579297 55.305078 26.478359 55.048828 26.474609 z M 62.189453 36.349609 C 61.639453 36.349609 61.189453 36.799609 61.189453 37.349609 C 61.189453 37.899609 61.639453 38.349609 62.189453 38.349609 L 63.339844 38.349609 L 63.859375 38.349609 L 64.109375 38.349609 L 64.580078 38.349609 L 64.810547 38.349609 L 65.25 38.349609 L 65.460938 38.349609 L 66.070312 38.349609 L 66.269531 38.349609 L 66.839844 38.349609 L 67.029297 38.349609 L 67.410156 38.349609 L 67.599609 38.349609 L 68.179688 38.349609 L 68.380859 38.349609 L 68.789062 38.349609 L 69 38.349609 L 69.669922 38.349609 L 69.900391 38.349609 L 70.390625 38.349609 L 71.189453 38.349609 L 71.769531 38.349609 L 76.789062 38.349609 L 77.070312 38.349609 C 81.260312 38.449609 83.539063 40.859531 83.539062 45.019531 L 83.539062 78.080078 L 61.460938 78.080078 C 61.260936 78.120078 61.09 78.239922 61 78.419922 L 59.759766 80.830078 C 59.729766 80.900078 59.660078 80.939453 59.580078 80.939453 L 48.220703 80.939453 C 48.150703 80.939453 48.079063 80.900078 48.039062 80.830078 L 46.75 78.359375 C 46.66 78.179375 46.469531 78.070312 46.269531 78.070312 L 24.550781 78.070312 L 24.570312 45.009766 C 24.550313 41.229766 26.579844 38.779375 30.339844 38.359375 C 30.889844 38.299375 31.280703 37.8 31.220703 37.25 C 31.160703 36.7 30.659375 36.309141 30.109375 36.369141 C 25.299375 36.909141 22.540547 40.249766 22.560547 45.009766 L 22.539062 78.150391 C 20.209062 78.570391 18.439453 80.610547 18.439453 83.060547 C 18.439453 85.820547 20.679453 88.060547 23.439453 88.060547 L 84.839844 88.060547 C 87.599844 88.060547 89.839844 85.820547 89.839844 83.060547 C 89.839844 80.540547 87.969064 78.470859 85.539062 78.130859 L 85.539062 45.019531 C 85.539062 39.669531 82.269064 36.349609 76.789062 36.349609 L 71.769531 36.349609 L 71.189453 36.349609 L 70.390625 36.349609 L 69.900391 36.349609 L 69.669922 36.349609 L 69 36.349609 L 68.789062 36.349609 L 68.380859 36.349609 L 68.179688 36.349609 L 67.599609 36.349609 L 67.410156 36.349609 L 67.029297 36.349609 L 66.839844 36.349609 L 66.269531 36.349609 L 66.070312 36.349609 L 65.460938 36.349609 L 65.25 36.349609 L 64.810547 36.349609 L 64.580078 36.349609 L 64.109375 36.349609 L 63.859375 36.349609 L 63.339844 36.349609 L 62.189453 36.349609 z M 69.539062 42.359375 C 66.229062 42.359375 63.539062 45.049375 63.539062 48.359375 L 63.539062 54.529297 C 60.819063 56.429297 59.039062 59.570625 59.039062 63.140625 C 59.039062 68.940625 63.739062 73.640625 69.539062 73.640625 C 75.339062 73.640625 80.039062 68.940625 80.039062 63.140625 C 80.039062 59.570625 78.259062 56.429297 75.539062 54.529297 L 75.539062 48.359375 C 75.539062 45.049375 72.849063 42.359375 69.539062 42.359375 z M 69.539062 44.359375 L 69.740234 44.359375 C 71.860234 44.469375 73.539064 46.219375 73.539062 48.359375 L 73.539062 53.429688 C 73.149062 53.269688 72.749844 53.139297 72.339844 53.029297 L 72.339844 48.359375 C 72.339844 46.809375 71.089063 45.560547 69.539062 45.560547 C 67.989064 45.560547 66.740234 46.809375 66.740234 48.359375 L 66.740234 53.029297 C 66.330234 53.139297 65.929063 53.269688 65.539062 53.429688 L 65.539062 48.359375 C 65.539062 46.149375 67.329064 44.359375 69.539062 44.359375 z M 69.539062 47.560547 L 69.640625 47.560547 C 70.030625 47.620547 70.339844 47.949375 70.339844 48.359375 L 70.339844 52.679688 C 70.069844 52.659686 69.809062 52.640625 69.539062 52.640625 C 69.269064 52.640625 69.010234 52.659688 68.740234 52.679688 L 68.740234 48.359375 C 68.740234 47.919375 69.099064 47.560547 69.539062 47.560547 z M 69.539062 54.630859 C 70.519064 54.630859 71.459844 54.809375 72.339844 55.109375 C 72.549844 55.179375 72.749219 55.259609 72.949219 55.349609 C 73.919219 55.779609 74.789297 56.369375 75.529297 57.109375 C 76.289297 57.869375 76.909844 58.779297 77.339844 59.779297 L 77.339844 59.78125 L 77.339844 59.783203 L 77.341797 59.785156 L 77.341797 59.787109 C 77.345078 59.794609 77.351875 59.803047 77.359375 59.810547 C 77.459375 60.050547 77.550859 60.289062 77.630859 60.539062 C 77.630859 60.559064 77.640391 60.579609 77.650391 60.599609 C 77.720391 60.839609 77.779844 61.080078 77.839844 61.330078 C 77.839844 61.360078 77.859375 61.389922 77.859375 61.419922 C 77.899375 61.639922 77.930937 61.859844 77.960938 62.089844 C 77.960938 62.149844 77.980234 62.209531 77.990234 62.269531 C 78.020234 62.559531 78.029297 62.850625 78.029297 63.140625 C 78.029297 67.827642 74.224959 71.635783 69.539062 71.640625 L 69.529297 71.640625 C 64.844305 71.634715 61.039063 67.826984 61.039062 63.140625 C 61.039062 62.850625 61.060078 62.559531 61.080078 62.269531 C 61.080078 62.219531 61.099609 62.180859 61.099609 62.130859 C 61.129609 61.890859 61.160938 61.649922 61.210938 61.419922 C 61.220937 61.369922 61.24 61.319531 61.25 61.269531 C 61.3 61.049531 61.349922 60.819609 61.419922 60.599609 C 61.419922 60.579609 61.429453 60.570781 61.439453 60.550781 C 62.179453 58.220781 63.899141 56.329609 66.119141 55.349609 C 66.319141 55.259609 66.530234 55.179375 66.740234 55.109375 C 67.620234 54.799375 68.559063 54.630859 69.539062 54.630859 z M 28.580078 56.640625 C 28.030078 56.640625 27.580078 57.090625 27.580078 57.640625 C 27.580078 58.190625 28.030078 58.640625 28.580078 58.640625 L 40.390625 58.640625 C 40.940625 58.640625 41.390625 58.190625 41.390625 57.640625 C 41.390625 57.090625 40.940625 56.640625 40.390625 56.640625 L 28.580078 56.640625 z M 69.539062 60.160156 L 69.539062 60.169922 C 67.739063 60.169922 66.289062 61.619922 66.289062 63.419922 L 66.289062 63.630859 C 66.329064 64.260859 66.550156 64.830547 66.910156 65.310547 L 67 65.419922 L 66.390625 67.800781 C 66.410625 68.347448 66.652474 68.755964 67.119141 69.029297 C 67.199141 69.049297 67.282474 69.060547 67.369141 69.060547 L 71.669922 69.060547 C 72.196589 68.907214 72.533021 68.570781 72.679688 68.050781 L 72.679688 67.980469 C 72.679688 67.920469 72.680156 67.900312 72.660156 67.820312 L 72.109375 65.400391 C 72.549375 64.840391 72.789062 64.140156 72.789062 63.410156 C 72.789062 61.620156 71.339062 60.160156 69.539062 60.160156 z M 28.580078 61.640625 C 28.030078 61.640625 27.580078 62.090625 27.580078 62.640625 C 27.580078 63.190625 28.030078 63.640625 28.580078 63.640625 L 51.099609 63.640625 C 51.649609 63.640625 52.099609 63.190625 52.099609 62.640625 C 52.099609 62.090625 51.649609 61.640625 51.099609 61.640625 L 28.580078 61.640625 z M 69.550781 62.150391 C 70.240781 62.150391 70.800781 62.710391 70.800781 63.400391 C 70.800781 63.770391 70.639141 64.109609 70.369141 64.349609 L 69.919922 64.740234 L 70.050781 65.320312 L 70.439453 67.039062 L 68.660156 67.039062 L 69.089844 65.349609 L 69.25 64.730469 L 68.75 64.330078 C 68.45 64.090078 68.289062 63.780156 68.289062 63.410156 C 68.289062 62.720156 68.849063 62.160156 69.539062 62.160156 L 69.550781 62.150391 z M 28.580078 66.640625 C 28.030078 66.640625 27.580078 67.090625 27.580078 67.640625 C 27.580078 68.190625 28.030078 68.640625 28.580078 68.640625 L 35.990234 68.640625 C 36.540234 68.640625 36.990234 68.190625 36.990234 67.640625 C 36.990234 67.090625 36.540234 66.640625 35.990234 66.640625 L 28.580078 66.640625 z M 39.029297 66.640625 C 38.479297 66.640625 38.029297 67.090625 38.029297 67.640625 C 38.029297 68.190625 38.479297 68.640625 39.029297 68.640625 L 43.199219 68.640625 C 43.749219 68.640625 44.199219 68.190625 44.199219 67.640625 C 44.199219 67.090625 43.749219 66.640625 43.199219 66.640625 L 39.029297 66.640625 z M 28.580078 71.640625 C 28.030078 71.640625 27.580078 72.090625 27.580078 72.640625 C 27.580078 73.190625 28.030078 73.640625 28.580078 73.640625 L 54.019531 73.640625 C 54.569531 73.640625 55.019531 73.190625 55.019531 72.640625 C 55.019531 72.090625 54.569531 71.640625 54.019531 71.640625 L 28.580078 71.640625 z M 23.449219 80.080078 L 45.390625 80.080078 L 46.269531 81.769531 C 46.339531 81.909531 46.439064 82.030391 46.539062 82.150391 C 46.609063 82.230391 46.689531 82.310859 46.769531 82.380859 C 47.169531 82.730859 47.670703 82.949219 48.220703 82.949219 L 59.580078 82.949219 C 60.130078 82.949219 60.629297 82.730859 61.029297 82.380859 L 61.269531 82.140625 C 61.369531 82.020625 61.469063 81.899766 61.539062 81.759766 L 62.400391 80.089844 L 84.849609 80.089844 C 85.579609 80.089844 86.23 80.359064 86.75 80.789062 C 86.79 80.829064 86.840859 80.860391 86.880859 80.900391 C 86.960859 80.970391 87.019844 81.049141 87.089844 81.119141 C 87.139844 81.179141 87.200234 81.240547 87.240234 81.310547 C 87.290234 81.380547 87.340625 81.459297 87.390625 81.529297 C 87.440625 81.609297 87.489297 81.699064 87.529297 81.789062 C 87.559297 81.859062 87.600859 81.929766 87.630859 82.009766 C 87.670859 82.119766 87.700469 82.229609 87.730469 82.349609 C 87.750469 82.409609 87.769297 82.469064 87.779297 82.539062 C 87.819297 82.719064 87.839844 82.909609 87.839844 83.099609 C 87.839844 84.759609 86.499844 86.099609 84.839844 86.099609 L 84.839844 86.080078 L 23.439453 86.080078 C 21.779453 86.080078 20.439453 84.740078 20.439453 83.080078 L 20.439453 82.900391 C 20.459453 82.720391 20.489297 82.550859 20.529297 82.380859 C 20.539297 82.320859 20.570078 82.259219 20.580078 82.199219 C 20.610078 82.099219 20.649453 81.990391 20.689453 81.900391 C 20.719453 81.830391 20.749062 81.759453 20.789062 81.689453 C 20.829062 81.619453 20.869922 81.550469 20.919922 81.480469 C 20.969922 81.400469 21.020078 81.32 21.080078 81.25 C 21.100078 81.22 21.130156 81.190156 21.160156 81.160156 C 21.710156 80.500156 22.529219 80.080078 23.449219 80.080078 z M 75.570312 82.050781 C 75.020313 82.050781 74.570312 82.500781 74.570312 83.050781 C 74.570312 83.600781 75.020313 84.050781 75.570312 84.050781 L 80.570312 84.050781 C 81.120312 84.050781 81.570312 83.600781 81.570312 83.050781 C 81.570312 82.500781 81.120312 82.050781 80.570312 82.050781 L 75.570312 82.050781 z " />
   <path part="highlight" fill="cadetblue"
      d="M69.54,54.64c-4.69,0-8.5,3.81-8.5,8.5s3.81,8.5,8.5,8.5,8.5-3.81,8.5-8.5-3.81-8.5-8.5-8.5ZM72.66,67.82c.02.08.02.1.02.16v.07q-.22.78-1.01,1.01h-4.3q-.13,0-.25-.03-.7-.41-.73-1.23l.61-2.38-.09-.11c-.36-.48-.58-1.05-.62-1.68v-.21c0-1.8,1.45-3.25,3.25-3.25s3.25,1.46,3.25,3.25c0,.73-.24,1.43-.68,1.99h0s.55,2.42.55,2.42Z" />
   <path part="background" fill="silver"
      d="M45.16,7.92C23.62,7.92,6.16,25.38,6.16,46.92c0,12.88,6.26,24.28,15.89,31.39.17-.05.33-.11.5-.14l.02-33.14c0-.19.01-.38.02-.57v-.1c0-.06,0-.11,0-.17,0-.02,0-.04,0-.05.04-1.61.56-3.09,1.41-4.33.38-.57.84-1.07,1.36-1.51.06-.05.12-.11.18-.16.05-.04.1-.07.15-.11,1.23-.95,2.74-1.54,4.38-1.64,0,0,.02,0,.03,0,0,0,.01,0,.02,0,.15,0,.3-.02.45-.02h1.41c-1.88-4.57-2.81-8.84-2.77-12.8,0-.74.55-1.36,1.27-1.47,3.1-.48,5.69-1.06,7.76-1.73l.41-.14c2.17-.74,4.47-1.93,6.89-3.57.36-.24.82-.25,1.2-.02,2.29,1.46,4.68,2.66,7.17,3.6,2.37.9,4.93,1.52,7.69,1.86l.13.02c.67.14,1.16.72,1.18,1.41v.14c-.23,4.38-1.1,8.61-2.59,12.69h11.99c1.2,0,2.64,0,4.46,0,.06,0,.11,0,.16,0h.62c1.8,0,3.46.6,4.79,1.61.33.24.64.5.93.8-3.75-17.62-19.4-30.85-38.14-30.85Z" />
</svg>