<svg width="96" height="96" viewBox="0 0 96 96" version="1.1" xmlns="http://www.w3.org/2000/svg"
  xmlns:xlink="http://www.w3.org/1999/xlink">
  <path part="warning" fill="orange"
    d="M 41,79 C 33.71,79 26.9,76.94 21.11,73.38 27.86,80.53 37.41,85 48,85 68.4,85 85,68.4 85,48 85,38.11 81.14,28.81 74.14,21.82 73.89,21.57 73.62,21.34 73.37,21.1 76.94,26.89 79,33.7 79,41 79,61.99 61.99,79 41,79 Z" />
  <path part="background" fill="silver"
    d="M 48,87 C 26.5,87 9,69.5 9,48 9,44.86 9.38,41.82 10.08,38.89 7.48,44.03 6,49.84 6,56 6,76.99 23.01,94 44,94 58.97,94 71.92,85.34 78.11,72.76 70.95,81.45 60.11,87 48,87 Z" />
  <path part="outline" fill="black"
    d="M 48,87 C 26.5,87 9,69.5 9,48 9,26.5 26.5,9 48,9 c 2.78,0 5.56,0.29 8.26,0.88 7.3,1.58 13.98,5.21 19.29,10.52 C 82.93,27.77 87,37.57 87,48 87,69.5 69.5,87 48,87 Z M 48,11 C 27.6,11 11,27.6 11,48 11,68.4 27.6,85 48,85 68.4,85 85,68.4 85,48 85,38.11 81.14,28.81 74.14,21.82 69.1,16.78 62.77,13.33 55.84,11.84 53.28,11.29 50.64,11.01 48,11.01 Z m 36.48,64.36 c -0.2,0 -0.41,-0.06 -0.58,-0.19 -0.45,-0.32 -0.55,-0.95 -0.22,-1.4 1.4,-1.94 2.65,-4 3.72,-6.13 0.25,-0.49 0.85,-0.69 1.34,-0.45 0.49,0.25 0.69,0.85 0.45,1.34 -1.11,2.23 -2.42,4.38 -3.88,6.41 -0.2,0.27 -0.5,0.41 -0.81,0.41 z M 6.17,32.37 C 6.05,32.37 5.92,32.35 5.8,32.3 5.29,32.1 5.04,31.51 5.24,31 c 0.93,-2.32 2.05,-4.59 3.35,-6.73 0.28,-0.47 0.9,-0.63 1.37,-0.34 0.47,0.29 0.62,0.9 0.34,1.37 -1.24,2.05 -2.31,4.22 -3.2,6.44 -0.16,0.39 -0.53,0.63 -0.93,0.63 z m 8.01,-13.05 c -0.23,0 -0.47,-0.08 -0.66,-0.25 -0.42,-0.36 -0.46,-1 -0.09,-1.41 4.22,-4.81 9.29,-8.62 15.05,-11.32 0.5,-0.23 1.1,-0.02 1.33,0.48 0.23,0.5 0.02,1.1 -0.48,1.33 -5.52,2.59 -10.36,6.23 -14.4,10.83 -0.2,0.23 -0.47,0.34 -0.75,0.34 z M 48,57 c -0.55,0 -1,-0.45 -1,-1 V 31.38 c 0,-0.55 0.45,-1 1,-1 0.55,0 1,0.45 1,1 V 56 c 0,0.55 -0.45,1 -1,1 z m 2,6.380001 a 2,2 0 0 1 -2,2 2,2 0 0 1 -2,-2 2,2 0 0 1 2,-2 2,2 0 0 1 2,2 z" />
</svg>