<?xml version="1.0" encoding="UTF-8" standalone="no"?>
<svg xmlns="http://www.w3.org/2000/svg" height="136" width="136" viewBox="0 0 136 136">
  <path part="background" fill="silver"
    d="M 58.310547 33.470703 C 34.130547 36.730703 15.490234 57.439766 15.490234 82.509766 C 15.490234 91.529766 17.920625 99.989531 22.140625 107.26953 C 25.750625 105.18953 30.149375 102.65063 35.359375 99.640625 C 36.319375 99.090625 37.539844 99.419141 38.089844 100.36914 L 47.089844 115.96094 C 47.639844 116.92094 47.309375 118.13945 46.359375 118.68945 L 37.609375 123.74023 C 45.449375 128.96023 54.870234 132.00977 64.990234 132.00977 C 75.110234 132.00977 84.869062 128.8607 92.789062 123.4707 C 87.539062 119.3207 84.630859 107.76031 84.630859 87.570312 L 84.640625 87.560547 L 80.609375 87.560547 C 78.099375 87.560547 76.720312 84.469922 78.320312 82.419922 C 80.100313 79.949922 81.520078 77.999297 82.580078 76.529297 C 76.480078 75.319297 71.180078 71.100703 67.080078 65.470703 C 61.400078 57.670703 57.990234 47.160156 57.990234 37.910156 C 57.990234 36.410156 58.100547 34.930703 58.310547 33.470703 z M 110.19922 62.300781 C 109.62922 63.050781 109.03969 63.780234 108.42969 64.490234 L 108.41992 64.490234 C 102.89992 70.900234 95.910312 75.699453 88.820312 76.689453 C 89.870312 78.139453 91.260234 80.059219 92.990234 82.449219 C 94.550234 84.509219 93.169688 87.560547 90.679688 87.560547 L 86.650391 87.560547 C 86.650391 107.93055 89.649297 119.03047 94.529297 122.23047 C 106.6493 113.21047 114.50977 98.77 114.50977 82.5 C 114.50977 75.3 112.95922 68.470781 110.19922 62.300781 z M 65.056641 85.507812 C 65.750251 85.510955 66.327812 85.899297 66.789062 86.669922 C 67.589062 87.999922 67.410234 88.960781 66.490234 89.550781 C 66.470234 89.560781 60.489922 93.629922 60.419922 93.669922 C 59.329922 94.329922 58.839219 94.629375 58.949219 94.609375 C 59.049219 94.589375 65.119453 90.669609 65.689453 90.599609 C 66.259453 90.529609 67.209844 91.070234 67.839844 92.240234 C 68.469844 93.410234 68.069141 94.43 67.119141 95 C 66.929141 95.11 64.829375 96.46 60.859375 99 L 61 99.080078 C 64.17 97.630078 65.950781 96.870078 66.300781 96.830078 C 66.870781 96.760078 67.599609 96.879922 68.349609 98.169922 C 68.729609 98.839922 68.29 99.520859 68 99.880859 L 68 99.859375 C 66.74 101.33938 64.699531 102.00938 63.769531 102.60938 C 63.389531 102.85938 62.889063 103.16 62.289062 103.5 C 62.279063 103.57 62.27 103.6507 62.25 103.7207 C 63.38 103.1007 65.019141 102.21039 65.369141 102.15039 C 65.919141 102.05039 66.769063 102.56078 67.289062 103.55078 C 67.809062 104.54078 64.869922 106.75031 63.919922 107.32031 C 63.619922 107.50031 56.260859 111.08062 56.130859 111.14062 C 56.000859 111.20063 53.770547 112.25055 49.310547 113.56055 C 48.970863 113.66045 48.69123 113.68919 48.441406 113.69922 C 48.495028 114.10871 48.421995 114.42724 48.210938 114.55078 L 48.210938 114.53906 L 47.230469 115.10938 L 38.730469 100.39062 L 39.710938 99.820312 C 40.120937 99.580313 40.910938 100.15914 41.460938 101.11914 L 47.960938 112.38086 C 48.227295 112.84577 48.390525 113.31171 48.441406 113.69727 L 48.980469 113.30078 L 41.849609 99.980469 L 41.070312 100.51953 L 42.019531 99.560547 C 42.119531 99.450547 42.2 99.329453 42.25 99.189453 L 43.839844 94.859375 C 43.919844 94.649375 44.069766 94.459609 44.259766 94.349609 L 46.070312 93.269531 L 49.580078 91.160156 C 50.720078 90.480156 51.539297 89.979453 52.029297 89.689453 C 52.769297 89.239453 54.030937 89.970234 54.460938 91.240234 L 48.669922 95.259766 L 49.660156 95.160156 L 49.259766 95 L 63.230469 86.199219 C 63.908594 85.735469 64.517166 85.505369 65.056641 85.507812 z " />
  <path part="highlight" fill="cadetblue"
    d="M111.27,13.87c-5.85-6.37-13.63-9.87-21.9-9.87s-16.46,3.57-22.65,10.05c-6.18,6.47-9.73,15.17-9.73,23.86,0,9.51,3.56,20.3,9.28,28.15,4.48,6.15,9.93,10.07,15.67,11.36-.97,1.34-2.17,3.01-3.62,5-1.6,2.05-.22,5.14,2.29,5.14h10.05c2.49,0,3.88-3.05,2.31-5.11-1.39-1.92-2.56-3.54-3.51-4.86,6.71-1.12,13.73-5.51,19.7-12.45,7.12-8.27,11.36-18.45,11.36-27.24s-3.38-17.62-9.27-24.03ZM83.15,17.94c-3.35.75-6.4,2.39-9.06,4.85-2.6,2.41-4.09,6.14-4.42,11.1-.04.53-.47.93-1,.93-.02,0-.05,0-.07,0-.55-.04-.97-.51-.93-1.06.37-5.48,2.07-9.66,5.06-12.43,2.92-2.71,6.28-4.51,9.98-5.34.54-.12,1.07.22,1.2.76.12.54-.22,1.07-.76,1.2Z" />
  <path part="outline" fill="black"
    d="M 82.912109 15.966797 C 82.845684 15.96793 82.778437 15.975234 82.710938 15.990234 C 79.010936 16.820234 75.650469 18.620078 72.730469 21.330078 C 69.740469 24.100078 68.039922 28.279766 67.669922 33.759766 C 67.629922 34.309766 68.049609 34.780313 68.599609 34.820312 L 68.669922 34.820312 L 68.669922 34.830078 C 69.199922 34.830078 69.629922 34.430391 69.669922 33.900391 C 69.999922 28.940391 71.489844 25.210781 74.089844 22.800781 C 76.749844 20.340781 79.800391 18.699219 83.150391 17.949219 C 83.690391 17.819219 84.030156 17.29 83.910156 16.75 C 83.796406 16.2775 83.37709 15.958867 82.912109 15.966797 z M 65.074219 84.486328 C 64.257091 84.479702 63.456965 84.82124 62.675781 85.355469 L 62.707031 85.333984 L 55.060547 90.150391 C 54.757586 89.652336 54.354063 89.251481 53.896484 88.96875 C 53.559549 88.760562 53.163037 88.607869 52.751953 88.566406 C 52.340869 88.524946 51.914729 88.595614 51.519531 88.835938 L 49.074219 90.302734 L 45.566406 92.412109 L 43.769531 93.484375 L 43.767578 93.484375 L 43.767578 93.486328 C 43.344475 93.732128 43.072295 94.093672 42.916016 94.503906 L 42.914062 94.509766 L 41.320312 98.849609 L 41.318359 98.851562 L 41.318359 98.853516 C 41.315756 98.856021 41.307176 98.866348 41.298828 98.876953 L 41.296875 98.878906 L 41.296875 98.880859 L 41.294922 98.880859 L 41.292969 98.882812 L 41.292969 98.884766 L 41.291016 98.886719 L 41.03125 99.148438 C 40.824084 99.005915 40.598408 98.887976 40.324219 98.818359 C 40.007374 98.737909 39.579955 98.737589 39.205078 98.957031 L 38.570312 99.326172 C 38.18101 98.907745 37.683724 98.616773 37.146484 98.472656 C 36.868173 98.397998 36.579166 98.362787 36.289062 98.369141 C 35.805557 98.379729 35.318919 98.506271 34.873047 98.761719 L 34.871094 98.763672 L 15.820312 109.76367 A 1 1 0 0 0 15.453125 111.13086 A 1 1 0 0 0 16.820312 111.49609 L 35.867188 100.49805 C 36.360396 100.21548 36.955337 100.37935 37.234375 100.86133 L 46.232422 116.44727 C 46.514989 116.94047 46.351116 117.53541 45.869141 117.81445 L 22.490234 131.31445 A 1 1 0 0 0 22.123047 132.67969 A 1 1 0 0 0 23.490234 133.04688 L 46.871094 119.54492 C 48.189477 118.78165 48.709427 117.13421 48.119141 115.75977 L 48.714844 115.41406 L 48.714844 115.41211 C 49.059903 115.21012 49.265623 114.87875 49.363281 114.58203 C 49.440767 114.56385 49.520314 114.54343 49.601562 114.51953 C 54.113715 113.19421 56.508317 112.07203 56.558594 112.04883 C 56.662687 112.00083 56.7208 111.96943 56.935547 111.86523 C 57.150294 111.76102 57.449932 111.61495 57.806641 111.44141 C 58.520057 111.09431 59.462691 110.63662 60.410156 110.17383 C 61.357621 109.71104 62.310654 109.24372 63.046875 108.88086 C 63.414985 108.69943 63.729286 108.54467 63.962891 108.42773 C 64.196496 108.3108 64.261394 108.28809 64.445312 108.17773 C 65.018985 107.83353 65.991514 107.13528 66.853516 106.31836 C 67.284516 105.9099 67.681526 105.48356 67.978516 104.99805 C 68.275505 104.51253 68.567159 103.81247 68.185547 103.08594 C 67.899062 102.54051 67.504136 102.14724 67.089844 101.81641 C 67.667557 101.43071 68.266256 101.09955 68.761719 100.51758 L 68.769531 100.50781 L 68.779297 100.49805 C 68.962263 100.27092 69.215286 99.928497 69.375 99.445312 C 69.534714 98.962131 69.564035 98.271364 69.220703 97.666016 L 69.216797 97.662109 L 69.214844 97.658203 C 68.775758 96.902975 68.280744 96.386847 67.722656 96.09375 C 67.628568 96.044337 67.533882 96.001646 67.439453 95.966797 C 67.570811 95.883677 67.641494 95.839713 67.644531 95.837891 C 68.292092 95.449354 68.820052 94.855126 69.041016 94.109375 C 69.261979 93.363624 69.144864 92.515685 68.730469 91.746094 C 68.34644 91.032897 67.856612 90.488833 67.328125 90.117188 L 67.326172 90.117188 L 67.326172 90.115234 L 67.324219 90.115234 L 67.322266 90.115234 C 67.320252 90.114923 67.314511 90.113593 67.3125 90.113281 L 67.3125 90.111328 C 67.801367 89.705058 68.208167 89.173006 68.294922 88.513672 C 68.398876 87.72362 68.137263 86.937099 67.658203 86.136719 C 67.147535 85.283529 66.365017 84.636291 65.425781 84.511719 C 65.308377 84.496147 65.190951 84.487275 65.074219 84.486328 z M 65.058594 86.488281 C 65.095995 86.487952 65.131076 86.490025 65.162109 86.494141 C 65.410374 86.527071 65.632074 86.647253 65.941406 87.164062 C 66.282347 87.733683 66.331593 88.092005 66.310547 88.251953 C 66.289557 88.411465 66.247698 88.501293 65.960938 88.685547 L 65.960938 88.6875 C 65.959536 88.688318 65.953525 88.691106 65.953125 88.691406 C 65.947025 88.695306 65.944526 88.697119 65.941406 88.699219 C 65.935206 88.703319 65.930608 88.708321 65.923828 88.712891 C 65.910268 88.721991 65.892031 88.73452 65.869141 88.75 C 65.823361 88.78095 65.758778 88.82455 65.675781 88.880859 C 65.509789 88.993473 65.272586 89.153848 64.990234 89.345703 C 64.425531 89.729414 63.674938 90.24012 62.921875 90.751953 C 62.168812 91.263786 61.41409 91.777018 60.84375 92.164062 C 60.55858 92.357585 60.31976 92.518276 60.150391 92.632812 C 60.065701 92.690084 59.997178 92.736673 59.951172 92.767578 C 59.928172 92.783028 59.910931 92.793781 59.900391 92.800781 C 59.362588 93.126435 58.969768 93.365546 58.710938 93.529297 C 58.580311 93.611937 58.49202 93.668095 58.390625 93.744141 C 58.339925 93.782161 58.319675 93.715471 58.111328 94.03125 C 58.085288 94.07072 58.055285 94.1216 58.023438 94.197266 C 58.007508 94.235096 57.978606 94.33363 57.978516 94.333984 C 57.978423 94.334339 57.947286 94.525075 57.947266 94.525391 C 57.947227 94.526021 58.064199 95.062027 58.064453 95.0625 C 58.064707 95.062973 58.446719 95.456716 58.447266 95.457031 C 58.447539 95.457189 58.624653 95.536989 58.625 95.537109 C 58.625347 95.537227 58.72328 95.566639 58.763672 95.574219 C 58.844452 95.589379 58.903836 95.591767 58.951172 95.591797 C 59.045842 95.591848 59.097191 95.581759 59.138672 95.574219 L 59.148438 95.572266 L 59.15625 95.570312 C 59.157031 95.570156 59.318733 95.524619 59.349609 95.511719 C 59.380489 95.498819 59.397679 95.489542 59.412109 95.482422 C 59.440959 95.468192 59.455263 95.459742 59.470703 95.451172 C 59.501593 95.434042 59.526851 95.420084 59.556641 95.402344 C 59.616221 95.366864 59.69063 95.321664 59.78125 95.265625 C 59.96249 95.153555 60.209498 94.99842 60.505859 94.8125 C 61.098582 94.44066 61.882917 93.946364 62.679688 93.453125 C 63.476458 92.959886 64.287036 92.466061 64.921875 92.097656 C 65.239295 91.913454 65.514173 91.760708 65.708984 91.660156 C 65.771865 91.627705 65.809011 91.610701 65.849609 91.591797 L 65.849609 91.59375 L 65.851562 91.59375 L 65.853516 91.59375 L 65.855469 91.595703 C 65.881547 91.605132 66.001671 91.630077 66.177734 91.753906 C 66.424248 91.927261 66.722779 92.236556 66.96875 92.693359 C 67.184355 93.093769 67.182083 93.341767 67.123047 93.541016 C 67.064007 93.740264 66.917674 93.941583 66.615234 94.123047 C 66.424861 94.237271 65.870501 94.592399 64.724609 95.324219 C 63.578718 96.056038 61.911119 97.12403 59.720703 98.529297 A 1 1 0 0 0 59.417969 99.910156 A 1 1 0 0 0 60.486328 100.3418 A 1 1 0 0 0 60.796875 100.25781 C 62.578023 99.439588 63.958756 98.820234 64.929688 98.404297 C 65.415154 98.196328 65.800078 98.039503 66.070312 97.9375 C 66.266449 97.863467 66.450662 97.822353 66.466797 97.8125 L 66.466797 97.810547 L 66.464844 97.810547 L 66.462891 97.810547 C 66.457506 97.810172 66.444011 97.810565 66.423828 97.8125 C 66.587373 97.792499 66.656663 97.793653 66.792969 97.865234 C 66.928809 97.936574 67.173012 98.130994 67.480469 98.65625 C 67.515789 98.71829 67.513892 98.7054 67.476562 98.818359 C 67.439853 98.929426 67.33265 99.098965 67.228516 99.230469 C 66.215888 100.41206 64.430201 101.00402 63.228516 101.7793 L 63.224609 101.78125 L 63.220703 101.7832 C 62.659737 102.15105 61.766364 102.66418 60.599609 103.28711 A 1 1 0 0 0 60.173828 104.49219 A 1 1 0 0 0 60.150391 104.52539 A 1 1 0 0 0 60.181641 104.57031 A 1 1 0 0 0 60.1875 104.64062 A 1 1 0 0 0 60.238281 104.65625 A 1 1 0 0 0 61.326172 105.31055 C 61.49101 105.27756 61.538999 105.2548 61.554688 105.24219 L 61.556641 105.24023 L 61.556641 105.23828 L 61.558594 105.23828 L 61.558594 105.23633 L 61.560547 105.23438 L 61.5625 105.23242 L 61.564453 105.23242 L 61.566406 105.23047 C 61.596186 105.21677 61.618155 105.20671 61.640625 105.19531 C 61.685565 105.17251 61.733085 105.14633 61.791016 105.11523 C 61.906874 105.05313 62.059429 104.97024 62.240234 104.87109 C 62.601845 104.6728 63.074638 104.41284 63.560547 104.15039 C 64.046456 103.88794 64.545329 103.62412 64.943359 103.42578 C 65.142374 103.32658 65.317945 103.24217 65.443359 103.1875 C 65.476883 103.17288 65.510658 103.16012 65.539062 103.15039 C 65.533773 103.14895 65.52661 103.1473 65.523438 103.14648 L 65.521484 103.14453 L 65.519531 103.14453 L 65.519531 103.14258 L 65.521484 103.14258 C 65.525928 103.14078 65.538389 103.13843 65.558594 103.13477 C 65.595428 103.12806 65.612027 103.12494 65.615234 103.125 C 65.607717 103.12791 65.577998 103.13706 65.539062 103.15039 C 65.577179 103.16076 65.669937 103.18557 65.783203 103.26367 C 65.950657 103.37914 66.153507 103.58274 66.326172 103.86133 C 66.338909 103.8349 66.34477 103.81778 66.347656 103.8125 L 66.347656 103.81055 L 66.349609 103.81055 L 66.349609 103.8125 C 66.35258 103.82406 66.351622 103.89675 66.414062 104.01562 C 66.385705 103.96165 66.356737 103.91064 66.326172 103.86133 C 66.315104 103.88429 66.298017 103.91491 66.273438 103.95508 C 66.135739 104.18019 65.836265 104.52815 65.478516 104.86719 C 64.766011 105.54243 63.799615 106.23025 63.419922 106.45898 C 63.517005 106.40044 63.289765 106.52683 63.066406 106.63867 C 62.839582 106.75221 62.528218 106.90745 62.162109 107.08789 C 61.429893 107.44878 60.479488 107.91474 59.533203 108.37695 C 58.586918 108.83916 57.644161 109.29787 56.931641 109.64453 C 56.57538 109.81786 56.276308 109.96265 56.0625 110.06641 C 55.848692 110.17016 55.64911 110.26546 55.720703 110.23242 C 55.512932 110.32832 53.485742 111.28776 49.162109 112.56445 C 49.070391 112.33771 48.958135 112.10974 48.828125 111.88281 L 48.826172 111.88086 L 42.349609 100.6582 L 42.755859 100.24805 L 42.769531 100.23242 C 42.934465 100.05099 43.098413 99.813115 43.201172 99.525391 L 43.199219 99.535156 L 44.785156 95.216797 L 44.785156 95.214844 L 44.787109 95.212891 L 44.789062 95.210938 C 44.79096 95.208742 44.793486 95.204744 44.794922 95.203125 L 44.796875 95.203125 L 44.796875 95.201172 L 46.59375 94.126953 L 50.105469 92.017578 L 52.546875 90.552734 L 52.546875 90.554688 L 52.548828 90.554688 C 52.563669 90.558149 52.659234 90.554707 52.845703 90.669922 C 53.020389 90.777858 53.216419 90.971035 53.365234 91.21875 L 48.736328 94.134766 A 1 1 0 0 0 48.423828 95.513672 A 1 1 0 0 0 49.802734 95.826172 L 63.789062 87.015625 L 63.804688 87.005859 C 64.379754 86.612588 64.796787 86.490587 65.058594 86.488281 z M 85.640625 86.560547 C 85.099662 86.571185 84.660156 87.017158 84.660156 87.560547 C 84.660156 109.07055 87.960859 120.78969 93.880859 124.17969 C 98.490859 126.81969 104.16094 123.95008 107.96094 118.83008 C 115.55094 108.61008 118.63938 105.84969 126.35938 102.92969 C 126.86938 102.72969 127.13945 102.16062 126.93945 101.64062 C 126.73945 101.13062 126.17039 100.86055 125.65039 101.06055 C 117.51039 104.14055 114.14961 107.14062 106.34961 117.64062 C 103.06961 122.05063 98.349375 124.43945 94.859375 122.43945 C 89.779375 119.52945 86.640625 108.40055 86.640625 87.560547 C 86.640625 87.017158 86.20112 86.571185 85.660156 86.560547 L 85.640625 86.560547 z M 44.789062 95.205078 L 44.789062 95.207031 L 44.783203 95.208984 C 44.78521 95.207542 44.787696 95.205799 44.789062 95.205078 z M 66.419922 97.8125 L 66.414062 97.814453 L 66.404297 97.814453 C 66.410178 97.813834 66.414919 97.812995 66.419922 97.8125 z M 39.949219 100.83789 C 40.117841 100.96588 40.380052 101.2476 40.591797 101.61719 L 40.59375 101.61914 L 47.09375 112.88086 C 47.306517 113.25369 47.421394 113.62741 47.447266 113.83789 L 47.138672 114.01758 L 39.634766 101.01953 L 39.949219 100.83789 z " />
</svg>