<svg width="56" height="56" viewBox="0 0 56 56" version="1.1" xmlns="http://www.w3.org/2000/svg"
   xmlns:xlink="http://www.w3.org/1999/xlink">
   <circle part="highlight" fill="cadetblue" cx="14" cy="39.5" r="2.5" />
   <path part="background" fill="silver"
      d="M 44.119141 9 C 42.457141 9 41.119141 10.338 41.119141 12 L 41.119141 42 C 41.119141 43.662 42.457141 45 44.119141 45 L 51.990234 45 C 53.652234 45 54.990234 43.662 54.990234 42 L 54.990234 12 C 54.990234 10.338 53.652234 9 51.990234 9 L 44.119141 9 z M 26.560547 17.369141 C 24.900547 17.369141 23.560547 18.709141 23.560547 20.369141 L 23.560547 32.289062 L 26.490234 37.060547 C 27.430234 38.590547 26.869531 40.540156 25.269531 41.410156 C 24.569531 41.790156 24.029844 42.080078 23.589844 42.330078 C 23.749844 43.830078 25.010547 45 26.560547 45 L 34.429688 45 C 36.089687 45 37.429688 43.66 37.429688 42 L 37.429688 20.369141 C 37.429688 18.709141 36.089687 17.369141 34.429688 17.369141 L 26.560547 17.369141 z M 8.9902344 25.75 C 7.8402344 25.75 6.8596094 26.399609 6.3496094 27.349609 C 6.3896094 27.369609 6.4309375 27.380391 6.4609375 27.400391 L 6.4804688 27.390625 L 14.099609 32.880859 L 18.619141 30.410156 C 18.999141 30.200156 19.410312 30.079297 19.820312 30.029297 L 19.820312 28.779297 C 19.820312 28.779297 19.828164 28.76248 19.830078 28.751953 L 19.830078 28.75 C 19.830078 27.09 18.490078 25.75 16.830078 25.75 L 8.9902344 25.75 z " />
   <path part="outline" fill="black"
      d="M54.24,45.8c.41,0,.75.34.75.75s-.34.75-.75.75H1.76c-.41,0-.75-.34-.75-.75s.34-.75.75-.75h52.48ZM6.48,27.39l7.62,5.49,4.52-2.47c1.57-.85,3.58-.35,4.5,1.15l3.37,5.5c.94,1.53.38,3.48-1.22,4.35-1.67.91-2.42,1.32-3.1,1.69l-.38.21c-.43.24-.9.49-1.62.88-1.1.6-1.44.79-1.77.96l-.13.07c-.11.06-.23.12-.38.21-.36.2-.82.06-1.02-.3-.2-.36-.06-.82.3-1.02.15-.08.27-.15.38-.21l.13-.07c.32-.18.67-.37,1.77-.96q2.08-1.14,5.1-2.79c.85-.46,1.14-1.46.66-2.25l-3.37-5.5c-.5-.81-1.63-1.1-2.51-.62l-9.37,5.11.25.19c1.04.8,1.19,2.27.33,3.26-.84.96-2.32,1.09-3.38.27l-1.53-1.4-.12.07c-.85.46-1.14,1.46-.66,2.25q1.22,1.98,1.81,2.93c.22.35.11.81-.24,1.03-.35.22-.81.11-1.03-.24q-.59-.95-1.81-2.93c-.87-1.42-.45-3.22.91-4.16l-1.91-1.74c-1.74-1.34-1.99-3.79-.56-5.43.27-.31.75-.34,1.06-.07.31.27.34.75.07,1.06-.86.99-.71,2.44.39,3.3l4.59,4.2c.39.3.97.25,1.29-.11.29-.33.24-.81-.12-1.09l-1.99-1.54c-.33-.25-.39-.72-.13-1.05s.72-.39,1.05-.13l.45.34,3.97-2.17-7.04-5.07c-.34-.24-.41-.71-.17-1.05.24-.34.71-.41,1.05-.17Z" />
</svg>