<svg width="136" height="136" viewBox="0 0 136 136" version="1.1" xmlns="http://www.w3.org/2000/svg"
   xmlns:xlink="http://www.w3.org/1999/xlink">
   <path part="background" fill="silver"
      d="M 30 13.990234 C 21.16 13.990234 14 21.150234 14 29.990234 L 14 39.660156 L 28.560547 37.089844 L 28.560547 37.099609 L 30.75 36.710938 L 30.75 32.990234 C 30.75 27.880234 34.89 23.740234 40 23.740234 L 94 23.740234 C 99.11 23.740234 103.25 27.880234 103.25 32.990234 L 103.25 36.509766 L 104.21094 36.679688 C 104.33094 35.999688 104.98016 35.549922 105.66016 35.669922 L 122 38.550781 L 122 29.990234 C 122 21.150234 114.84 13.990234 106 13.990234 L 30 13.990234 z M 13.990234 103.61914 L 13.990234 106 C 13.990234 114.84 21.150234 122 29.990234 122 L 105.99023 122 C 114.83023 122 121.99023 114.84 121.99023 106 L 121.99023 104.78906 C 120.38023 108.72906 116.19008 111.15086 111.83008 110.38086 L 111.83984 110.39062 L 104.07031 109.01953 C 103.39031 108.89953 102.94055 108.25031 103.06055 107.57031 L 102.14062 107.41016 C 100.57062 110.30016 97.52 112.25977 94 112.25977 L 40 112.25977 C 36.56 112.25977 33.560703 110.37984 31.970703 107.58984 L 30.240234 107.89062 L 29.689453 107.99023 L 29.689453 108.01953 C 28.319453 108.25953 26.099297 108.64016 23.029297 109.16016 C 22.489297 109.26016 21.950156 109.2893 21.410156 109.2793 C 18.010156 109.1893 15.000234 106.91914 13.990234 103.61914 z " />
   <path part="outline" fill="blacl"
      d="M 40 23.75 C 34.89 23.75 30.75 27.89 30.75 33 L 30.75 52.283203 L 25.5 53.210938 C 24.82 53.330938 24.370234 53.980156 24.490234 54.660156 C 24.610234 55.340156 25.259453 55.789922 25.939453 55.669922 L 30.75 54.824219 L 30.75 61.923828 L 17.390625 64.279297 C 16.710625 64.399297 16.260859 65.050469 16.380859 65.730469 C 16.500859 66.410469 17.150078 66.860234 17.830078 66.740234 L 30.75 64.462891 L 30.75 103 C 30.75 108.11 34.89 112.25 40 112.25 L 94 112.25 C 99.11 112.25 103.25 108.11 103.25 103 L 103.25 64.820312 L 116.01953 67.070312 C 116.69953 67.190313 117.3507 66.740547 117.4707 66.060547 C 117.5907 65.380547 117.14094 64.729375 116.46094 64.609375 L 103.25 62.28125 L 103.25 54.669922 L 107.91016 55.490234 C 108.59016 55.610234 109.23938 55.160469 109.35938 54.480469 C 109.47938 53.800469 109.02961 53.149297 108.34961 53.029297 L 103.25 52.130859 L 103.25 33 C 103.25 27.89 99.11 23.75 94 23.75 L 40 23.75 z M 40 26.25 L 94 26.25 C 97.73 26.25 100.75 29.27 100.75 33 L 100.75 103 C 100.75 106.73 97.73 109.75 94 109.75 L 40 109.75 C 36.27 109.75 33.25 106.73 33.25 103 L 33.25 33 C 33.25 29.27 36.27 26.25 40 26.25 z M 105.4082 35.660156 C 104.8266 35.675195 104.31594 36.094453 104.21094 36.689453 C 104.09094 37.369453 104.5407 38.020625 105.2207 38.140625 L 123.99023 41.449219 C 127.67023 42.099219 130.1207 45.599531 129.4707 49.269531 L 120.08984 102.44922 C 119.43984 106.12922 115.93953 108.57969 112.26953 107.92969 L 104.5 106.56055 C 103.82 106.44055 103.17078 106.89031 103.05078 107.57031 C 102.93078 108.25031 103.38055 108.89953 104.06055 109.01953 L 111.83008 110.39062 C 116.87008 111.28062 121.66078 107.92063 122.55078 102.89062 L 131.92969 49.710938 C 132.81969 44.670938 129.45969 39.880234 124.42969 38.990234 L 105.66016 35.679688 C 105.57516 35.664687 105.49129 35.658008 105.4082 35.660156 z M 28.537109 36.021484 A 1.25 1.25 0 0 0 28.375 36.039062 L 11.662109 38.988281 C 6.6472606 39.875967 3.2702031 44.690408 4.1582031 49.707031 L 13.529297 102.87695 C 14.416983 107.8918 19.231423 111.26886 24.248047 110.38086 C 26.702287 109.96515 28.615652 109.63928 29.984375 109.40234 A 1.25 1.25 0 0 0 31.003906 107.95703 A 1.25 1.25 0 0 0 29.558594 106.9375 C 28.19287 107.17392 26.278958 107.50152 23.820312 107.91797 L 23.816406 107.91797 L 23.8125 107.91992 C 20.129747 108.57181 16.643396 106.12747 15.990234 102.44336 L 15.990234 102.44141 L 6.6210938 49.273438 L 6.6210938 49.271484 C 5.9690938 45.588155 8.4125056 42.103486 12.097656 41.451172 L 28.810547 38.501953 A 1.25 1.25 0 0 0 29.824219 37.052734 A 1.25 1.25 0 0 0 28.537109 36.021484 z M 91.517578 38.246094 C 91.075269 38.244133 90.643906 38.478125 90.410156 38.890625 L 90.419922 38.890625 L 82.099609 53.859375 L 73.240234 47.480469 L 73.119141 47.410156 C 72.529141 47.080156 71.769922 47.280859 71.419922 47.880859 L 62.070312 64.150391 L 53.669922 58.849609 C 53.109922 58.499609 52.380234 58.639688 51.990234 59.179688 L 42.990234 71.779297 C 42.590234 72.339297 42.719297 73.119531 43.279297 73.519531 L 43.400391 73.589844 C 43.950391 73.899844 44.659297 73.750779 45.029297 73.230469 L 53.339844 61.589844 L 61.839844 66.960938 L 61.949219 67.019531 C 62.539219 67.309531 63.259844 67.099531 63.589844 66.519531 L 72.900391 50.320312 L 81.779297 56.710938 C 82.379297 57.140938 83.239609 56.950781 83.599609 56.300781 L 92.599609 40.099609 C 92.929609 39.499609 92.709375 38.740391 92.109375 38.400391 C 91.921875 38.297266 91.718628 38.246985 91.517578 38.246094 z M 111.48828 53.720703 C 110.90668 53.735742 110.39406 54.155 110.28906 54.75 C 110.16906 55.43 110.62078 56.079219 111.30078 56.199219 L 117.21094 57.240234 C 117.89094 57.360234 118.54016 56.910469 118.66016 56.230469 C 118.78016 55.550469 118.33039 54.899297 117.65039 54.779297 L 111.74023 53.740234 C 111.65523 53.725234 111.57137 53.718555 111.48828 53.720703 z M 22.431641 53.890625 C 22.348555 53.888477 22.264688 53.895156 22.179688 53.910156 L 16.269531 54.949219 C 15.589531 55.069219 15.139766 55.720391 15.259766 56.400391 C 15.379766 57.080391 16.030938 57.530156 16.710938 57.410156 L 22.619141 56.369141 C 23.299141 56.249141 23.750859 55.599922 23.630859 54.919922 C 23.525859 54.324922 23.013242 53.905664 22.431641 53.890625 z M 25.623047 73.03125 C 25.539961 73.029102 25.454141 73.035781 25.369141 73.050781 L 19.220703 74.130859 C 18.540703 74.250859 18.090938 74.900078 18.210938 75.580078 C 18.330937 76.260078 18.980156 76.709844 19.660156 76.589844 L 25.810547 75.509766 C 26.490547 75.389766 26.940312 74.740547 26.820312 74.060547 C 26.715312 73.465547 26.204648 73.046289 25.623047 73.03125 z M 108.31641 73.361328 C 107.7348 73.376367 107.22414 73.795625 107.11914 74.390625 C 106.99914 75.070625 107.45086 75.719844 108.13086 75.839844 L 114.2793 76.919922 C 114.9593 77.039922 115.61047 76.590156 115.73047 75.910156 C 115.85047 75.230156 115.4007 74.580938 114.7207 74.460938 L 108.57031 73.380859 C 108.48531 73.365859 108.39949 73.35918 108.31641 73.361328 z " />
   <path part="highlight" fill="cadetblue"
      d="M 86 64 C 83.24 64 81 66.24 81 69 L 81 92 C 81 94.76 83.24 97 86 97 C 88.76 97 91 94.76 91 92 L 91 69 C 91 66.24 88.76 64 86 64 z M 67 77 C 64.24 77 62 79.24 62 82 L 62 92 C 62 94.76 64.24 97 67 97 C 69.76 97 72 94.76 72 92 L 72 82 C 72 79.24 69.76 77 67 77 z M 48 84 C 45.24 84 43 86.24 43 89 L 43 92 C 43 94.76 45.24 97 48 97 C 50.76 97 53 94.76 53 92 L 53 89 C 53 86.24 50.76 84 48 84 z " />
</svg>