<svg width="56" height="56" viewBox="0 0 56 56" version="1.1" xmlns="http://www.w3.org/2000/svg"
  xmlns:xlink="http://www.w3.org/1999/xlink">
  <path part="background" fill="silver"
    d="M 13,5 C 8.568,5 5,8.568 5,13 v 3.083984 C 5.2582282,15.980097 5.5266158,15.903508 5.8007812,15.855469 L 13,14.585938 V 14 c 0,-2.216 1.784,-4 4,-4 h 22 c 2.216,0 4,1.784 4,4 v 0.597656 l 7.162109,1.263672 C 50.449417,15.911197 50.730392,15.992411 51,16.103516 V 13 C 51,8.568 47.432,5 43,5 Z M 51,34.142578 C 0,0 0,0 51,34.142578 Z m 0,0 -0.892578,5.0625 c -0.379352,2.17886 -2.457472,3.634332 -4.634766,3.246094 L 43,42.015625 C 42.995793,44.220494 41.204869,46.004423 39,46 H 17 c -2.210439,0.005 -4.003909,-1.787606 -4,-3.998047 l -2.511719,0.443359 C 8.3114129,42.833521 6.2338399,41.377819 5.8554688,39.199219 L 5,34.349609 V 43 c 0,4.432 3.568,8 8,8 h 30 c 4.432,0 8,-3.568 8,-8 z" />
  <path part="outline" fill="black"
    d="M 17,9.25 A 4.75,4.75 0 0 0 12.25,14 v 6.555 l -1.516,0.265 a 0.751,0.751 0 0 0 0.26,1.479 l 1.256,-0.223 v 2.541 l -4.758,0.84 a 0.75002883,0.75002883 0 1 0 0.262,1.477 L 12.25,26.141 V 42 A 4.75,4.75 0 0 0 17,46.75 H 39 A 4.75,4.75 0 0 0 43.75,42 V 26.14 l 4.496,0.794 a 0.75002883,0.75002883 0 1 0 0.262,-1.477 L 43.75,24.617 V 22.08 l 1.262,0.223 a 0.75,0.75 0 1 0 0.261,-1.477 L 43.75,20.556 V 14 A 4.75,4.75 0 0 0 39,9.25 Z m 0,1.5 H 39 A 3.25,3.25 0 0 1 42.25,14 V 42 A 3.25,3.25 0 0 1 39,45.25 H 17 A 3.25,3.25 0 0 1 13.75,42 V 14 A 3.25,3.25 0 0 1 17,10.75 Z m 22.352,3 a 0.747,0.747 0 0 0 -0.63,0.314 l -3.933,5.524 -4.074,-2.414 -0.102,-0.051 a 0.752,0.752 0 0 0 -0.888,0.256 l -4.604,6.367 -3.748,-2.152 a 0.75,0.75 0 0 0 -0.94,0.158 l -4.331,4.978 a 0.75,0.75 0 0 0 0.072,1.06 l 0.09,0.065 a 0.75,0.75 0 0 0 0.968,-0.14 l 3.928,-4.515 3.799,2.184 0.104,0.049 a 0.75,0.75 0 0 0 0.878,-0.26 l 4.598,-6.361 4.078,2.417 a 0.751,0.751 0 0 0 0.994,-0.21 l 4.332,-6.084 a 0.751,0.751 0 0 0 -0.591,-1.186 z m 5.736,0.457 a 0.75,0.75 0 0 0 -0.11,1.488 l 5.092,0.899 a 3.248,3.248 0 0 1 2.635,3.763 L 49.406,39.07 a 3.248,3.248 0 0 1 -3.763,2.635 l -0.5,-0.088 a 0.751,0.751 0 0 0 -0.26,1.479 l 0.498,0.088 A 4.752,4.752 0 0 0 50.885,39.33 L 54.184,20.62 A 4.752,4.752 0 0 0 50.33,15.115 l -5.092,-0.896 a 0.743,0.743 0 0 0 -0.15,-0.012 z M 10.789,14.229 A 0.757,0.757 0 0 0 10.637,14.24 L 5.67,15.115 a 4.752,4.752 0 0 0 -3.854,5.504 l 3.3,18.711 a 4.752,4.752 0 0 0 5.503,3.854 l 0.432,-0.077 a 0.751,0.751 0 0 0 -0.26,-1.478 l -0.434,0.076 A 3.248,3.248 0 0 1 6.594,39.07 L 3.294,20.357 A 3.248,3.248 0 0 1 5.93,16.594 l 4.968,-0.877 a 0.751,0.751 0 0 0 -0.11,-1.488 z m -1.87,6.93 a 0.757,0.757 0 0 0 -0.151,0.01 l -1.97,0.349 a 0.75,0.75 0 1 0 0.26,1.477 l 1.971,-0.349 a 0.751,0.751 0 0 0 -0.11,-1.488 z m 38.169,0 a 0.751,0.751 0 0 0 -0.11,1.488 l 1.97,0.347 a 0.751,0.751 0 0 0 0.261,-1.478 L 47.239,21.17 A 0.743,0.743 0 0 0 47.088,21.158 Z M 10.31,29.036 a 0.757,0.757 0 0 0 -0.153,0.012 l -1.969,0.347 a 0.75,0.75 0 1 0 0.26,1.477 l 1.969,-0.348 A 0.75,0.75 0 0 0 10.31,29.036 Z m 35.377,0.002 a 0.75,0.75 0 0 0 -0.11,1.488 l 1.97,0.348 a 0.751,0.751 0 0 0 0.26,-1.479 L 45.839,29.05 a 0.762,0.762 0 0 0 -0.153,-0.012 z" />
  <path part="highlight" fill="cadetblue"
    d="m 27.5,30 a 2.5,2.5 0 0 1 2.5,2.5 v 6 a 2.5,2.5 0 1 1 -5,0 v -6 A 2.5,2.5 0 0 1 27.5,30 Z m 9,-6 a 2.5,2.5 0 0 1 2.5,2.5 v 12 a 2.5,2.5 0 1 1 -5,0 v -12 A 2.5,2.5 0 0 1 36.5,24 Z M 19,34 a 2,2 0 0 1 2,2 v 3 a 2,2 0 0 1 -4,0 v -3 a 2,2 0 0 1 2,-2 z" />
</svg>