<svg width="56" height="56" viewBox="0 0 56 56" version="1.1" xmlns="http://www.w3.org/2000/svg"
  xmlns:xlink="http://www.w3.org/1999/xlink">
  <path part="background" fill="silver"
    d="M 28.068359 1.0214844 A 27 27 0 0 0 1.0683594 28.021484 A 27 27 0 0 0 28.068359 55.021484 A 27 27 0 0 0 55.068359 28.021484 A 27 27 0 0 0 28.068359 1.0214844 z M 24.306641 12.1875 L 40.806641 12.1875 A 6.752 6.752 0 0 1 47.556641 18.9375 L 47.556641 38.4375 A 6.752 6.752 0 0 1 40.806641 45.1875 L 28.927734 45.1875 L 28.9375 45.203125 L 29.017578 46.052734 L 28.394531 46.457031 L 28.601562 46.490234 L 27.052734 49.501953 L 22.423828 48.595703 L 18.978516 45.228516 L 18.978516 45.685547 L 14.199219 47.619141 L 9.4394531 45.677734 L 9.4394531 39.384766 L 9.9023438 39.542969 L 9.4394531 38.4375 L 9.9804688 37.779297 L 12.970703 36.347656 L 16.056641 36.347656 L 17.554688 37.15625 L 17.554688 18.939453 A 6.752 6.752 0 0 1 24.304688 12.189453 L 24.306641 12.1875 z M 12.773438 40.529297 L 14.208984 41.025391 L 15.574219 40.529297 L 12.773438 40.529297 z M 18.976562 42.582031 L 18.976562 45.132812 L 19.625 43.302734 A 6.8 6.8 0 0 1 18.976562 42.582031 z M 23.326172 45.117188 L 23.994141 45.771484 L 25.119141 45.945312 L 23.984375 45.181641 L 23.982422 45.181641 A 6.8 6.8 0 0 1 23.326172 45.117188 z " />
  <path part="outline" fill="black"
    d="M26.855 11.44a.75.75 0 1 0 0 1.5h14.7c2.855 0 5.25 3.04 5.25 6.865v3.937a.75.75 0 1 0 1.5 0v-3.937c0-4.586-2.978-8.366-6.75-8.366zm4.37 11.632a.743.743 0 0 0-.727.559l-2.713 10.236L23.3 32.08a.749.749 0 0 0-.807.166l-1.252 1.252a.75.75 0 0 0-.002 1.06l.084.073a.75.75 0 0 0 .977-.072l.904-.903 4.815 1.916.097.032a.749.749 0 0 0 .904-.536l2.471-9.322 3.832 6.479a.75.75 0 0 0 1.045.254l5.524-3.471-.069.263a.75.75 0 1 0 1.451.377l.655-2.521v-.006l.002-.002v-.004l.01-.045.007-.062.002-.032c.001-.021.003-.043.002-.064l-.002-.01c0-.01 0-.02-.002-.031a1.032 1.032 0 0 0-.029-.153.643.643 0 0 0-.033-.087.57.57 0 0 0-.024-.047l-.023-.04c-.01-.015-.018-.031-.03-.046-.006-.01-.015-.018-.023-.028-.012-.014-.022-.029-.035-.043-.011-.012-.024-.023-.037-.035l-.024-.023a.682.682 0 0 0-.048-.037l-.04-.028-.04-.023-.045-.022a.715.715 0 0 0-.045-.02v-.001h-.002l-.03-.01-.015-.006-.008-.002a.727.727 0 0 0-.041-.011.727.727 0 0 0-.102-.016l-.035-.002h-.002c-.02-.001-.041-.003-.062-.002l-.012.002-2.6.13a.75.75 0 1 0 .077 1.499l.35-.018-4.768 2.994-4.352-7.355a.739.739 0 0 0-.644-.37zm-13.67.686a.75.75 0 0 0-.75.75v11.281a9.316 9.316 0 0 0-2.606-.357c-2.914 0-5.299 1.236-5.488 2.798a.753.753 0 0 0-.012.131l-.017 3.653v3.367a.694.694 0 0 0 .015.135l.008.035a.682.682 0 0 0 .031.094l.016.035.004.01.002.002v.002l.017.033.012.021c.838 1.497 2.626 2.434 5.52 2.434 1.82 0 3.666-.61 4.69-1.574-.017-.024-.026-.046-.042-.069.52.778 1.324 1.57 2.375 2.23 2.695 1.693 5.2 2.194 6.547.983l.01-.008.025-.025.008-.008.01-.012.029-.033c.013-.016.026-.03.037-.047l.035-.058a.82.82 0 0 0 .034-.07l1.394-3.247.02-.04c.05-.085.095-.173.13-.264h11.946c3.772 0 6.75-3.78 6.75-8.366v-1.336a.75.75 0 1 0-1.5 0v1.336c0 3.826-2.395 6.866-5.25 6.866H29.619c.023.079.042.158.059.236-.28-1.32-1.52-2.853-3.352-3.953-1.446-.869-2.956-1.287-4.166-1.24-.941.036-1.7.352-2.105.955a.818.818 0 0 0-.108.175l-.22.495V38.35a.725.725 0 0 0-.08-.334c-.153-.603-.634-1.148-1.342-1.58V24.508a.75.75 0 0 0-.75-.75zm30 1.662a.75.75 0 0 0-.75.75v3a.75.75 0 1 0 1.5 0v-3a.75.75 0 0 0-.75-.75zm0 5.5a.75.75 0 0 0-.75.75v2.135a.75.75 0 1 0 1.5 0V31.67a.75.75 0 0 0-.75-.75zm-33.356 6.012c2.32 0 4 .916 4 1.5 0 .583-1.68 1.5-4 1.5-2.319 0-4-.917-4-1.5 0-.584 1.681-1.5 4-1.5zm4.03 3.54v1.493c-.407.71-2.207 1.373-4.02 1.373-2.284 0-3.453-.538-4.025-1.426l.005-1.428c1.004.583 2.429.948 4.01.948 1.592 0 3.025-.37 4.03-.96zm4.029.485c.822-.008 2.047.3 3.297 1.05 1.85 1.113 2.814 2.633 2.69 3.284a.508.508 0 0 0-.042.078l-.023.057-.024.053.01-.012-.01.012v.002c-.413.487-2.288.39-4.224-.774-2-1.202-2.965-2.879-2.639-3.422.122-.203.471-.323.965-.328zm-1.895 2.4.078.123c.59.903 1.53 1.8 2.72 2.514 1.426.857 2.914 1.274 4.116 1.24l.127-.006-.638 1.489c-.758.49-2.564.086-4.639-1.217-1.637-1.028-2.424-2.327-2.36-2.809l.036-.078.08-.181zm-2.134.538v1.304c-.415.757-2.18 1.483-3.922 1.483-2.261 0-3.527-.607-4.125-1.526l.002-1.21c.944.577 2.258.892 4.025.892 1.48 0 2.956-.343 4.02-.943zm.146 1.455zm.182.48c.032.071.07.143.107.215-.037-.072-.075-.144-.107-.215z" />
  <circle part="highlight" fill="cadetblue" cx="18.436" cy="15.047" r="5" />
</svg>