<svg width="96" height="96" viewBox="0 0 96 96" version="1.1" xmlns="http://www.w3.org/2000/svg"
    xmlns:xlink="http://www.w3.org/1999/xlink">
  <path
        part="background" fill="silver"

     d="M 18 10 C 13.58 10 10 13.58 10 18 L 10 25.300781 L 21.019531 23.359375 C 21.349531 18.689375 25.24 15 30 15 L 66 15 C 70.75 15 74.650469 18.689375 74.980469 23.359375 L 86 25.300781 L 86 18 C 86 13.58 82.42 10 78 10 L 18 10 z M 10.009766 73.070312 L 10.009766 78 C 10.009766 82.42 13.589766 86 18.009766 86 L 78.009766 86 C 82.429766 86 86.009766 82.42 86.009766 78 L 86.009766 73.070312 C 84.039766 75.710313 80.700234 77.170547 77.240234 76.560547 L 77.230469 76.560547 L 74.070312 76 C 72.600313 78.96 69.539766 81 66.009766 81 L 30 81 C 26.47 81 23.409453 78.96 21.939453 76 L 18.78125 76.560547 C 15.32125 77.170547 11.979766 75.710312 10.009766 73.070312 z " />
  <path
        part="outline" fill="black"

     d="M 30 15 C 25.24 15 21.349531 18.689375 21.019531 23.359375 L 21.019531 23.349609 L 9.7402344 25.339844 C 4.8502344 26.209844 1.5794531 30.869531 2.4394531 35.769531 L 8.3496094 69.259766 C 9.2196094 74.149766 13.889297 77.420547 18.779297 76.560547 L 21.939453 76 C 23.409453 78.96 26.47 81 30 81 L 66.009766 81 C 69.539766 81 72.600313 78.96 74.070312 76 L 77.230469 76.560547 C 82.130469 77.420547 86.800156 74.159766 87.660156 69.259766 L 93.560547 35.779297 C 94.420547 30.879297 91.159766 26.209609 86.259766 25.349609 L 74.980469 23.359375 C 74.650469 18.689375 70.75 15 66 15 L 30 15 z M 30 17 L 66 17 C 69.87 17 73 20.13 73 24 L 73 72 C 73 75.87 69.87 79 66 79 L 30 79 C 26.13 79 23 75.87 23 72 L 23 24 C 23 20.13 26.13 17 30 17 z M 64.015625 23.019531 C 63.660649 23.005083 63.311641 23.179766 63.119141 23.509766 L 57.169922 33.570312 L 51.060547 29.199219 C 50.840547 29.029219 50.549297 28.969297 50.279297 29.029297 C 50.009297 29.079297 49.770859 29.250234 49.630859 29.490234 L 42.679688 41.070312 L 37.060547 37.179688 C 36.610547 36.869687 35.999688 36.979922 35.679688 37.419922 L 29.179688 46.419922 C 28.859687 46.869922 28.960156 47.500312 29.410156 47.820312 C 29.860156 48.140312 30.490547 48.039844 30.810547 47.589844 L 36.740234 39.380859 L 42.429688 43.320312 C 42.659688 43.480312 42.940937 43.540469 43.210938 43.480469 C 43.480938 43.420469 43.719375 43.259531 43.859375 43.019531 L 50.800781 31.449219 L 56.919922 35.820312 C 57.149922 35.980312 57.440937 36.040469 57.710938 35.980469 C 57.980937 35.920469 58.219375 35.749766 58.359375 35.509766 L 64.859375 24.509766 C 65.139375 24.029766 64.989766 23.420625 64.509766 23.140625 L 64.490234 23.160156 C 64.340234 23.072656 64.176978 23.026099 64.015625 23.019531 z M 20.980469 25.380859 L 21 25.390625 L 20.980469 25.394531 L 20.980469 35.029297 L 11.720703 36.660156 C 11.180703 36.760156 10.810156 37.280313 10.910156 37.820312 C 11.010156 38.360312 11.530313 38.730859 12.070312 38.630859 L 20.980469 37.060547 L 20.980469 42.140625 L 12.939453 43.560547 C 12.399453 43.660547 12.030859 44.180703 12.130859 44.720703 C 12.230859 45.260703 12.749063 45.629297 13.289062 45.529297 L 20.990234 44.169922 L 20.990234 50.259766 L 14.339844 51.429688 C 13.799844 51.529688 13.429297 52.049844 13.529297 52.589844 C 13.629297 53.129844 14.149453 53.500391 14.689453 53.400391 L 21 52.289062 L 21 71.990234 C 21 72.710234 21.080234 73.410078 21.240234 74.080078 L 18.419922 74.580078 C 14.609922 75.250078 10.980547 72.710391 10.310547 68.900391 L 4.4101562 35.419922 C 3.7401562 31.609922 6.2798437 27.980547 10.089844 27.310547 L 20.980469 25.394531 L 20.980469 25.380859 z M 75.009766 25.390625 L 85.919922 27.310547 C 89.729922 27.980547 92.269609 31.609922 91.599609 35.419922 L 85.699219 68.900391 C 85.029219 72.710391 81.399844 75.250078 77.589844 74.580078 L 74.769531 74.080078 C 74.929531 73.410078 75.009766 72.710234 75.009766 71.990234 L 75.009766 52.289062 L 81.320312 53.400391 C 81.860313 53.500391 82.380469 53.129844 82.480469 52.589844 C 82.580469 52.049844 82.209922 51.529688 81.669922 51.429688 L 75.019531 50.259766 L 75 50.269531 L 75 44.179688 L 82.699219 45.539062 C 83.239219 45.639063 83.759375 45.270469 83.859375 44.730469 C 83.959375 44.190469 83.590781 43.670312 83.050781 43.570312 L 75.009766 42.150391 L 75.009766 37.070312 L 83.919922 38.640625 C 84.459922 38.740625 84.980078 38.370078 85.080078 37.830078 C 85.180078 37.290078 84.809531 36.769922 84.269531 36.669922 L 75.009766 35.039062 L 75.009766 25.390625 z M 61.25 40 C 58.63 40 56.5 42.13 56.5 44.75 L 56.5 67.25 C 56.5 69.87 58.63 72 61.25 72 C 63.87 72 66 69.87 66 67.25 L 66 44.75 C 66 42.13 63.87 40 61.25 40 z M 61.25 42 C 62.77 42 64 43.23 64 44.75 L 64 67.25 C 64 68.77 62.77 70 61.25 70 C 59.73 70 58.5 68.77 58.5 67.25 L 58.5 44.75 C 58.5 43.23 59.73 42 61.25 42 z M 46.75 51 C 44.13 51 42 53.13 42 55.75 L 42 67.25 C 42 69.87 44.13 72 46.75 72 C 49.37 72 51.5 69.87 51.5 67.25 L 51.5 55.75 C 51.5 53.13 49.37 51 46.75 51 z M 46.75 53 C 48.27 53 49.5 54.23 49.5 55.75 L 49.5 67.25 C 49.5 68.77 48.27 70 46.75 70 C 45.23 70 44 68.77 44 67.25 L 44 55.75 C 44 54.23 45.23 53 46.75 53 z M 32.75 58 C 30.13 58 28 60.13 28 62.75 L 28 67.25 C 28 69.87 30.13 72 32.75 72 C 35.37 72 37.5 69.87 37.5 67.25 L 37.5 62.75 C 37.5 60.13 35.37 58 32.75 58 z M 32.75 60 C 34.27 60 35.5 61.23 35.5 62.75 L 35.5 67.25 C 35.5 68.77 34.27 70 32.75 70 C 31.23 70 30 68.77 30 67.25 L 30 62.75 C 30 61.23 31.23 60 32.75 60 z " />
  <path
        part="highlight" fill="cadetblue"

     d="M 61.25 42 C 59.73 42 58.5 43.23 58.5 44.75 L 58.5 67.25 C 58.5 68.77 59.73 70 61.25 70 C 62.77 70 64 68.77 64 67.25 L 64 44.75 C 64 43.23 62.77 42 61.25 42 z M 46.75 53 C 45.23 53 44 54.23 44 55.75 L 44 67.25 C 44 68.77 45.23 70 46.75 70 C 48.27 70 49.5 68.77 49.5 67.25 L 49.5 55.75 C 49.5 54.23 48.27 53 46.75 53 z M 32.75 60 C 31.23 60 30 61.23 30 62.75 L 30 67.25 C 30 68.77 31.23 70 32.75 70 C 34.27 70 35.5 68.77 35.5 67.25 L 35.5 62.75 C 35.5 61.23 34.27 60 32.75 60 z " />
</svg>
