<?xml version="1.0" encoding="UTF-8" standalone="no"?>
<svg xmlns="http://www.w3.org/2000/svg" viewBox="0 0 136 136" height="136" width="136">
  <path part="background" fill="silver"
    d="M120.65,33.41l-19.18,11.07c-.6.35-1.36.14-1.71-.46-.35-.6-.14-1.36.46-1.71l19-10.97c-6.78-9.46-16.11-16.97-27-21.51l-3.87,24.46c-.11.68-.75,1.15-1.43,1.04-.68-.11-1.15-.75-1.04-1.43l3.96-25.01c-6.8-2.52-14.16-3.89-21.84-3.89C33.21,5,5,33.21,5,68s28.21,63,63,63,63-28.21,63-63c0-12.78-3.82-24.66-10.35-34.59ZM103.4,51.08l11.99-.42c.69-.02,1.27.52,1.29,1.21.02.69-.52,1.27-1.21,1.29l-11.99.42c-.69.02-1.27-.52-1.29-1.21s.52-1.27,1.21-1.29ZM93.35,36.02l6.36-10.18c.37-.59,1.14-.76,1.72-.4.59.37.76,1.14.4,1.72l-6.36,10.18c-.37.59-1.14.76-1.72.4s-.76-1.14-.4-1.72ZM98.93,78.79c-13.87-3.25-33.73,1.07-52.26,11.77-.29.17-.57.33-.85.5l-1.09.64h0s-2.42,1.38-2.42,1.38l2.38,13.47c.48,2.72-1.34,5.31-4.06,5.79-2.72.48-5.31-1.34-5.79-4.06l-1.74-9.89-.27.16c-6.34,3.66-14.44,1.49-18.1-4.85-3.66-6.34-1.49-14.44,4.85-18.1l11.91-6.87h0s1.1-.63,1.1-.63c.29-.16.57-.33.86-.49h0c18.53-10.7,32.2-25.74,36.32-39.37l.84-2.76,12.09,20.94c3.31-1.76,7.45-.6,9.34,2.68,1.89,3.27.83,7.44-2.35,9.43l12.09,20.94-2.81-.66ZM128.66,71.5l-27.07-10.39c-.64-.25-.97-.97-.72-1.61.25-.64.97-.97,1.61-.72l27.07,10.39c.64.25.97.97.72,1.61-.25.64-.97.97-1.61.72Z" />
  <path part="highlight" fill="cadetblue"
    d="M70.94,28.6c-4.11,13.61-17.65,28.98-36.9,40.1-.29.17-.58.33-.87.5l12,20.79c.29-.17.57-.34.86-.5,19.25-11.11,39.33-15.15,53.17-11.91l-28.28-48.97ZM63.98,55.63c-2.45,3.11-11.51,11.37-15.68,13.77-.6.35-1.36.14-1.71-.46-.35-.6-.14-1.36.46-1.71,3.87-2.24,12.7-10.28,14.96-13.15.43-.54,1.21-.64,1.76-.21.54.43.64,1.21.21,1.76Z" />
  <path part="outline" fill="black"
    d="M 91.597656 4.2050781 C 91.018105 4.2306445 90.516172 4.6647656 90.419922 5.2597656 L 85.880859 33.900391 C 85.770859 34.580391 86.239922 35.220078 86.919922 35.330078 C 87.599922 35.440078 88.239609 34.969062 88.349609 34.289062 L 92.890625 5.6503906 C 93.000625 4.9703906 92.529609 4.3307031 91.849609 4.2207031 C 91.764609 4.2069531 91.680449 4.2014258 91.597656 4.2050781 z M 100.72852 25.263672 C 100.32881 25.277441 99.942188 25.480859 99.710938 25.849609 L 93.349609 36.029297 C 92.989609 36.609297 93.17 37.39 93.75 37.75 C 94.33 38.11 95.100703 37.939609 95.470703 37.349609 L 101.83008 27.169922 C 102.19008 26.589922 102.00969 25.809219 101.42969 25.449219 C 101.21219 25.314219 100.96834 25.25541 100.72852 25.263672 z M 70.570312 25.470703 L 70.570312 25.480469 L 69.730469 28.240234 C 65.691676 41.601582 52.475172 56.318033 34.5 66.972656 L 34.5 66.970703 L 32.328125 68.224609 L 31.449219 68.720703 L 31.455078 68.730469 L 19.560547 75.599609 C 13.220547 79.259609 11.050936 87.359219 14.710938 93.699219 C 18.370937 100.03922 26.470547 102.21078 32.810547 98.550781 L 33.087891 98.390625 L 34.830078 108.28906 C 35.310078 111.00906 37.899141 112.82961 40.619141 112.34961 C 43.339141 111.86961 45.159686 109.28055 44.679688 106.56055 L 42.298828 93.076172 L 44.710938 91.683594 L 44.720703 91.699219 L 45.810547 91.060547 C 46.090547 90.890547 46.370156 90.730547 46.660156 90.560547 C 65.190156 79.860547 85.049922 75.539063 98.919922 78.789062 L 101.73047 79.449219 L 89.654297 58.53125 C 92.838034 56.544945 93.897966 52.377025 92 49.099609 C 90.112305 45.82304 85.977014 44.650616 82.662109 46.416016 L 70.570312 25.470703 z M 125.92188 27.650391 C 125.72051 27.655579 125.51758 27.710938 125.33008 27.820312 L 100.2207 42.320312 C 99.620706 42.670313 99.409766 43.429297 99.759766 44.029297 C 100.10977 44.629297 100.8707 44.840234 101.4707 44.490234 L 126.58008 29.990234 C 127.18008 29.640234 127.38906 28.879297 127.03906 28.279297 C 126.79844 27.866797 126.36485 27.638977 125.92188 27.650391 z M 71.226562 31.607422 L 96.740234 75.800781 L 96.529297 75.769531 C 82.523751 73.588908 63.961059 77.931362 46.496094 87.755859 L 35.744141 69.136719 C 52.99631 58.920726 66.027213 45.015248 71.150391 31.800781 L 71.226562 31.607422 z M 85.976562 48.085938 C 87.516088 48.09957 89.009018 48.904176 89.839844 50.339844 C 91.038494 52.418149 90.395592 55.056612 88.400391 56.359375 L 83.90625 48.572266 C 84.567149 48.237002 85.276778 48.07974 85.976562 48.085938 z M 115.39062 50.660156 L 103.40039 51.080078 C 102.71039 51.100078 102.16945 51.679141 102.18945 52.369141 C 102.20945 53.059141 102.79047 53.600078 103.48047 53.580078 L 115.4707 53.160156 C 116.1607 53.140156 116.69969 52.559141 116.67969 51.869141 C 116.65969 51.179141 116.08062 50.640156 115.39062 50.660156 z M 62.974609 53.601562 C 62.614478 53.610857 62.261406 53.776328 62.019531 54.080078 C 59.759531 56.950078 50.930547 64.990469 47.060547 67.230469 C 46.460547 67.580469 46.249609 68.339453 46.599609 68.939453 C 46.949609 69.539453 47.710547 69.750391 48.310547 69.400391 C 52.480547 67.000391 61.540234 58.740859 63.990234 55.630859 C 64.420234 55.080859 64.319297 54.299141 63.779297 53.869141 C 63.538672 53.681016 63.254712 53.594333 62.974609 53.601562 z M 102.00391 58.697266 C 101.51969 58.714609 101.06836 59.02 100.88086 59.5 C 100.63086 60.14 100.95961 60.859375 101.59961 61.109375 L 128.66992 71.5 C 129.30992 71.75 130.0293 71.419297 130.2793 70.779297 C 130.5293 70.139297 130.20055 69.419922 129.56055 69.169922 L 102.49023 58.779297 C 102.33023 58.716797 102.16531 58.691484 102.00391 58.697266 z M 32.708984 70.902344 L 43.458984 89.513672 L 31.560547 96.390625 C 26.420547 99.360625 19.850859 97.600938 16.880859 92.460938 L 16.740234 92.210938 C 13.960234 87.110938 15.750547 80.699297 20.810547 77.779297 L 32.708984 70.902344 z M 40 94.402344 L 42.220703 106.99023 C 42.460703 108.35023 41.549453 109.65062 40.189453 109.89062 C 38.829453 110.13062 37.529063 109.21937 37.289062 107.85938 L 35.388672 97.0625 L 40 94.402344 z " />
</svg>