<?xml version="1.0" encoding="UTF-8" standalone="no"?>
<svg
   width="89px"
   height="98px"
   viewBox="0 0 89 98"
   version="1.1"
   id="svg5"
   sodipodi:docname="MIV,XL.svg"
   inkscape:version="1.4.2 (ebf0e940, 2025-05-08)"
   xmlns:inkscape="http://www.inkscape.org/namespaces/inkscape"
   xmlns:sodipodi="http://sodipodi.sourceforge.net/DTD/sodipodi-0.dtd"
   xmlns:xlink="http://www.w3.org/1999/xlink"
   xmlns="http://www.w3.org/2000/svg"
   xmlns:svg="http://www.w3.org/2000/svg">
  <sodipodi:namedview
     id="namedview5"
     pagecolor="#ffffff"
     bordercolor="#000000"
     borderopacity="0.25"
     inkscape:showpageshadow="2"
     inkscape:pageopacity="0.0"
     inkscape:pagecheckerboard="0"
     inkscape:deskcolor="#d1d1d1"
     inkscape:zoom="9.3483146"
     inkscape:cx="44.446514"
     inkscape:cy="48.992788"
     inkscape:window-width="3440"
     inkscape:window-height="1359"
     inkscape:window-x="1440"
     inkscape:window-y="761"
     inkscape:window-maximized="0"
     inkscape:current-layer="Group-2" />
  <title
     id="title1">Group</title>
  <defs
     id="defs1">
    <path
       d="M0,4.034 L0,5.042 L0,7.841 L0,10.084 C0,12.311 4.179,14.117 9.331,14.117 L9.331,14.117 C14.485,14.117 18.662,12.311 18.662,10.084 L18.662,10.084 L18.662,7.841 L18.662,6.134 L18.662,4.034 C18.662,1.805 14.485,0 9.331,0 L9.331,0 C4.179,0 0,1.805 0,4.034 L0,4.034 Z"
       id="path-1" />
    <path
       d="M0,4.034 L0,5.042 L0,7.841 L0,10.084 C0,12.312 4.179,14.117 9.331,14.117 L9.331,14.117 C14.485,14.117 18.662,12.312 18.662,10.084 L18.662,10.084 L18.662,7.841 L18.662,6.134 L18.662,4.034 C18.662,1.805 14.485,0 9.331,0 L9.331,0 C4.179,0 0,1.805 0,4.034 L0,4.034 Z"
       id="path-3" />
    <path
       d="M0,4.033 C0,6.26 4.179,8.066 9.331,8.066 L9.331,8.066 C14.486,8.066 18.662,6.26 18.662,4.033 L18.662,4.033 C18.662,1.805 14.486,0 9.331,0 L9.331,0 C4.179,0 0,1.805 0,4.033 L0,4.033 Z"
       id="path-5" />
    <path
       d="M6.5875392,2.06 C2.0275392,4.462 -0.825460798,8.008 0.213539202,9.98 L0.213539202,9.98 L0.683539202,10.87 L1.9895392,13.346 L3.0345392,15.331 C4.0735392,17.303 8.6115392,16.95 13.1705392,14.548 L13.1705392,14.548 C17.7285392,12.146 20.5815392,8.6 19.5435392,6.628 L19.5435392,6.628 L18.4975392,4.645 L17.7015392,3.133 L16.7215392,1.277 C16.2685392,0.418 15.1535392,0 13.6625392,0 L13.6625392,0 C11.7285392,0 9.1615392,0.703 6.5875392,2.06 L6.5875392,2.06 Z"
       id="path-7" />
    <path
       d="M6.58853652,2.058 C2.02753652,4.463 -0.825463477,8.007 0.213536523,9.978 L0.213536523,9.978 C1.25153652,11.95 5.78953652,11.598 10.3495365,9.195 L10.3495365,9.195 C14.9065365,6.793 17.7595365,3.247 16.7225365,1.276 L16.7225365,1.276 C16.2695365,0.418 15.1535365,0 13.6615365,0 L13.6615365,0 C11.7275365,0 9.16053652,0.702 6.58853652,2.058 L6.58853652,2.058 Z"
       id="path-9" />
    <mask
       id="mask-10"
       fill="white">
      <use
         xlink:href="#path-9"
         id="use5" />
    </mask>
    <mask
       id="mask-8"
       fill="white">
      <use
         xlink:href="#path-7"
         id="use4" />
    </mask>
    <mask
       id="mask-6"
       fill="white">
      <use
         xlink:href="#path-5"
         id="use3" />
    </mask>
    <mask
       id="mask-2"
       fill="white">
      <use
         xlink:href="#path-1"
         id="use1" />
    </mask>
    <mask
       id="mask-4"
       fill="white">
      <use
         xlink:href="#path-3"
         id="use2" />
    </mask>
  </defs>
  <g
     id="Page-1"
     stroke="none"
     stroke-width="1"
     fill="none"
     fill-rule="evenodd">
    <g
       id="Månedsopsparing-ikon"
       transform="translate(-607, -748)">
      <g
         id="Group-2"
         transform="translate(607.5687, 749)">
        <g
           id="g5">
          <path
             id="Fill-197"
             d="M 32.034816 10.615234 C 30.929816 10.615234 30.034816 11.511234 30.034816 12.615234 L 30.034816 25.722656 L 51.470362 25.722656 L 51.470362 12.615234 C 51.470362 11.511234 50.575362 10.615234 49.470362 10.615234 L 32.034816 10.615234 z "
             style="fill:#c0c0c0;fill-opacity:0.42153847" />
          <path
             id="Fill-199"
             d="M 1.9996594 20.75 C 0.89465937 20.75 -0.000340625 21.645 -0.000340625 22.75 L -0.000340625 58.917969 C -0.000340625 60.022969 0.89465937 60.917969 1.9996594 60.917969 L 16.665675 60.917969 C 16.329119 59.961971 16.146144 58.932539 16.146144 57.861328 L 16.146144 34.919922 C 16.146144 31.23844 18.309224 28.061027 21.435206 26.591797 L 21.435206 22.75 C 21.435206 21.645 20.540206 20.75 19.435206 20.75 L 1.9996594 20.75 z "
             style="fill:#c0c0c0;fill-opacity:0.42153847" />
          <path
             id="Fill-201"
             d="M 62.069972 0.83984375 C 60.964972 0.83984375 60.069972 1.7358437 60.069972 2.8398438 L 60.069972 26.222656 C 63.676501 27.466776 66.265284 30.892057 66.265284 34.919922 L 66.265284 57.861328 C 66.265284 58.932539 66.082309 59.961971 65.745753 60.917969 L 79.505519 60.917969 C 80.610519 60.917969 81.505519 60.022969 81.505519 58.917969 L 81.505519 2.8398438 C 81.505519 1.7358437 80.610519 0.83984375 79.505519 0.83984375 L 62.069972 0.83984375 z "
             style="fill:#c0c0c0;fill-opacity:0.42153847" />
          <path
             id="Stroke-205"
             style="baseline-shift:baseline;display:inline;overflow:visible;opacity:1;vector-effect:none;fill:#000000;fill-rule:nonzero;stroke-linecap:round;stroke-linejoin:round;enable-background:accumulate;stop-color:#000000;stop-opacity:1"
             d="m 21.484034,-1 a 1,1 0 0 0 -0.259765,0.0292969 1,1 0 0 0 -0.615235,0.45507812 1,1 0 0 0 0.341797,1.37304688 l 4.457031,2.6796875 c -0.932244,0.1428958 -1.859289,0.3317162 -2.773437,0.5664062 -1.077824,0.2769768 -2.139234,0.6193042 -3.175781,1.0175782 a 1.0001,1.0001 0 0 0 -0.002,0 c -1.038486,0.4017456 -2.05445,0.8639272 -3.039063,1.3847656 a 1,1 0 0 0 -0.416016,1.3515625 1,1 0 0 0 1.351563,0.4160156 C 18.265801,7.7906784 19.210772,7.362315 20.177394,6.9882812 21.144847,6.6165553 22.132296,6.2980389 23.132472,6.0410156 24.08931,5.7953661 25.060731,5.6044222 26.038722,5.4667969 l -2.785156,4.6347651 a 1,1 0 0 0 0.341796,1.371094 1,1 0 0 0 1.371094,-0.341797 L 28.952784,4.5019531 A 1.0001,1.0001 0 0 0 28.610987,3.1289062 L 21.982081,-0.85742188 A 1,1 0 0 0 21.484034,-1 Z m -9.953125,11.044922 a 1,1 0 0 0 -0.59375,0.251953 c -0.831782,0.739247 -1.618783,1.533227 -2.3535153,2.375 a 1,1 0 0 0 0.095703,1.412109 1,1 0 0 0 1.4121093,-0.0957 c 0.679268,-0.778227 1.407563,-1.514512 2.175781,-2.197265 a 1,1 0 0 0 0.08203,-1.41211 1,1 0 0 0 -0.6875,-0.333984 1,1 0 0 0 -0.13086,0 z M 4.9684094,17.78125 A 1,1 0 0 0 4.1109875,18.296875 C 2.2694774,21.62371 1.2418773,25.386261 1.1363781,29.189453 a 1,1 0 0 0 0.9707031,1.027344 1,1 0 0 0 1.0273438,-0.972656 c 0.096501,-3.478809 1.0420727,-6.937304 2.7265625,-9.980469 a 1,1 0 0 0 -0.390625,-1.357422 1,1 0 0 0 -0.5019531,-0.125 z m 25.0429686,3.076172 a 1,1 0 0 0 -1,1 v 2.865234 h -3.667969 c -5.620551,0 -10.197265,4.578764 -10.197265,10.197266 v 22.941406 c 0,5.620289 4.576976,10.197266 10.197265,10.197266 h 31.72461 c 5.620289,0 10.197265,-4.576977 10.197265,-10.197266 V 37.724609 a 1,1 0 0 0 0.002,-0.0625 1,1 0 0 0 -0.002,-0.0625 v -2.679687 c 0,-5.618502 -4.576713,-10.197266 -10.197265,-10.197266 h -3.001953 v -2.826172 a 1,1 0 0 0 -1,-1 1,1 0 0 0 -1,1 v 2.826172 H 31.011378 v -2.865234 a 1,1 0 0 0 -1,-1 z m -4.667969,5.865234 h 3.667969 v 1.828125 a 1,1 0 0 0 1,1 1,1 0 0 0 1,-1 v -1.828125 h 21.054688 v 1.867188 a 1,1 0 0 0 1,1 1,1 0 0 0 1,-1 v -1.867188 h 3.001953 c 4.539449,0 8.197265,3.659767 8.197265,8.197266 v 1.742187 h -48.11914 v -1.742187 c 0,-4.537499 3.657816,-8.197266 8.197265,-8.197266 z m -8.197265,11.939453 h 48.11914 v 19.199219 c 0,4.539711 -3.657553,8.197266 -8.197265,8.197266 h -31.72461 c -4.539711,0 -8.197265,-3.657555 -8.197265,-8.197266 z m 69.771484,30.15625 a 1,1 0 0 0 -1.025391,0.828125 c -1.716457,9.90361 -6.799316,13.498445 -12.373046,17.140625 -0.76222,0.498538 -1.721824,0.844007 -2.746094,1.240235 -0.964282,0.373395 -1.951199,0.68784 -2.953125,0.945312 a 1.0001,1.0001 0 0 0 -0.002,0 c -0.917879,0.237413 -1.848997,0.42462 -2.785157,0.558594 L 67.8043,84.921875 a 1,1 0 0 0 -0.341797,-1.373047 1,1 0 0 0 -1.373047,0.341797 l -3.986328,6.630859 a 1.0001,1.0001 0 0 0 0.341797,1.371094 l 6.630859,3.986328 a 1,1 0 0 0 1.373047,-0.341797 1,1 0 0 0 -0.341797,-1.371093 L 65.6168,91.466797 c 0.908411,-0.140122 1.811221,-0.326517 2.701172,-0.556641 1.076075,-0.276527 2.138016,-0.614973 3.177734,-1.017578 0.981223,-0.379576 2.081877,-0.754842 3.117188,-1.43164 5.62827,-3.677819 11.430458,-7.974266 13.25,-18.472657 a 1,1 0 0 0 -0.816407,-1.15625 1,1 0 0 0 -0.128906,-0.01367 z" />
        </g>
        <line
           x1="16.145901"
           y1="37.661499"
           x2="66.266899"
           y2="37.661499"
           id="Fill-207"
           fill="#ffffff"
           style="display:inline" />
        <line
           x1="30.011101"
           y1="21.8573"
           x2="30.011101"
           y2="28.5513"
           id="Fill-211"
           fill="#ffffff"
           style="display:inline" />
        <line
           x1="53.065701"
           y1="21.895901"
           x2="53.065701"
           y2="28.589899"
           id="Fill-215"
           fill="#ffffff"
           style="display:inline" />
        <g
           id="Clip-221"
           transform="translate(56.9253,57.1623)"
           style="display:inline" />
        <polygon
           id="Fill-220"
           fill="#ffffff"
           mask="url(#mask-2)"
           points="20.904,-2.243 -2.243,-2.243 -2.243,16.36 20.904,16.36 "
           transform="translate(56.9253,57.1623)"
           style="display:inline" />
        <polygon
           id="Stroke-222"
           stroke="#000000"
           stroke-width="2"
           mask="url(#mask-2)"
           points="20.904,-2.243 -2.243,-2.243 -2.243,16.36 20.904,16.36 "
           transform="translate(56.9253,57.1623)"
           style="display:inline" />
        <path
           d="m 56.9253,67.2463 c 0,2.227 4.179,4.033 9.331,4.033 5.154,0 9.33,-1.806 9.33,-4.033 v -2.243 -1.707 -2.099 c 0,-2.23 -4.176,-4.035 -9.33,-4.035 -5.152,0 -9.331,1.805 -9.331,4.035 v 1.007 2.799 z"
           id="Stroke-224"
           style="display:inline;stroke:#000000;stroke-width:2" />
        <path
           style="baseline-shift:baseline;display:inline;overflow:visible;opacity:1;vector-effect:none;fill:#000000;fill-rule:nonzero;stroke-linecap:round;stroke-linejoin:round;enable-background:accumulate;stop-color:#000000;stop-opacity:1"
           d="m 66.255859,56.162109 c -2.692783,0 -5.135291,0.460143 -6.99414,1.263672 -0.929425,0.401765 -1.718693,0.888915 -2.31836,1.501953 -0.599666,0.613039 -1.017578,1.3997 -1.017578,2.269532 v 1.007812 2.798828 2.242188 c 0,0.869502 0.417933,1.656931 1.017578,2.269531 0.599646,0.6126 1.388993,1.098329 2.31836,1.5 1.858734,0.803342 4.301293,1.263672 6.99414,1.263672 2.693803,0 5.135822,-0.460272 6.994141,-1.263672 0.92916,-0.4017 1.718975,-0.887343 2.318359,-1.5 0.599384,-0.612657 1.017579,-1.400253 1.017578,-2.269531 v -2.242188 -1.707031 -2.099609 c 0,-0.869608 -0.418173,-1.656436 -1.017578,-2.269532 C 74.968954,58.314639 74.179217,57.827575 73.25,57.425781 71.391565,56.622193 68.949597,56.162109 66.255859,56.162109 Z m 0,2 c 2.460263,0 4.683107,0.443198 6.201172,1.09961 0.759033,0.328206 1.336983,0.70997 1.681641,1.0625 0.344657,0.352529 0.447265,0.627654 0.447265,0.873047 v 2.099609 1.707031 2.242188 c 0,0.244222 -0.102587,0.518782 -0.447265,0.871093 -0.344679,0.352312 -0.92255,0.734326 -1.681641,1.0625 -1.518181,0.65635 -3.740974,1.09961 -6.201172,1.09961 -2.459152,0 -4.682406,-0.443202 -6.201172,-1.09961 -0.759382,-0.328203 -1.336723,-0.710131 -1.68164,-1.0625 -0.344917,-0.352368 -0.447266,-0.627096 -0.447266,-0.871093 v -2.242188 -2.798828 -1.007812 c 0,-0.245169 0.10237,-0.518508 0.447266,-0.871094 0.344896,-0.352587 0.922315,-0.736218 1.68164,-1.064453 1.518651,-0.656471 3.741956,-1.09961 6.201172,-1.09961 z"
           id="Stroke-226" />
        <g
           id="Clip-230"
           transform="translate(56.9253,51.3573)"
           style="display:inline" />
        <polygon
           id="Fill-229"
           fill="#ffffff"
           mask="url(#mask-4)"
           points="20.904,-2.243 -2.243,-2.243 -2.243,16.36 20.904,16.36 "
           transform="translate(56.9253,51.3573)"
           style="display:inline" />
        <polygon
           id="Stroke-231"
           stroke="#000000"
           stroke-width="2"
           mask="url(#mask-4)"
           points="20.904,-2.243 -2.243,-2.243 -2.243,16.36 20.904,16.36 "
           transform="translate(56.9253,51.3573)"
           style="display:inline" />
        <path
           d="m 56.9253,61.4415 c 0,2.227 4.179,4.033 9.331,4.033 5.154,0 9.33,-1.806 9.33,-4.033 v -2.243 -1.707 -2.099 c 0,-2.23 -4.176,-4.035 -9.33,-4.035 -5.152,0 -9.331,1.805 -9.331,4.035 v 1.007 2.799 z"
           id="Stroke-233"
           style="display:inline;stroke:#000000;stroke-width:2" />
        <path
           style="baseline-shift:baseline;display:inline;overflow:visible;opacity:1;vector-effect:none;fill:#000000;fill-rule:nonzero;stroke-linecap:round;stroke-linejoin:round;enable-background:accumulate;stop-color:#000000;stop-opacity:1"
           d="m 66.255859,50.357422 c -2.692783,0 -5.135291,0.460142 -6.99414,1.263672 -0.929425,0.401764 -1.718693,0.886961 -2.31836,1.5 -0.599666,0.613038 -1.017578,1.401652 -1.017578,2.271484 v 1.007813 2.798828 2.242187 c 0,0.869503 0.417933,1.656931 1.017578,2.269531 0.599646,0.612601 1.388993,1.098329 2.31836,1.5 1.858734,0.803343 4.301293,1.263672 6.99414,1.263672 2.693803,0 5.135822,-0.460271 6.994141,-1.263672 0.92916,-0.4017 1.718975,-0.887342 2.318359,-1.5 0.599384,-0.612657 1.017578,-1.400253 1.017578,-2.269531 v -2.242187 -1.707032 -2.099609 c 0,-0.869607 -0.418173,-1.656436 -1.017578,-2.269531 C 74.968954,52.509951 74.179217,52.022888 73.25,51.621094 71.391565,50.817506 68.949597,50.357422 66.255859,50.357422 Z m 0,2 c 2.460263,0 4.683107,0.443197 6.201172,1.099609 0.759033,0.328206 1.336983,0.709971 1.681641,1.0625 0.344657,0.35253 0.447265,0.627655 0.447265,0.873047 v 2.099609 1.707032 2.242187 c 0,0.244222 -0.102587,0.518783 -0.447265,0.871094 -0.344679,0.352311 -0.92255,0.734325 -1.681641,1.0625 -1.518181,0.65635 -3.740974,1.099609 -6.201172,1.099609 -2.459152,0 -4.682406,-0.443201 -6.201172,-1.099609 -0.759382,-0.328204 -1.336723,-0.710132 -1.68164,-1.0625 -0.344917,-0.352368 -0.447266,-0.627096 -0.447266,-0.871094 v -2.242187 -2.798828 -1.007813 c 0,-0.245168 0.10237,-0.518507 0.447266,-0.871094 0.344896,-0.352586 0.922315,-0.736217 1.68164,-1.064453 1.518651,-0.65647 3.741956,-1.099609 6.201172,-1.099609 z"
           id="Stroke-235" />
        <g
           id="Clip-239"
           transform="translate(56.9443,51.3393)"
           style="display:inline" />
        <polygon
           id="Fill-238"
           fill="#ffffff"
           mask="url(#mask-6)"
           points="20.904,-2.243 -2.243,-2.243 -2.243,10.309 20.904,10.309 "
           transform="translate(56.9443,51.3393)"
           style="display:inline" />
        <polygon
           id="Stroke-240"
           stroke="#000000"
           stroke-width="2"
           mask="url(#mask-6)"
           points="20.904,-2.243 -2.243,-2.243 -2.243,10.309 20.904,10.309 "
           transform="translate(56.9443,51.3393)"
           style="display:inline" />
        <path
           d="m 56.9446,55.3718 c 0,2.227 4.179,4.033 9.331,4.033 5.154,0 9.33,-1.806 9.33,-4.033 0,-2.227 -4.176,-4.033 -9.33,-4.033 -5.152,0 -9.331,1.806 -9.331,4.033"
           id="Stroke-242"
           stroke="#000000"
           stroke-width="2"
           style="display:inline" />
        <path
           d="m 56.9446,55.3718 c 0,2.227 4.179,4.033 9.331,4.033 5.154,0 9.33,-1.806 9.33,-4.033 0,-2.227 -4.176,-4.033 -9.33,-4.033 -5.152,0 -9.331,1.806 -9.331,4.033"
           id="Fill-244"
           fill="#6ae4a0"
           style="display:inline" />
        <path
           style="baseline-shift:baseline;display:inline;overflow:visible;opacity:1;vector-effect:none;fill:#000000;fill-rule:nonzero;enable-background:accumulate;stop-color:#000000;stop-opacity:1"
           d="m 66.275391,50.337891 c -2.692848,0 -5.135407,0.460329 -6.994141,1.263671 -0.929367,0.401672 -1.718714,0.889353 -2.318359,1.501954 -0.599646,0.6126 -1.017579,1.398075 -1.017579,2.267578 10e-7,0.869502 0.417933,1.656931 1.017579,2.269531 0.599645,0.6126 1.388992,1.098329 2.318359,1.5 1.858734,0.803342 4.301293,1.263672 6.994141,1.263672 2.693802,0 5.135821,-0.460272 6.99414,-1.263672 0.92916,-0.4017 1.718976,-0.887343 2.31836,-1.5 0.599384,-0.612657 1.017578,-1.400253 1.017578,-2.269531 0,-0.869278 -0.418194,-1.654921 -1.017578,-2.267578 -0.599384,-0.612658 -1.3892,-1.100253 -2.31836,-1.501954 -1.858319,-0.8034 -4.300338,-1.263671 -6.99414,-1.263671 z m 0,2 c 2.460197,0 4.682991,0.443259 6.201171,1.099609 0.759091,0.328175 1.336963,0.712142 1.681641,1.064453 0.344679,0.352312 0.447266,0.624919 0.447266,0.869141 0,0.244222 -0.102587,0.518782 -0.447266,0.871093 -0.344678,0.352312 -0.92255,0.734326 -1.681641,1.0625 -1.51818,0.65635 -3.740974,1.09961 -6.201171,1.09961 -2.459153,0 -4.682407,-0.443202 -6.201172,-1.09961 -0.759383,-0.328203 -1.336724,-0.710131 -1.681641,-1.0625 -0.344917,-0.352368 -0.447265,-0.627096 -0.447266,-0.871093 0,-0.243998 0.102349,-0.516772 0.447266,-0.869141 0.344917,-0.352368 0.922258,-0.736249 1.681641,-1.064453 1.518765,-0.656408 3.742019,-1.099609 6.201172,-1.099609 z"
           id="Stroke-246" />
        <g
           id="Clip-250"
           transform="translate(35.4238,56.9213)"
           style="display:inline" />
        <polygon
           id="Fill-249"
           fill="#ffffff"
           mask="url(#mask-8)"
           points="22.824539,-2.938 -3.0684608,-2.938 -3.0684608,19.545 22.824539,19.545 "
           transform="translate(35.4238,56.9213)"
           style="display:inline" />
        <polygon
           id="Stroke-251"
           stroke="#000000"
           stroke-width="2"
           mask="url(#mask-8)"
           points="22.824539,-2.938 -3.0684608,-2.938 -3.0684608,19.545 22.824539,19.545 "
           transform="translate(35.4238,56.9213)"
           style="display:inline" />
        <path
           d="m 38.458578,72.252438 c 1.038,1.972 5.576,1.619 10.136,-0.783 4.558,-2.402 7.411,-5.948 6.372,-7.92 l -1.045,-1.982 -0.796,-1.512 -0.98,-1.857 c -1.039,-1.972 -5.576,-1.62 -10.134,0.782 -4.56,2.403 -7.413,5.949 -6.375,7.92 l 0.471,0.891 1.306,2.476 z"
           id="Stroke-253"
           style="display:inline;stroke:#000000;stroke-width:2" />
        <path
           style="baseline-shift:baseline;display:inline;overflow:visible;opacity:1;vector-effect:none;fill:#000000;fill-rule:nonzero;stroke-linecap:round;stroke-linejoin:round;enable-background:accumulate;stop-color:#000000;stop-opacity:1"
           d="m 48.320312,55.953125 c -2.018616,0.15603 -4.393148,0.887171 -6.77539,2.142578 -2.383381,1.255979 -4.329951,2.801327 -5.59961,4.378906 -0.634829,0.78879 -1.104895,1.588531 -1.349609,2.410157 -0.244714,0.821626 -0.248861,1.713179 0.15625,2.482421 l 0.470703,0.890625 1.306641,2.476563 1.044922,1.984375 c 0.405114,0.76964 1.142815,1.270711 1.958984,1.533203 0.816169,0.262492 1.740541,0.324242 2.75,0.246094 2.018919,-0.156296 4.394195,-0.889197 6.777344,-2.144531 2.382423,-1.255503 4.32835,-2.801252 5.597656,-4.378907 0.634653,-0.788827 1.105106,-1.586392 1.349609,-2.408203 0.244504,-0.821811 0.249087,-1.713102 -0.15625,-2.482422 l -1.044921,-1.982422 -0.796875,-1.511718 a 1.0001,1.0001 0 0 0 0,-0.002 l -0.980469,-1.855469 h 0.002 c -0.405372,-0.769388 -1.144817,-1.270614 -1.960938,-1.533203 -0.81612,-0.262589 -1.740691,-0.324109 -2.75,-0.246094 z m 0.154297,1.992187 c 0.824567,-0.06374 1.515152,0.0072 1.984375,0.158204 0.469224,0.150973 0.688607,0.343934 0.802735,0.560546 a 1.0001,1.0001 0 0 0 0,0.002 l 0.978515,1.855468 0.796875,1.511719 1.044922,1.982422 c 0.114164,0.21668 0.150418,0.507717 0.0098,0.980469 -0.140652,0.472751 -0.473716,1.080186 -0.992188,1.724609 -1.036943,1.288845 -2.795126,2.716784 -4.970703,3.863281 -2.17685,1.146666 -4.350419,1.792219 -6,1.919922 -0.82479,0.06385 -1.515232,-0.0054 -1.984375,-0.15625 -0.469143,-0.150883 -0.686896,-0.344187 -0.800781,-0.560547 L 38.298862,69.800827 36.992221,67.324265 36.521518,66.43364 c -0.113889,-0.216258 -0.150551,-0.505829 -0.0098,-0.978516 0.140785,-0.472686 0.473516,-1.082102 0.992187,-1.726562 1.037342,-1.288921 2.797991,-2.716261 4.97461,-3.863282 2.175757,-1.146592 4.34696,-1.792451 5.996093,-1.919922 z"
           id="Stroke-255" />
        <g
           id="Clip-259"
           transform="translate(35.4318,56.8963)"
           style="display:inline" />
        <polygon
           id="Fill-258"
           fill="#ffffff"
           mask="url(#mask-10)"
           points="20.002537,-2.937 -3.0684635,-2.937 -3.0684635,14.193 20.002537,14.193 "
           transform="translate(35.4318,56.8963)"
           style="display:inline" />
        <polygon
           id="Stroke-260"
           stroke="#000000"
           stroke-width="2"
           mask="url(#mask-10)"
           points="20.002537,-2.937 -3.0684635,-2.937 -3.0684635,14.193 20.002537,14.193 "
           transform="translate(35.4318,56.8963)"
           style="display:inline" />
        <path
           d="m 35.6452,66.8742 c 1.039,1.972 5.576,1.619 10.136,-0.783 4.558,-2.402 7.411,-5.948 6.372,-7.92 -1.038,-1.969 -5.576,-1.619 -10.133,0.783 -4.56,2.405 -7.413,5.948 -6.375,7.92"
           id="Stroke-262"
           style="display:inline;stroke:#000000;stroke-width:2" />
        <path
           style="baseline-shift:baseline;display:inline;overflow:visible;opacity:1;vector-effect:none;fill:#000000;fill-rule:nonzero;stroke-linecap:round;stroke-linejoin:round;enable-background:accumulate;stop-color:#000000;stop-opacity:1"
           d="m 48.330078,55.925781 c -2.018495,0.155883 -4.393486,0.889027 -6.775391,2.144531 a 1.0001,1.0001 0 0 0 -0.002,0 c -2.38311,1.256882 -4.327992,2.801734 -5.597656,4.378907 -0.634832,0.788586 -1.106825,1.586637 -1.351562,2.408203 -0.244738,0.821566 -0.248684,1.713126 0.15625,2.482422 0.405388,0.769418 1.144756,1.270726 1.960937,1.533203 0.816181,0.262476 1.740596,0.324243 2.75,0.246094 2.018809,-0.156299 4.394221,-0.887258 6.777344,-2.142579 2.382423,-1.255502 4.32835,-2.801251 5.597656,-4.378906 0.634653,-0.788827 1.105106,-1.588345 1.349609,-2.410156 0.244504,-0.821811 0.247134,-1.713102 -0.158203,-2.482422 -0.405373,-0.76896 -1.143071,-1.269 -1.958984,-1.53125 -0.815913,-0.26225 -1.738799,-0.325988 -2.748047,-0.248047 z m 0.152344,1.994141 c 0.824627,-0.06368 1.515069,0.0054 1.984375,0.15625 0.468538,0.150597 0.686997,0.34543 0.800781,0.560547 0.114164,0.21668 0.152371,0.507717 0.01172,0.980468 -0.140652,0.472752 -0.473716,1.08214 -0.992188,1.726563 -1.036943,1.288845 -2.797079,2.716784 -4.972656,3.863281 -2.176877,1.14668 -4.348606,1.790267 -5.998047,1.917969 -0.82472,0.06385 -1.51515,-0.0054 -1.984375,-0.15625 -0.469225,-0.150899 -0.688622,-0.343965 -0.802734,-0.560547 -0.114067,-0.216704 -0.148575,-0.507941 -0.0078,-0.980469 0.140763,-0.472527 0.471567,-1.080321 0.990235,-1.724609 1.037336,-1.288577 2.797719,-2.717116 4.974609,-3.865234 2.175096,-1.146496 4.346839,-1.790602 5.996094,-1.917969 z"
           id="Stroke-264" />
      </g>
    </g>
  </g>
</svg>
