<?xml version="1.0" encoding="UTF-8"?>
<svg width="40px" height="45px" viewBox="0 0 40 45" version="1.1" xmlns="http://www.w3.org/2000/svg" xmlns:xlink="http://www.w3.org/1999/xlink">
    <title>Group</title>
    <defs>
        <path d="M0,1.799 L0,2.249 L0,3.496 L0,4.496 C0,5.489 1.863,6.294 4.16,6.294 L4.16,6.294 C6.458,6.294 8.32,5.489 8.32,4.496 L8.32,4.496 L8.32,3.496 L8.32,2.735 L8.32,1.799 C8.32,0.805 6.458,0 4.16,0 L4.16,0 C1.863,0 0,0.805 0,1.799 L0,1.799 Z" id="path-1"></path>
        <path d="M0,1.799 L0,2.248 L0,3.496 L0,4.496 C0,5.489 1.863,6.294 4.16,6.294 L4.16,6.294 C6.458,6.294 8.32,5.489 8.32,4.496 L8.32,4.496 L8.32,3.496 L8.32,2.735 L8.32,1.799 C8.32,0.805 6.458,0 4.16,0 L4.16,0 C1.863,0 0,0.805 0,1.799 L0,1.799 Z" id="path-3"></path>
        <path d="M0,1.798 C0,2.791 1.863,3.596 4.16,3.596 L4.16,3.596 C6.458,3.596 8.32,2.791 8.32,1.798 L8.32,1.798 C8.32,0.805 6.458,0 4.16,0 L4.16,0 C1.863,0 0,0.805 0,1.798 L0,1.798 Z" id="path-5"></path>
        <path d="M2.93712111,0.918 C0.90412111,1.989 -0.36787889,3.571 0.0951211105,4.449 L0.0951211105,4.449 L0.30512111,4.846 L0.88712111,5.95 L1.35312111,6.835 C1.81612111,7.714 3.83912111,7.558 5.87212111,6.487 L5.87212111,6.487 C7.90412111,5.416 9.17612111,3.834 8.71312111,2.955 L8.71312111,2.955 L8.24712111,2.071 L7.89212111,1.397 L7.45512111,0.569 C7.25412111,0.186 6.75612111,0 6.09212111,0 L6.09212111,0 C5.22912111,0 4.08512111,0.313 2.93712111,0.918 L2.93712111,0.918 Z" id="path-7"></path>
        <path d="M2.93712111,0.917 C0.90412111,1.989 -0.36787889,3.569 0.0951211105,4.448 L0.0951211105,4.448 C0.55812111,5.328 2.58012111,5.17 4.61412111,4.099 L4.61412111,4.099 C6.64612111,3.028 7.91712111,1.448 7.45512111,0.568 L7.45512111,0.568 C7.25312111,0.186 6.75612111,0 6.09112111,0 L6.09112111,0 C5.22912111,0 4.08412111,0.313 2.93712111,0.917 L2.93712111,0.917 Z" id="path-9"></path>
    </defs>
    <g id="Page-1" stroke="none" stroke-width="1" fill="none" fill-rule="evenodd">
        <g id="Månedsopsparing-ikon" transform="translate(-231, -788)">
            <g id="Group" transform="translate(231.0158, 788.8048)">
                <path d="M15.3906,27.3792 L20.9476,27.3792 C22.0526,27.3792 22.9476,26.4842 22.9476,25.3792 L22.9476,6.9532 C22.9476,5.8482 22.0526,4.9532 20.9476,4.9532 L15.3906,4.9532 C14.2856,4.9532 13.3906,5.8482 13.3906,6.9532 L13.3906,25.3792 C13.3906,26.4842 14.2856,27.3792 15.3906,27.3792" id="Fill-1" fill="#E7EBEB"></path>
                <path d="M2,27.3792 L7.557,27.3792 C8.662,27.3792 9.557,26.4842 9.557,25.3792 L9.557,11.4712 C9.557,10.3662 8.662,9.4712 7.557,9.4712 L2,9.4712 C0.895,9.4712 0,10.3662 0,11.4712 L0,25.3792 C0,26.4842 0.895,27.3792 2,27.3792" id="Fill-3" fill="#E7EBEB"></path>
                <path d="M28.7812,27.3792 L34.3382,27.3792 C35.4432,27.3792 36.3382,26.4842 36.3382,25.3792 L36.3382,2.5942 C36.3382,1.4902 35.4432,0.5942 34.3382,0.5942 L28.7812,0.5942 C27.6762,0.5942 26.7812,1.4902 26.7812,2.5942 L26.7812,25.3792 C26.7812,26.4842 27.6762,27.3792 28.7812,27.3792" id="Fill-5" fill="#E7EBEB"></path>
                <path d="M25.4436,30.1172 L11.2986,30.1172 C9.0336,30.1172 7.1986,28.2812 7.1986,26.0162 L7.1986,15.7882 C7.1986,13.5242 9.0336,11.6882 11.2986,11.6882 L25.4436,11.6882 C27.7086,11.6882 29.5436,13.5242 29.5436,15.7882 L29.5436,26.0162 C29.5436,28.2812 27.7086,30.1172 25.4436,30.1172" id="Fill-41" fill="#FFFFFF"></path>
                <path d="M25.4436,30.1172 L11.2986,30.1172 C9.0336,30.1172 7.1986,28.2812 7.1986,26.0162 L7.1986,15.7882 C7.1986,13.5242 9.0336,11.6882 11.2986,11.6882 L25.4436,11.6882 C27.7086,11.6882 29.5436,13.5242 29.5436,15.7882 L29.5436,26.0162 C29.5436,28.2812 27.7086,30.1172 25.4436,30.1172 Z" id="Stroke-43" stroke="#000000" stroke-width="1.5" stroke-linecap="round" stroke-linejoin="round"></path>
                <g id="Group-48" transform="translate(7.1985, 16.5107)">
                    <line x1="0" y1="0.5" x2="22.346" y2="0.5" id="Fill-45" fill="#FFFFFF"></line>
                    <line x1="4.54747351e-13" y1="0.5" x2="22.346" y2="0.5" id="Stroke-47" stroke="#000000" stroke-width="1.5" stroke-linecap="round" stroke-linejoin="round"></line>
                </g>
                <g id="Group-52" transform="translate(12.8801, 9.9646)">
                    <line x1="0.5" y1="0" x2="0.5" y2="2.984" id="Fill-49" fill="#FFFFFF"></line>
                    <line x1="0.5" y1="0" x2="0.5" y2="2.984" id="Stroke-51" stroke="#000000" stroke-width="1.5" stroke-linecap="round" stroke-linejoin="round"></line>
                </g>
                <g id="Group-56" transform="translate(23.1587, 9.9818)">
                    <line x1="0.5" y1="0" x2="0.5" y2="2.984" id="Fill-53" fill="#FFFFFF"></line>
                    <line x1="0.5" y1="0" x2="0.5" y2="2.984" id="Stroke-55" stroke="#000000" stroke-width="1.5" stroke-linecap="round" stroke-linejoin="round"></line>
                </g>
                <g id="Group-61" transform="translate(25.3792, 25.7045)">
                    <mask id="mask-2" fill="white">
                        <use xlink:href="#path-1"></use>
                    </mask>
                    <g id="Clip-59"></g>
                    <polygon id="Fill-58" fill="#FFFFFF" mask="url(#mask-2)" points="-1 7.294 9.32 7.294 9.32 -1 -1 -1"></polygon>
                    <polygon id="Stroke-60" stroke="#000000" mask="url(#mask-2)" points="-1 7.294 9.32 7.294 9.32 -1 -1 -1"></polygon>
                </g>
                <g id="Group-66" transform="translate(25.3795, 25.7047)" stroke="#000000">
                    <path d="M0,4.496 C0,5.489 1.863,6.294 4.16,6.294 C6.458,6.294 8.32,5.489 8.32,4.496 L8.32,3.496 L8.32,2.735 L8.32,1.799 C8.32,0.805 6.458,0 4.16,0 C1.863,0 0,0.805 0,1.799 L0,2.248 L0,3.496 L0,4.496 Z" id="Stroke-62"></path>
                    <path d="M0,4.496 C0,5.489 1.863,6.294 4.16,6.294 C6.458,6.294 8.32,5.489 8.32,4.496 L8.32,3.496 L8.32,2.735 L8.32,1.799 C8.32,0.805 6.458,0 4.16,0 C1.863,0 0,0.805 0,1.799 L0,2.248 L0,3.496 L0,4.496 Z" id="Stroke-64" stroke-width="1.5" stroke-linecap="round" stroke-linejoin="round"></path>
                </g>
                <g id="Group-70" transform="translate(25.3792, 23.1165)">
                    <mask id="mask-4" fill="white">
                        <use xlink:href="#path-3"></use>
                    </mask>
                    <g id="Clip-68"></g>
                    <polygon id="Fill-67" fill="#FFFFFF" mask="url(#mask-4)" points="-1 7.294 9.32 7.294 9.32 -1 -1 -1"></polygon>
                    <polygon id="Stroke-69" stroke="#000000" mask="url(#mask-4)" points="-1 7.294 9.32 7.294 9.32 -1 -1 -1"></polygon>
                </g>
                <g id="Group-75" transform="translate(25.3795, 23.1167)" stroke="#000000">
                    <path d="M0,4.496 C0,5.489 1.863,6.294 4.16,6.294 C6.458,6.294 8.32,5.489 8.32,4.496 L8.32,3.496 L8.32,2.735 L8.32,1.799 C8.32,0.805 6.458,0 4.16,0 C1.863,0 0,0.805 0,1.799 L0,2.248 L0,3.496 L0,4.496 Z" id="Stroke-71"></path>
                    <path d="M0,4.496 C0,5.489 1.863,6.294 4.16,6.294 C6.458,6.294 8.32,5.489 8.32,4.496 L8.32,3.496 L8.32,2.735 L8.32,1.799 C8.32,0.805 6.458,0 4.16,0 C1.863,0 0,0.805 0,1.799 L0,2.248 L0,3.496 L0,4.496 Z" id="Stroke-73" stroke-width="1.5" stroke-linecap="round" stroke-linejoin="round"></path>
                </g>
                <g id="Group-79" transform="translate(25.3882, 23.1085)">
                    <mask id="mask-6" fill="white">
                        <use xlink:href="#path-5"></use>
                    </mask>
                    <g id="Clip-77"></g>
                    <polygon id="Fill-76" fill="#FFFFFF" mask="url(#mask-6)" points="-1 4.596 9.32 4.596 9.32 -1 -1 -1"></polygon>
                    <polygon id="Stroke-78" stroke="#000000" mask="url(#mask-6)" points="-1 4.596 9.32 4.596 9.32 -1 -1 -1"></polygon>
                </g>
                <g id="Group-86" transform="translate(25.3881, 23.1086)">
                    <path d="M0,1.798 C0,2.791 1.863,3.596 4.16,3.596 C6.458,3.596 8.32,2.791 8.32,1.798 C8.32,0.805 6.458,0 4.16,0 C1.863,0 0,0.805 0,1.798" id="Stroke-80" stroke="#000000"></path>
                    <path d="M0,1.798 C0,2.791 1.863,3.596 4.16,3.596 C6.458,3.596 8.32,2.791 8.32,1.798 C8.32,0.805 6.458,0 4.16,0 C1.863,0 0,0.805 0,1.798" id="Fill-82" fill="#6AE4A0"></path>
                    <path d="M0,1.798 C0,2.791 1.863,3.596 4.16,3.596 C6.458,3.596 8.32,2.791 8.32,1.798 C8.32,0.805 6.458,0 4.16,0 C1.863,0 0,0.805 0,1.798 Z" id="Stroke-84" stroke="#000000" stroke-width="1.5"></path>
                </g>
                <g id="Group-90" transform="translate(15.7931, 25.5975)">
                    <mask id="mask-8" fill="white">
                        <use xlink:href="#path-7"></use>
                    </mask>
                    <g id="Clip-88"></g>
                    <polygon id="Fill-87" fill="#FFFFFF" mask="url(#mask-8)" points="-1.36787889 8.714 10.1761211 8.714 10.1761211 -1.31 -1.36787889 -1.31"></polygon>
                    <polygon id="Stroke-89" stroke="#000000" mask="url(#mask-8)" points="-1.36787889 8.714 10.1761211 8.714 10.1761211 -1.31 -1.36787889 -1.31"></polygon>
                </g>
                <g id="Group-95" transform="translate(15.7932, 25.5976)" stroke="#000000">
                    <path d="M1.35312111,6.83502632 C1.81612111,7.71402632 3.83912111,7.55702632 5.87212111,6.48602632 C7.90412111,5.41502632 9.17612111,3.83402632 8.71312111,2.95502632 L8.24712111,2.07102632 L7.89212111,1.39702632 L7.45512111,0.569026318 C6.99212111,-0.309973682 4.96912111,-0.152973682 2.93712111,0.918026318 C0.90412111,1.98902632 -0.36787889,3.57002632 0.0951211105,4.44902632 L0.30512111,4.84602632 L0.88712111,5.95002632 L1.35312111,6.83502632 Z" id="Stroke-91"></path>
                    <path d="M1.35312111,6.83502632 C1.81612111,7.71402632 3.83912111,7.55702632 5.87212111,6.48602632 C7.90412111,5.41502632 9.17612111,3.83402632 8.71312111,2.95502632 L8.24712111,2.07102632 L7.89212111,1.39702632 L7.45512111,0.569026318 C6.99212111,-0.309973682 4.96912111,-0.152973682 2.93712111,0.918026318 C0.90412111,1.98902632 -0.36787889,3.57002632 0.0951211105,4.44902632 L0.30512111,4.84602632 L0.88712111,5.95002632 L1.35312111,6.83502632 Z" id="Stroke-93" stroke-width="1.5" stroke-linecap="round" stroke-linejoin="round"></path>
                </g>
                <g id="Group-99" transform="translate(15.7971, 25.5865)">
                    <mask id="mask-10" fill="white">
                        <use xlink:href="#path-9"></use>
                    </mask>
                    <g id="Clip-97"></g>
                    <polygon id="Fill-96" fill="#FFFFFF" mask="url(#mask-10)" points="-1.36787889 6.327 8.91812111 6.327 8.91812111 -1.31 -1.36787889 -1.31"></polygon>
                    <polygon id="Stroke-98" stroke="#000000" mask="url(#mask-10)" points="-1.36787889 6.327 8.91812111 6.327 8.91812111 -1.31 -1.36787889 -1.31"></polygon>
                </g>
                <path d="M15.892,30.0348 C16.355,30.9138 18.378,30.7568 20.411,29.6858 C22.443,28.6148 23.715,27.0338 23.252,26.1548 C22.789,25.2768 20.766,25.4328 18.734,26.5038 C16.701,27.5758 15.429,29.1558 15.892,30.0348" id="Stroke-100" stroke="#000000"></path>
                <path d="M15.892,30.0348 C16.355,30.9138 18.378,30.7568 20.411,29.6858 C22.443,28.6148 23.715,27.0338 23.252,26.1548 C22.789,25.2768 20.766,25.4328 18.734,26.5038 C16.701,27.5758 15.429,29.1558 15.892,30.0348 Z" id="Stroke-102" stroke="#000000" stroke-width="1.5" stroke-linecap="round" stroke-linejoin="round"></path>
                <path d="M7.5286,3.5143 C7.9516,3.2903 8.3886,3.0923 8.8356,2.9193 C9.2826,2.7473 9.7396,2.6003 10.2026,2.4813 C10.6666,2.3623 11.1376,2.2703 11.6116,2.2063" id="Stroke-104" stroke="#000000" stroke-width="1.5" stroke-linecap="round" stroke-linejoin="round"></path>
                <path d="M4.163,6.1627 C4.478,5.8017 4.816,5.4607 5.173,5.1437" id="Stroke-106" stroke="#000000" stroke-width="1.5" stroke-linecap="round" stroke-linejoin="round"></path>
                <polyline id="Stroke-108" stroke="#000000" stroke-width="1.5" stroke-linecap="round" stroke-linejoin="round" points="10.3496 0 13.3056 1.777 11.5286 4.733"></polyline>
                <path d="M2.2233,8.5927 C1.4373,10.0127 0.9973,11.6227 0.9523,13.2457" id="Stroke-110" stroke="#000000" stroke-width="1.5" stroke-linecap="round" stroke-linejoin="round"></path>
                <path d="M28.9389,40.5941 C29.4129,40.5311 29.8839,40.4391 30.3479,40.3191 C30.8109,40.2001 31.2679,40.0541 31.7149,39.8811 C32.1619,39.7081 32.6209,39.5481 33.0219,39.2861 C35.5189,37.6541 37.9449,35.8951 38.7329,31.3471" id="Stroke-112" stroke="#000000" stroke-width="1.5" stroke-linecap="round" stroke-linejoin="round"></path>
                <polyline id="Stroke-114" stroke="#000000" stroke-width="1.5" stroke-linecap="round" stroke-linejoin="round" points="30.2008 42.8005 27.2448 41.0235 29.0218 38.0675"></polyline>
            </g>
        </g>
    </g>
</svg>