<?xml version="1.0" encoding="UTF-8"?>
<svg width="53px" height="58px" viewBox="0 0 53 58" version="1.1" xmlns="http://www.w3.org/2000/svg" xmlns:xlink="http://www.w3.org/1999/xlink">
    <title>Group</title>
    <defs>
        <path d="M0,2.373 L0,2.965 L0,4.611 L0,5.93 C0,7.239 2.457,8.301 5.487,8.301 L5.487,8.301 C8.517,8.301 10.973,7.239 10.973,5.93 L10.973,5.93 L10.973,4.611 L10.973,3.607 L10.973,2.373 C10.973,1.062 8.517,0 5.487,0 L5.487,0 C2.457,0 0,1.062 0,2.373 L0,2.373 Z" id="path-1"></path>
        <path d="M0,2.372 L0,2.965 L0,4.611 L0,5.929 C0,7.24 2.457,8.301 5.487,8.301 L5.487,8.301 C8.517,8.301 10.973,7.24 10.973,5.929 L10.973,5.929 L10.973,4.611 L10.973,3.607 L10.973,2.372 C10.973,1.061 8.517,0 5.487,0 L5.487,0 C2.457,0 0,1.061 0,2.372 L0,2.372 Z" id="path-3"></path>
        <path d="M0,2.372 C0,3.681 2.457,4.743 5.487,4.743 L5.487,4.743 C8.518,4.743 10.973,3.681 10.973,2.372 L10.973,2.372 C10.973,1.061 8.518,0 5.487,0 L5.487,0 C2.457,0 0,1.061 0,2.372 L0,2.372 Z" id="path-5"></path>
        <path d="M3.87356349,1.211 C1.19256349,2.623 -0.485436514,4.708 0.125563486,5.868 L0.125563486,5.868 L0.402563486,6.391 L1.16956349,7.847 L1.78456349,9.015 C2.39456349,10.174 5.06356349,9.967 7.74456349,8.554 L7.74456349,8.554 C10.4245635,7.142 12.1025635,5.057 11.4915635,3.897 L11.4915635,3.897 L10.8775635,2.731 L10.4085635,1.842 L9.83256349,0.75 C9.56656349,0.245 8.91056349,0 8.03356349,0 L8.03356349,0 C6.89656349,0 5.38656349,0.413 3.87356349,1.211 L3.87356349,1.211 Z" id="path-7"></path>
        <path d="M3.87261601,1.21 C1.19161601,2.624 -0.485383986,4.708 0.125616014,5.867 L0.125616014,5.867 C0.735616014,7.026 3.40461601,6.819 6.08561601,5.406 L6.08561601,5.406 C8.76561601,3.994 10.443616,1.909 9.83161601,0.75 L9.83161601,0.75 C9.56661601,0.245 8.90961601,0 8.03261601,0 L8.03261601,0 C6.89561601,0 5.38661601,0.412 3.87261601,1.21 L3.87261601,1.21 Z" id="path-9"></path>
    </defs>
    <g id="Page-1" stroke="none" stroke-width="1" fill="none" fill-rule="evenodd">
        <g id="Månedsopsparing-ikon" transform="translate(-406, -781)">
            <g id="Group" transform="translate(406.8454, 782.2698)">
                <path d="M19.6611,35.8209 L28.2661,35.8209 C29.3701,35.8209 30.2661,34.9259 30.2661,33.8209 L30.2661,8.2419 C30.2661,7.1379 29.3701,6.2419 28.2661,6.2419 L19.6611,6.2419 C18.5561,6.2419 17.6611,7.1379 17.6611,8.2419 L17.6611,33.8209 C17.6611,34.9259 18.5561,35.8209 19.6611,35.8209" id="Fill-116" fill="#E7EBEB"></path>
                <path d="M2,35.8209 L10.605,35.8209 C11.709,35.8209 12.605,34.9259 12.605,33.8209 L12.605,14.2009 C12.605,13.0969 11.709,12.2009 10.605,12.2009 L2,12.2009 C0.895,12.2009 0,13.0969 0,14.2009 L0,33.8209 C0,34.9259 0.895,35.8209 2,35.8209" id="Fill-118" fill="#E7EBEB"></path>
                <path d="M37.3221,35.8209 L45.9271,35.8209 C47.0311,35.8209 47.9271,34.9259 47.9271,33.8209 L47.9271,2.4939 C47.9271,1.3889 47.0311,0.4939 45.9271,0.4939 L37.3221,0.4939 C36.2171,0.4939 35.3221,1.3889 35.3221,2.4939 L35.3221,33.8209 C35.3221,34.9259 36.2171,35.8209 37.3221,35.8209" id="Fill-120" fill="#E7EBEB"></path>
                <path d="M33.5579,39.4322 L14.9019,39.4322 C11.9149,39.4322 9.4939,37.0112 9.4939,34.0242 L9.4939,20.5342 C9.4939,17.5482 11.9149,15.1252 14.9019,15.1252 L33.5579,15.1252 C36.5449,15.1252 38.9659,17.5482 38.9659,20.5342 L38.9659,34.0242 C38.9659,37.0112 36.5449,39.4322 33.5579,39.4322" id="Fill-122" fill="#FFFFFF"></path>
                <path d="M33.5579,39.4322 L14.9019,39.4322 C11.9149,39.4322 9.4939,37.0112 9.4939,34.0242 L9.4939,20.5342 C9.4939,17.5482 11.9149,15.1252 14.9019,15.1252 L33.5579,15.1252 C36.5449,15.1252 38.9659,17.5482 38.9659,20.5342 L38.9659,34.0242 C38.9659,37.0112 36.5449,39.4322 33.5579,39.4322 Z" id="Stroke-124" stroke="#000000" stroke-width="1.5" stroke-linecap="round" stroke-linejoin="round"></path>
                <g id="Group-129" transform="translate(9.4942, 21.6458)">
                    <line x1="0" y1="0.5" x2="29.472" y2="0.5" id="Fill-126" fill="#FFFFFF"></line>
                    <line x1="0" y1="0.5" x2="29.472" y2="0.5" id="Stroke-128" stroke="#000000" stroke-width="1.5" stroke-linecap="round" stroke-linejoin="round"></line>
                </g>
                <g id="Group-133" transform="translate(17.1472, 12.8526)">
                    <line x1="0.5" y1="0" x2="0.5" y2="3.936" id="Fill-130" fill="#FFFFFF"></line>
                    <line x1="0.5" y1="0" x2="0.5" y2="3.936" id="Stroke-132" stroke="#000000" stroke-width="1.5" stroke-linecap="round" stroke-linejoin="round"></line>
                </g>
                <g id="Group-137" transform="translate(30.7038, 12.8753)">
                    <line x1="0.5" y1="0" x2="0.5" y2="3.936" id="Fill-134" fill="#FFFFFF"></line>
                    <line x1="0.5" y1="0" x2="0.5" y2="3.936" id="Stroke-136" stroke="#000000" stroke-width="1.5" stroke-linecap="round" stroke-linejoin="round"></line>
                </g>
                <g id="Group-142" transform="translate(33.4736, 33.6125)">
                    <mask id="mask-2" fill="white">
                        <use xlink:href="#path-1"></use>
                    </mask>
                    <g id="Clip-140"></g>
                    <polygon id="Fill-139" fill="#FFFFFF" mask="url(#mask-2)" points="-1.319 9.62 12.292 9.62 12.292 -1.319 -1.319 -1.319"></polygon>
                    <polygon id="Stroke-141" stroke="#000000" stroke-width="1.5" mask="url(#mask-2)" points="-1.319 9.62 12.292 9.62 12.292 -1.319 -1.319 -1.319"></polygon>
                </g>
                <g id="Group-147" transform="translate(33.4734, 33.6123)" stroke="#000000" stroke-width="1.5">
                    <path d="M0,5.93 C0,7.24 2.457,8.301 5.487,8.301 C8.518,8.301 10.973,7.24 10.973,5.93 L10.973,4.611 L10.973,3.607 L10.973,2.373 C10.973,1.062 8.518,0 5.487,0 C2.457,0 0,1.062 0,2.373 L0,2.965 L0,4.611 L0,5.93 Z" id="Stroke-143"></path>
                    <path d="M0,5.93 C0,7.24 2.457,8.301 5.487,8.301 C8.518,8.301 10.973,7.24 10.973,5.93 L10.973,4.611 L10.973,3.607 L10.973,2.373 C10.973,1.062 8.518,0 5.487,0 C2.457,0 0,1.062 0,2.373 L0,2.965 L0,4.611 L0,5.93 Z" id="Stroke-145" stroke-linecap="round" stroke-linejoin="round"></path>
                </g>
                <g id="Group-151" transform="translate(33.4736, 30.1995)">
                    <mask id="mask-4" fill="white">
                        <use xlink:href="#path-3"></use>
                    </mask>
                    <g id="Clip-149"></g>
                    <polygon id="Fill-148" fill="#FFFFFF" mask="url(#mask-4)" points="-1.319 9.62 12.292 9.62 12.292 -1.319 -1.319 -1.319"></polygon>
                    <polygon id="Stroke-150" stroke="#000000" stroke-width="1.5" mask="url(#mask-4)" points="-1.319 9.62 12.292 9.62 12.292 -1.319 -1.319 -1.319"></polygon>
                </g>
                <g id="Group-156" transform="translate(33.4734, 30.199)" stroke="#000000" stroke-width="1.5">
                    <path d="M0,5.93 C0,7.24 2.457,8.301 5.487,8.301 C8.518,8.301 10.973,7.24 10.973,5.93 L10.973,4.611 L10.973,3.607 L10.973,2.373 C10.973,1.062 8.518,0 5.487,0 C2.457,0 0,1.062 0,2.373 L0,2.965 L0,4.611 L0,5.93 Z" id="Stroke-152"></path>
                    <path d="M0,5.93 C0,7.24 2.457,8.301 5.487,8.301 C8.518,8.301 10.973,7.24 10.973,5.93 L10.973,4.611 L10.973,3.607 L10.973,2.373 C10.973,1.062 8.518,0 5.487,0 C2.457,0 0,1.062 0,2.373 L0,2.965 L0,4.611 L0,5.93 Z" id="Stroke-154" stroke-linecap="round" stroke-linejoin="round"></path>
                </g>
                <g id="Group-160" transform="translate(33.4846, 30.1885)">
                    <mask id="mask-6" fill="white">
                        <use xlink:href="#path-5"></use>
                    </mask>
                    <g id="Clip-158"></g>
                    <polygon id="Fill-157" fill="#FFFFFF" mask="url(#mask-6)" points="-1.319 6.062 12.292 6.062 12.292 -1.319 -1.319 -1.319"></polygon>
                    <polygon id="Stroke-159" stroke="#000000" stroke-width="1.5" mask="url(#mask-6)" points="-1.319 6.062 12.292 6.062 12.292 -1.319 -1.319 -1.319"></polygon>
                </g>
                <g id="Group-167" transform="translate(33.4847, 30.1889)">
                    <path d="M0,2.371 C0,3.681 2.457,4.742 5.487,4.742 C8.518,4.742 10.973,3.681 10.973,2.371 C10.973,1.061 8.518,0 5.487,0 C2.457,0 0,1.061 0,2.371" id="Stroke-161" stroke="#000000" stroke-width="1.5"></path>
                    <path d="M0,2.371 C0,3.681 2.457,4.742 5.487,4.742 C8.518,4.742 10.973,3.681 10.973,2.371 C10.973,1.061 8.518,0 5.487,0 C2.457,0 0,1.061 0,2.371" id="Fill-163" fill="#6AE4A0"></path>
                    <path d="M0,2.371 C0,3.681 2.457,4.742 5.487,4.742 C8.518,4.742 10.973,3.681 10.973,2.371 C10.973,1.061 8.518,0 5.487,0 C2.457,0 0,1.061 0,2.371 Z" id="Stroke-165" stroke="#000000" stroke-width="1.5"></path>
                </g>
                <g id="Group-171" transform="translate(20.83, 33.4715)">
                    <mask id="mask-8" fill="white">
                        <use xlink:href="#path-7"></use>
                    </mask>
                    <g id="Clip-169"></g>
                    <polygon id="Fill-168" fill="#FFFFFF" mask="url(#mask-8)" points="-1.80443651 11.493 13.4215635 11.493 13.4215635 -1.728 -1.80443651 -1.728"></polygon>
                    <polygon id="Stroke-170" stroke="#000000" stroke-width="1.5" mask="url(#mask-8)" points="-1.80443651 11.493 13.4215635 11.493 13.4215635 -1.728 -1.80443651 -1.728"></polygon>
                </g>
                <g id="Group-176" transform="translate(20.8299, 33.471)" stroke="#000000" stroke-width="1.5">
                    <path d="M1.78456349,9.01504145 C2.39556349,10.1740414 5.06356349,9.96704145 7.74456349,8.55504145 C10.4245635,7.14204145 12.1025635,5.05704145 11.4915635,3.89804145 L10.8775635,2.73204145 L10.4085635,1.84304145 L9.83256349,0.751041447 C9.22156349,-0.408958553 6.55356349,-0.201958553 3.87356349,1.21104145 C1.19256349,2.62404145 -0.485436514,4.70904145 0.125563486,5.86804145 L0.402563486,6.39204145 L1.16956349,7.84804145 L1.78456349,9.01504145 Z" id="Stroke-172"></path>
                    <path d="M1.78456349,9.01504145 C2.39556349,10.1740414 5.06356349,9.96704145 7.74456349,8.55504145 C10.4245635,7.14204145 12.1025635,5.05704145 11.4915635,3.89804145 L10.8775635,2.73204145 L10.4085635,1.84304145 L9.83256349,0.751041447 C9.22156349,-0.408958553 6.55356349,-0.201958553 3.87356349,1.21104145 C1.19256349,2.62404145 -0.485436514,4.70904145 0.125563486,5.86804145 L0.402563486,6.39204145 L1.16956349,7.84804145 L1.78456349,9.01504145 Z" id="Stroke-174" stroke-linecap="round" stroke-linejoin="round"></path>
                </g>
                <g id="Group-180" transform="translate(20.835, 33.4565)">
                    <mask id="mask-10" fill="white">
                        <use xlink:href="#path-9"></use>
                    </mask>
                    <g id="Clip-178"></g>
                    <polygon id="Fill-177" fill="#FFFFFF" mask="url(#mask-10)" points="-1.80438399 8.346 11.761616 8.346 11.761616 -1.727 -1.80438399 -1.727"></polygon>
                    <polygon id="Stroke-179" stroke="#000000" stroke-width="1.5" mask="url(#mask-10)" points="-1.80438399 8.346 11.761616 8.346 11.761616 -1.727 -1.80438399 -1.727"></polygon>
                </g>
                <path d="M20.9602,39.3235 C21.5712,40.4825 24.2392,40.2755 26.9202,38.8635 C29.6002,37.4505 31.2782,35.3655 30.6672,34.2065 C30.0572,33.0485 27.3882,33.2535 24.7082,34.6665 C22.0272,36.0805 20.3492,38.1645 20.9602,39.3235" id="Stroke-181" stroke="#000000" stroke-width="1.5"></path>
                <path d="M20.9602,39.3235 C21.5712,40.4825 24.2392,40.2755 26.9202,38.8635 C29.6002,37.4505 31.2782,35.3655 30.6672,34.2065 C30.0572,33.0485 27.3882,33.2535 24.7082,34.6665 C22.0272,36.0805 20.3492,38.1645 20.9602,39.3235 Z" id="Stroke-183" stroke="#000000" stroke-width="1.5" stroke-linecap="round" stroke-linejoin="round"></path>
                <path d="M9.9296,4.3452 C10.4876,4.0502 11.0636,3.7882 11.6536,3.5602 C12.2426,3.3332 12.8456,3.1402 13.4566,2.9832 C14.0686,2.8262 14.6896,2.7042 15.3146,2.6202" id="Stroke-185" stroke="#000000" stroke-width="1.5" stroke-linecap="round" stroke-linejoin="round"></path>
                <path d="M5.4907,7.8382 C5.9057,7.3622 6.3517,6.9122 6.8227,6.4942" id="Stroke-187" stroke="#000000" stroke-width="1.5" stroke-linecap="round" stroke-linejoin="round"></path>
                <polyline id="Stroke-189" stroke="#000000" stroke-width="1.5" stroke-linecap="round" stroke-linejoin="round" points="12.6222 0 16.5212 2.344 14.1772 6.242"></polyline>
                <path d="M2.9324,11.0432 C1.8954,12.9162 1.3154,15.0392 1.2564,17.1802" id="Stroke-191" stroke="#000000" stroke-width="1.5" stroke-linecap="round" stroke-linejoin="round"></path>
                <path d="M38.1679,53.2503 C38.7929,53.1673 39.4139,53.0463 40.0259,52.8873 C40.6369,52.7303 41.2399,52.5383 41.8289,52.3103 C42.4189,52.0813 43.0239,51.8703 43.5529,51.5253 C46.8459,49.3723 50.0459,47.0523 51.0849,41.0543" id="Stroke-193" stroke="#000000" stroke-width="1.5" stroke-linecap="round" stroke-linejoin="round"></path>
                <polyline id="Stroke-195" stroke="#000000" stroke-width="1.5" stroke-linecap="round" stroke-linejoin="round" points="40.6996 55.8776 36.8006 53.5336 39.1446 49.6356"></polyline>
            </g>
        </g>
    </g>
</svg>