<svg width="56" height="56" viewBox="0 0 56 56" version="1.1" xmlns="http://www.w3.org/2000/svg"
    xmlns:xlink="http://www.w3.org/1999/xlink">
  <path
        part="highlight" fill="cadetblue"

     d="M34.48,28.53c-3.24,0-5.81,1.08-6.01,2.12,0,.04.01.08.01.12v.19c.28,1.02,2.82,2.06,6,2.06s5.87-1.11,6.06-2.15v-.11s0-.08,0-.08v-.02c-.15-1.04-2.77-2.14-6.07-2.14Z"
      />
  <path
        part="background" fill="silver"

     d="M 42.730469 5 C 41.070469 5 39.730469 6.34 39.730469 8 L 39.730469 28.019531 C 41.150469 28.669531 42.050781 29.619766 42.050781 30.759766 C 42.050781 30.839766 42.049063 30.910469 42.039062 30.980469 L 41.890625 47.859375 C 42.160625 47.939375 42.430469 47.990234 42.730469 47.990234 L 52 47.990234 C 53.66 47.990234 55 46.650234 55 44.990234 L 55 8 C 55 6.34 53.66 5 52 5 L 42.730469 5 z M 23.369141 14.990234 C 21.709141 14.990234 20.369141 16.330234 20.369141 17.990234 L 20.369141 36.279297 C 20.625777 36.269426 20.893651 36.260019 21.160156 36.259766 L 21.169922 36.259766 C 23.536158 36.2612 25.671548 36.802148 27.009766 37.710938 L 26.980469 31.109375 C 26.960469 30.999375 26.949219 30.889531 26.949219 30.769531 C 26.949219 28.529531 30.370469 27.019531 34.480469 27.019531 C 34.870469 27.019531 35.260625 27.040547 35.640625 27.060547 L 35.640625 17.990234 C 35.640625 16.330234 34.300625 14.990234 32.640625 14.990234 L 23.369141 14.990234 z M 4 25 C 2.34 25 1 26.34 1 28 L 1 45 C 1 46.66 2.34 48 4 48 L 13.269531 48 C 13.509531 48 13.740938 47.960156 13.960938 47.910156 L 13.919922 39.990234 L 13.929688 39.990234 C 13.929688 39.940234 13.929453 39.889844 13.939453 39.839844 C 14.019453 38.749844 14.909531 37.840937 16.269531 37.210938 L 16.269531 28 C 16.269531 26.34 14.929531 25 13.269531 25 L 4 25 z " />
  <path
        part="outline" fill="black"

     d="M34.48,27.03c4.13,0,7.57,1.5,7.57,3.73,0,.08,0,.15-.01.22l-.15,17.27v.03s0,.03,0,.04v-.07c0,.05,0,.1-.01.15,0,0,0,0,0,.01h0s0,.04-.01.06v-.06c-.38,1.73-3.41,3.26-6.84,3.34-2.9.07-5.6-.64-7.02-1.82-1.58,1.29-3.78,1.98-6.76,1.98-3.14,0-5.08-.66-6.97-2.16-.21-.17-.3-.42-.28-.66,0-.03,0-.06,0-.1l-.04-9c0-.05,0-.1.01-.15.16-2.13,3.38-3.58,7.22-3.58,2.37,0,4.51.54,5.85,1.45l-.03-6.6c-.02-.11-.03-.22-.03-.34,0-2.24,3.42-3.75,7.53-3.75ZM21.23,47.91c-2.48,0-4.22-.41-5.77-1.33v2.21c1.54,1.14,3.13,1.62,5.77,1.62s4.56-.6,5.86-1.68v-.04s-.02-.04-.02-.06l.02.1s-.02-.09-.02-.13c0-.02,0-.03,0-.05v-1.97c-1.49.87-3.4,1.33-5.83,1.33ZM28.55,45.62v2.74c.65,1.05,3.39,1.96,6.43,1.89,2.76-.06,5.12-1.22,5.41-2.12l.02-2.47c-1.49.9-3.43,1.38-5.92,1.38s-4.35-.44-5.94-1.43ZM21.16,43.76c-2.31,0-4.39-.52-5.73-1.4v2.41c1.55,1.15,3.14,1.64,5.79,1.64s4.52-.59,5.81-1.64v-2.5c-1.35.93-3.5,1.49-5.88,1.49ZM28.53,41.04v2.74s.14.1.14.1c1.55,1.17,3.15,1.67,5.83,1.67s4.64-.62,5.94-1.74l.02-2.73c-1.5.92-3.45,1.41-5.96,1.41s-4.36-.45-5.97-1.45ZM21.16,37.76c-3.21,0-5.73,1.16-5.73,2.25s2.52,2.25,5.73,2.25,5.77-1.19,5.77-2.27-2.54-2.23-5.77-2.23ZM28.51,37.03v2.17s.16.12.16.12c1.55,1.17,3.15,1.67,5.83,1.67s4.68-.64,5.98-1.78l.02-2.15c-1.5.93-3.47,1.43-5.99,1.43s-4.38-.45-5.99-1.46ZM40.52,33.09c-1.39.91-3.6,1.44-6.04,1.44s-4.61-.53-5.99-1.42v2.07s.18.13.18.13c1.55,1.17,3.15,1.67,5.83,1.67s4.71-.65,6.01-1.81h0s.02-2.09.02-2.09ZM34.48,28.53c-3.24,0-5.81,1.08-6.01,2.12,0,.04.01.08.01.12v.19c.28,1.02,2.82,2.06,6,2.06s5.87-1.11,6.06-2.15v-.11s0-.08,0-.08v-.02c-.15-1.04-2.77-2.14-6.07-2.14Z" />
</svg>
