<svg width="56" height="56" viewBox="0 0 56 56" version="1.1" xmlns="http://www.w3.org/2000/svg"
    xmlns:xlink="http://www.w3.org/1999/xlink">
  <path
     part="highlight" fill="cadetblue"
     d="M46.48,30.78c3.74,0,6.82-1.36,6.82-3.02s-3.08-2.98-6.82-2.98-6.78,1.34-6.78,3,3.03,3,6.78,3Z" />
  <path
     part="outline" fill="black"
     d="M 46.480469 24.029297 C 42.370469 24.029297 38.949219 25.539297 38.949219 27.779297 C 38.949219 27.939297 38.97 28.090234 39 28.240234 L 39.039062 40.740234 C 37.709063 39.810234 35.550156 39.259766 33.160156 39.259766 C 33.000156 39.259766 32.839922 39.259531 32.669922 39.269531 C 32.709922 38.849531 32.740234 38.43 32.740234 38 C 32.740234 30.42 26.570234 24.25 18.990234 24.25 C 17.990234 24.25 16.989531 24.360312 16.019531 24.570312 C 15.619531 24.660312 15.359219 25.060937 15.449219 25.460938 C 15.539219 25.860937 15.939844 26.119297 16.339844 26.029297 C 17.199844 25.839297 18.090234 25.740234 18.990234 25.740234 C 25.740234 25.740234 31.240234 31.240234 31.240234 37.990234 C 31.240234 38.470234 31.200391 38.930625 31.150391 39.390625 C 28.250391 39.800625 26.069453 41.080078 25.939453 42.830078 C 25.939453 42.880078 25.929687 42.930469 25.929688 42.980469 L 25.949219 48.050781 C 23.969219 49.420781 21.58 50.240234 19 50.240234 C 14.4 50.240234 10.249922 47.710391 8.1699219 43.650391 C 7.9799219 43.280391 7.5301563 43.140313 7.1601562 43.320312 C 6.7901562 43.510312 6.6500781 43.960078 6.8300781 44.330078 C 9.1700781 48.900078 13.83 51.740234 19 51.740234 C 21.54 51.740234 23.920938 51.040078 25.960938 49.830078 L 25.960938 51.980469 C 25.960938 51.980469 25.970469 52.040078 25.980469 52.080078 C 25.960469 52.330078 26.049766 52.580234 26.259766 52.740234 C 28.149766 54.250234 30.100469 54.900391 33.230469 54.900391 C 36.170469 54.900391 38.359687 54.230703 39.929688 52.970703 C 40.119687 52.920703 40.280625 52.749297 40.390625 52.529297 C 40.450625 52.419297 40.490234 52.289922 40.490234 52.169922 C 40.490234 52.109922 40.5 52.040469 40.5 51.980469 L 40.5 48.160156 L 40.498047 48.158203 C 40.497109 48.15711 40.493672 48.152461 40.492188 48.150391 C 40.491514 48.149243 40.490703 48.147656 40.490234 48.146484 L 40.490234 48.144531 L 40.490234 48.142578 L 40.490234 48.140625 L 40.490234 47.289062 C 41.990234 48.249063 44.419531 48.81 47.019531 48.75 C 50.449531 48.67 53.479141 47.140156 53.869141 45.410156 L 53.869141 45.400391 C 53.879141 45.350391 53.890625 45.3 53.890625 45.25 L 54.039062 27.980469 C 54.039062 27.910469 54.050781 27.829766 54.050781 27.759766 C 54.050781 25.529766 50.610469 24.029297 46.480469 24.029297 z M 46.480469 25.529297 C 49.860469 25.529297 52.400781 26.629922 52.550781 27.669922 L 52.550781 27.689453 L 52.550781 27.769531 L 52.539062 27.769531 L 52.539062 27.880859 C 52.349063 28.920859 49.730469 30.029297 46.480469 30.029297 C 43.230469 30.029297 40.449219 28.859297 40.449219 27.779297 C 40.449219 26.699297 43.100469 25.529297 46.480469 25.529297 z M 6 26.820312 C 5.59 26.820312 5.25 27.160312 5.25 27.570312 C 5.25 27.980313 5.59 28.320313 6 28.320312 L 9.2460938 28.320312 C 7.3324935 30.245704 6.0299248 32.692036 5.5097656 35.380859 C 5.4297656 35.790859 5.6896094 36.179766 6.0996094 36.259766 C 6.1396094 36.269766 6.2402344 36.269531 6.2402344 36.269531 L 6.25 36.269531 C 6.61 36.269531 6.9202344 36.020156 6.9902344 35.660156 C 7.4611593 33.189866 8.6826878 30.952023 10.480469 29.210938 L 10.480469 33.039062 C 10.480469 33.449062 10.820469 33.789062 11.230469 33.789062 C 11.640469 33.789062 11.980469 33.449062 11.980469 33.039062 L 11.980469 27.697266 C 11.993447 27.617564 11.993633 27.537293 11.980469 27.457031 L 11.980469 26.820312 L 6 26.820312 z M 40.429688 30.070312 C 41.799686 30.990313 44.010703 31.529297 46.470703 31.529297 C 48.930703 31.529297 51.119766 30.989844 52.509766 30.089844 L 52.490234 32.179688 L 52.5 32.179688 C 51.2 33.339686 49.280234 33.990234 46.490234 33.990234 C 43.700234 33.990234 42.069219 33.450391 40.449219 32.150391 L 40.429688 32.130859 L 40.429688 30.070312 z M 40.449219 33.990234 C 42.069219 35.030234 43.86 35.490234 46.5 35.490234 C 49.14 35.490234 50.990234 34.990547 52.490234 34.060547 L 52.470703 36.210938 C 51.170703 37.350938 49.260234 37.990234 46.490234 37.990234 C 43.720234 37.990234 42.069219 37.450391 40.449219 36.150391 L 40.449219 33.990234 z M 6 37.25 C 5.59 37.25 5.25 37.59 5.25 38 C 5.25 38.23 5.2495313 38.459453 5.2695312 38.689453 C 5.3095313 39.529453 5.4692969 40.459375 5.7792969 41.609375 C 5.8692969 41.949375 6.17 42.169922 6.5 42.169922 C 6.56 42.169922 6.6294531 42.170625 6.6894531 42.140625 C 7.0894531 42.030625 7.3307031 41.620703 7.2207031 41.220703 L 7.2304688 41.220703 C 6.9604688 40.190703 6.8095312 39.329375 6.7695312 38.609375 C 6.7595313 38.409375 6.75 38.2 6.75 38 C 6.75 37.59 6.41 37.25 6 37.25 z M 40.449219 37.980469 C 42.059219 39.010469 43.860469 39.470703 46.480469 39.470703 C 49.100469 39.470703 50.939453 38.980547 52.439453 38.060547 L 52.419922 40.789062 L 52.429688 40.800781 C 51.129688 41.920781 49.230234 42.539062 46.490234 42.539062 C 43.750234 42.539062 42.210156 42.039141 40.660156 40.869141 L 40.449219 40.710938 L 40.449219 37.980469 z M 33.160156 40.759766 C 36.390156 40.759766 38.929688 41.920234 38.929688 42.990234 C 38.929688 44.060234 36.370156 45.259766 33.160156 45.259766 C 29.950156 45.259766 27.429687 44.099766 27.429688 43.009766 C 27.429688 41.919766 29.950156 40.759766 33.160156 40.759766 z M 40.480469 42.570312 C 42.090469 43.600313 43.880234 44.050781 46.490234 44.050781 C 48.970234 44.050781 50.920156 43.569922 52.410156 42.669922 L 52.390625 45.130859 C 52.100625 46.020859 49.740469 47.18 46.980469 47.25 C 43.820469 47.32 40.99 46.340234 40.5 45.240234 L 40.5 45.238281 L 40.5 45.236328 C 40.497949 45.225664 40.489219 45.207969 40.480469 45.199219 L 40.480469 42.570312 z M 39.050781 45.240234 L 39.060547 45.240234 L 39.060547 47.740234 C 37.770547 48.810234 35.900469 49.400391 33.230469 49.400391 C 30.560469 49.400391 28.989219 48.909766 27.449219 47.759766 L 27.449219 45.349609 C 28.769219 46.229609 30.850156 46.75 33.160156 46.75 C 35.553172 46.75 37.719522 46.182465 39.050781 45.240234 z M 39.080078 49.570312 L 39.080078 51.740234 C 37.790078 52.820234 35.910469 53.410156 33.230469 53.410156 C 30.590469 53.410156 29.000703 52.929062 27.470703 51.789062 L 27.470703 49.580078 C 29.010703 50.500078 30.750469 50.910156 33.230469 50.910156 C 35.710469 50.910156 37.590078 50.450314 39.080078 49.570312 z " />
  <path
     part="background" fill="silver"
     d="M 41.730469 1 C 40.070469 1 38.730469 2.34 38.730469 4 L 38.730469 40.539062 C 38.836795 40.597059 38.941767 40.665989 39.039062 40.724609 L 39 28.240234 C 38.97 28.090234 38.949219 27.939297 38.949219 27.779297 C 38.949219 25.539297 42.370469 24.029297 46.480469 24.029297 C 48.500469 24.029297 50.360469 24.389531 51.730469 25.019531 L 51.730469 4 C 51.730469 2.34 50.390469 1 48.730469 1 L 41.730469 1 z M 39.039062 40.724609 L 39.039062 40.740234 L 39.050781 40.730469 C 39.047442 40.728465 39.042424 40.726635 39.039062 40.724609 z M 24.359375 10 C 22.699375 10 21.359375 11.34 21.359375 13 L 21.359375 24.470703 L 21.369141 24.470703 C 21.739141 24.530703 22.100937 24.620937 22.460938 24.710938 L 22.470703 24.710938 C 22.470703 24.710938 22.569141 24.73 22.619141 24.75 C 22.959141 24.84 23.289141 24.950312 23.619141 25.070312 C 23.679141 25.090312 23.750547 25.120625 23.810547 25.140625 C 24.130547 25.260625 24.440234 25.389297 24.740234 25.529297 C 24.810234 25.559297 24.879219 25.600859 24.949219 25.630859 C 25.249219 25.770859 25.540078 25.919844 25.830078 26.089844 C 25.900078 26.129844 25.959297 26.170937 26.029297 26.210938 C 26.309297 26.380938 26.589375 26.550234 26.859375 26.740234 C 26.909375 26.770234 26.959766 26.809609 27.009766 26.849609 C 27.769766 27.399609 28.469609 28.019219 29.099609 28.699219 C 29.249609 28.859219 29.399062 29.019453 29.539062 29.189453 C 29.649062 29.319453 29.749375 29.459609 29.859375 29.599609 C 30.019375 29.799609 30.170547 30.000937 30.310547 30.210938 C 30.400547 30.340937 30.480312 30.469375 30.570312 30.609375 C 30.720312 30.839375 30.86 31.070547 31 31.310547 C 31.07 31.440547 31.139219 31.559453 31.199219 31.689453 C 31.339219 31.949453 31.460078 32.210469 31.580078 32.480469 L 31.730469 32.839844 C 31.850469 33.129844 31.960547 33.430469 32.060547 33.730469 C 32.090547 33.840469 32.130156 33.940781 32.160156 34.050781 C 32.260156 34.390781 32.349922 34.730078 32.419922 35.080078 C 32.439922 35.160078 32.460703 35.230547 32.470703 35.310547 C 32.560703 35.730547 32.619922 36.159609 32.669922 36.599609 L 32.669922 36.609375 C 32.719922 37.069375 32.75 37.539766 32.75 38.009766 C 32.75 38.439766 32.729453 38.859297 32.689453 39.279297 C 32.849453 39.279297 33.000156 39.269531 33.160156 39.269531 C 33.570156 39.269531 33.969375 39.290312 34.359375 39.320312 L 34.359375 13 C 34.359375 11.34 33.019375 10 31.359375 10 L 24.359375 10 z M 7 19 C 5.34 19 4 20.34 4 22 L 4 39 C 4 40.22 4.7390625 41.270234 5.7890625 41.740234 C 5.4490625 40.550234 5.2597656 39.3 5.2597656 38 C 5.2597656 31.1 10.37 25.390156 17 24.410156 L 17 22 C 17 20.34 15.66 19 14 19 L 7 19 z " />
</svg>
