<?xml version="1.0" encoding="UTF-8" standalone="no"?>
<svg
   width="56"
   height="56"
   viewBox="0 0 56 56"
   version="1.1"
   id="svg3"
   sodipodi:docname="ny-ting.svg"
   inkscape:version="1.4.2 (ebf0e940, 2025-05-08)"
   xmlns:inkscape="http://www.inkscape.org/namespaces/inkscape"
   xmlns:sodipodi="http://sodipodi.sourceforge.net/DTD/sodipodi-0.dtd"
   xmlns="http://www.w3.org/2000/svg"
   xmlns:svg="http://www.w3.org/2000/svg">
  <defs
     id="defs3" />
  <sodipodi:namedview
     id="namedview3"
     pagecolor="#ffffff"
     bordercolor="#000000"
     borderopacity="0.25"
     inkscape:showpageshadow="2"
     inkscape:pageopacity="0.0"
     inkscape:pagecheckerboard="0"
     inkscape:deskcolor="#d1d1d1"
     inkscape:zoom="10.505586"
     inkscape:cx="19.085084"
     inkscape:cy="35.457326"
     inkscape:window-width="3440"
     inkscape:window-height="1384"
     inkscape:window-x="0"
     inkscape:window-y="0"
     inkscape:window-maximized="1"
     inkscape:current-layer="svg3" />
  <path
     id="rect3"
     style="fill:#808080;stroke-width:2.18582;paint-order:markers fill stroke"
     d="m -4.0273438,5 c 1.6606618,0 2.9980469,1.3373851 2.9980469,2.9980469 V 44.992188 c 0,1.660661 -1.3373851,2.998046 -2.9980469,2.998046 h -9.2734372 c -0.23919,0 -0.472566,-0.02762 -0.695313,-0.08008 l 0.03516,-7.919922 c 0,-0.05 2.35e-4,-0.10039 -0.0098,-0.15039 -0.082,-1.091651 -0.967067,-2.004003 -2.328125,-2.634766 V 7.9980469 C -16.298828,6.3373851 -14.961443,5 -13.300781,5 Z M -23.3125,14.990234 c 1.618765,0 2.921875,1.30311 2.921875,2.921875 V 36.28125 c -0.262833,-0.01405 -0.529027,-0.02148 -0.798828,-0.02148 -2.37,0 -4.509609,0.541171 -5.849609,1.451172 l 0.0293,-6.601563 c 0.02,-0.11 0.0293,-0.219844 0.0293,-0.339844 0,-2.24 -3.419297,-3.75 -7.529297,-3.75 l 0.0293,0.0098 c -0.400718,0 -0.794472,0.01543 -1.179687,0.04297 v -9.160157 c 0,-1.618765 1.30311,-2.921875 2.921875,-2.921875 z M -42.746094,25 c 1.654296,0 2.986328,1.332032 2.986328,2.986328 v 0.04687 c -1.407708,0.654892 -2.291015,1.597054 -2.291015,2.726563 0,0.08 0.0017,0.150703 0.01172,0.220703 l 0.144531,16.896484 C -42.16405,47.956419 -42.450171,48 -42.746094,48 h -9.296875 c -1.654295,0 -2.986328,-1.332032 -2.986328,-2.986328 V 27.986328 C -55.029297,26.332032 -53.697264,25 -52.042969,25 Z"
     transform="scale(-1,1)"
     sodipodi:nodetypes="sssssccccssssscsccscccssssscsccssssss" />
  <path
     part="highlight"
     fill="#5f9ea0"
     d="m 34.48,28.53 c -3.24,0 -5.81,1.08 -6.01,2.12 0,0.04 0.01,0.08 0.01,0.12 v 0.19 c 0.28,1.02 2.82,2.06 6,2.06 3.18,0 5.87,-1.11 6.06,-2.15 v -0.11 c 0,0 0,-0.08 0,-0.08 v -0.02 c -0.15,-1.04 -2.77,-2.14 -6.07,-2.14 z"
     id="path1"
     style="display:inline" />
  <path
     part="outline"
     fill="#000000"
     d="m 34.49,27.04 c 4.13,0 7.57,1.5 7.57,3.73 0,0.08 0,0.15 -0.01,0.22 L 41.9,48.26 v 0.03 c 0,0 0,0.03 0,0.04 v -0.07 c 0,0.05 0,0.1 -0.01,0.15 0,0 0,0 0,0.01 v 0 c 0,0 0,0.04 -0.01,0.06 v -0.06 c -0.38,1.73 -3.41,3.26 -6.84,3.34 -2.9,0.07 -5.6,-0.64 -7.02,-1.82 -1.58,1.29 -3.78,1.98 -6.76,1.98 -3.14,0 -5.08,-0.66 -6.97,-2.16 -0.21,-0.17 -0.3,-0.42 -0.28,-0.66 0,-0.03 0,-0.06 0,-0.1 l -0.04,-9 c 0,-0.05 0,-0.1 0.01,-0.15 0.16,-2.13 3.38,-3.58 7.22,-3.58 2.37,0 4.51,0.54 5.85,1.45 l -0.03,-6.6 C 27,31.01 26.99,30.9 26.99,30.78 c 0,-2.24 3.42,-3.75 7.53,-3.75 z M 21.24,47.92 c -2.48,0 -4.22,-0.41 -5.77,-1.33 v 2.21 c 1.54,1.14 3.13,1.62 5.77,1.62 2.64,0 4.56,-0.6 5.86,-1.68 V 48.7 c 0,0 -0.02,-0.04 -0.02,-0.06 l 0.02,0.1 c 0,0 -0.02,-0.09 -0.02,-0.13 0,-0.02 0,-0.03 0,-0.05 v -1.97 c -1.49,0.87 -3.4,1.33 -5.83,1.33 z m 7.32,-2.29 v 2.74 c 0.65,1.05 3.39,1.96 6.43,1.89 2.76,-0.06 5.12,-1.22 5.41,-2.12 l 0.02,-2.47 c -1.49,0.9 -3.43,1.38 -5.92,1.38 -2.49,0 -4.35,-0.44 -5.94,-1.43 z m -7.39,-1.86 c -2.31,0 -4.39,-0.52 -5.73,-1.4 v 2.41 c 1.55,1.15 3.14,1.64 5.79,1.64 2.65,0 4.52,-0.59 5.81,-1.64 v -2.5 c -1.35,0.93 -3.5,1.49 -5.88,1.49 z m 7.37,-2.72 v 2.74 c 0,0 0.14,0.1 0.14,0.1 1.55,1.17 3.15,1.67 5.83,1.67 2.68,0 4.64,-0.62 5.94,-1.74 l 0.02,-2.73 c -1.5,0.92 -3.45,1.41 -5.96,1.41 -2.51,0 -4.36,-0.45 -5.97,-1.45 z m -7.37,-3.28 c -3.21,0 -5.73,1.16 -5.73,2.25 0,1.09 2.52,2.25 5.73,2.25 3.21,0 5.77,-1.19 5.77,-2.27 0,-1.08 -2.54,-2.23 -5.77,-2.23 z m 7.35,-0.73 v 2.17 c 0,0 0.16,0.12 0.16,0.12 1.55,1.17 3.15,1.67 5.83,1.67 2.68,0 4.68,-0.64 5.98,-1.78 l 0.02,-2.15 C 39.01,38 37.04,38.5 34.52,38.5 32,38.5 30.14,38.05 28.53,37.04 Z M 40.53,33.1 c -1.39,0.91 -3.6,1.44 -6.04,1.44 -2.44,0 -4.61,-0.53 -5.99,-1.42 v 2.07 c 0,0 0.18,0.13 0.18,0.13 1.55,1.17 3.15,1.67 5.83,1.67 2.68,0 4.71,-0.65 6.01,-1.81 v 0 c 0,0 0.02,-2.09 0.02,-2.09 z m -6.04,-4.56 c -3.24,0 -5.81,1.08 -6.01,2.12 0,0.04 0.01,0.08 0.01,0.12 v 0.19 c 0.28,1.02 2.82,2.06 6,2.06 3.18,0 5.87,-1.11 6.06,-2.15 v -0.11 c 0,0 0,-0.08 0,-0.08 V 30.67 C 40.4,29.63 37.78,28.53 34.48,28.53 Z"
     id="path3-9"
     style="display:inline" />
</svg>
