<svg width="56" height="56" viewBox="0 0 56 56" version="1.1" xmlns="http://www.w3.org/2000/svg"
    xmlns:xlink="http://www.w3.org/1999/xlink">
    <path part="background" fill="silver"
        d="M43.6 6.01a3 3 0 0 0-3 3v38a3 3 0 0 0 3 3h8a3 3 0 0 0 3-3v-38a3 3 0 0 0-3-3h-8zm-7.383 10.83a2.58 2.58 0 0 1-1.028 1.603l-.76.55.454.614a2.579 2.579 0 0 1-.578 3.616l-5.961 4.302c1.759 1.915 2.734 4.687 2.734 7.965 0 3.951-2.1 6.533-3.61 7.877-.964.86-1.509.793-1.509 2.076v1.807a1.86 1.86 0 0 1-1.678 1.85 3 3 0 0 0 2.157.92h8a3 3 0 0 0 3-3V19.254a3 3 0 0 0-1.221-2.414z" />
    <path part="outline" fill="black"
        d="M29.125 8.338a3.591 3.591 0 0 0-2.014.644l-2.433 1.672a.75.75 0 0 0 .851 1.237l2.434-1.674a2.09 2.09 0 0 1 2.924.537l1.297 1.695 2.379 3.229c.605.827.596 1.67-.006 2.222L33.1 15.924l-1.278-1.67c-1.089-1.618-3.354-2.038-4.996-.897L14.453 21.86c-.632-.886-.446-2.025.377-2.619l1.742-1.197a.75.75 0 0 0-.85-1.236l-1.755 1.207a3.33 3.33 0 0 0-.76 4.674l.04.07a3.327 3.327 0 0 0-.323 4.305l4.021 5.5c.226.308.495.566.793.773h-3.984a.75.75 0 0 0 0 1.5h9.455a.75.75 0 0 0 0-1.5h-1.637l.057-.037 13.113-9.469a3.33 3.33 0 0 0 .746-4.666l-.039-.053c1.318-1.085 1.395-2.856.322-4.32l-2.388-3.242-1.28-1.67c-.68-1.011-1.818-1.554-2.978-1.541zm-5.82 3.404a.743.743 0 0 0-.416.135l-1.47 1.021a.749.749 0 1 0 .858 1.23l1.467-1.02a.749.749 0 0 0-.44-1.366zm-3.223 2.219a.749.749 0 0 0-.418.135l-1.705 1.187-.096.067-.271.19a.749.749 0 1 0 .855 1.23l.223-.155.098-.068 1.753-1.22a.749.749 0 0 0-.439-1.366zm8.773.254a2.077 2.077 0 0 1 1.749.914l1.296 1.695 2.38 3.229a1.826 1.826 0 0 1-.415 2.56L20.75 32.082c-.83.6-1.992.418-2.594-.404l-4.021-5.5-.088-.133a1.829 1.829 0 0 1 .375-2.334l.115-.092 13.143-9.027c.36-.25.77-.373 1.175-.377zM7.854 22.182c-1.281-.017-2.208 1.334-1.575 2.527 1.03 1.947 1.575 3.65 1.362 3.848-1.225 1.133-1.99 2.038-2.272 2.986a1.934 1.934 0 0 1-1.281 1.309l-1.18.365a2.14 2.14 0 0 0-1.51 2.043v2.963l.006.156a2.297 2.297 0 0 0 2.291 2.13h1.393l.039.132c.073.236.164.502.273.793a9.11 9.11 0 0 0 1.137 2.322l.152.215c.882 1.197 1.998 1.999 3.36 2.213l.033.004.139 2.345.04.201a2.43 2.43 0 0 0 2.3 1.633h2.865a2.016 2.016 0 0 0 2.011-2.021v-.635c0-.567.454-1.023 1.01-1.023.555 0 1.008.456 1.008 1.023a2.649 2.649 0 0 0 2.639 2.656h1.883a2.647 2.647 0 0 0 2.638-2.656v-1.846c0-.488.048-.594.28-.781-.066.052.703-.512 1.007-.785 2.368-2.117 3.924-4.984 3.924-8.615 0-1.936-.316-3.731-.935-5.315a.751.751 0 0 0-.973-.426.748.748 0 0 0-.424.971c.549 1.404.832 3.015.832 4.77 0 3.156-1.35 5.642-3.426 7.498a6.817 6.817 0 0 1-.322.263l-.197.15c-.23.175-.436.327-.428.321-.593.478-.838 1.017-.838 1.95v1.845c0 .64-.51 1.156-1.138 1.156h-1.883a1.149 1.149 0 0 1-1.139-1.156 2.516 2.516 0 0 0-2.508-2.523 2.516 2.516 0 0 0-2.51 2.523v.635c0 .29-.23.521-.511.521H12.56l-.12-.008a.929.929 0 0 1-.716-.507l-.014-.03-.168-2.875a.75.75 0 0 0-.75-.705c-1.225 0-2.219-.67-3.02-1.836a7.624 7.624 0 0 1-.95-1.943c-.146-.394-.25-.715-.333-1.008a6.247 6.247 0 0 1-.09-.353.75.75 0 0 0-.734-.592h-1.97a.796.796 0 0 1-.798-.787V35.26a.64.64 0 0 1 .456-.61l1.18-.367a3.43 3.43 0 0 0 2.273-2.314c.175-.592.833-1.369 1.853-2.313 1.033-.959.43-2.843-1.056-5.65-.084-.158.066-.354.28-.32a7.836 7.836 0 0 1 2.063.595.75.75 0 0 0 .623-1.365 9.348 9.348 0 0 0-2.455-.713 1.863 1.863 0 0 0-.261-.021z" />
    <circle part="highlight" fill="cadetblue" cx="24.143" cy="23.114" r="3.5" />
</svg>