<svg width="56" height="56" viewBox="0 0 56 56" version="1.1" xmlns="http://www.w3.org/2000/svg"
  xmlns:xlink="http://www.w3.org/1999/xlink">
  <path part="background" fill="silver"
    d="M 38.650391 17 C 38.930391 17.88 38.900391 18.860547 38.650391 19.560547 L 38.669922 19.589844 C 38.759922 19.709844 38.849453 19.850234 38.939453 19.990234 C 39.349453 20.600234 39.760625 21.280469 40.140625 21.980469 C 40.440625 22.540469 40.709219 23.090625 40.949219 23.640625 C 41.159219 22.570625 41.430234 21.619766 41.740234 20.759766 C 42.030234 19.969766 42.319844 19.349141 42.589844 18.869141 C 42.399844 18.749141 42.209531 18.64 42.019531 18.5 C 41.739531 18.3 41.270078 17.76 40.830078 17 L 38.650391 17 z M 37.099609 17.160156 C 35.889609 17.550156 35.009766 18.669766 35.009766 20.009766 L 35 20 L 35 20.779297 C 35.69 20.819297 36.389922 20.370469 37.169922 19.230469 C 37.389922 18.900469 37.449609 17.860156 37.099609 17.160156 z M 43.900391 19.619141 C 43.650391 20.069141 43.400391 20.609531 43.150391 21.269531 C 42.540391 22.949531 42.099922 25.070938 41.919922 27.710938 L 41.919922 27.740234 L 41.919922 47.009766 C 41.919922 47.419766 41.579922 47.759766 41.169922 47.759766 C 40.759922 47.759766 40.419922 47.419766 40.419922 47.009766 L 40.419922 27.710938 L 40.419922 27.660156 C 40.419922 27.130156 40.330391 26.529141 40.150391 25.869141 C 39.880391 24.879141 39.410312 23.799219 38.820312 22.699219 C 38.480312 22.069219 38.11 21.470156 37.75 20.910156 C 36.89 21.860156 35.96 22.319063 35 22.289062 L 35 48 C 35 49.66 36.34 51 38 51 L 45 51 C 46.66 51 48 49.66 48 48 L 48 20.529297 C 46.83 20.669297 45.480391 20.409141 43.900391 19.619141 z M 21 25 C 19.34 25 18 26.34 18 28 L 18 48 C 18 49.66 19.34 51 21 51 L 28 51 C 29.66 51 31 49.66 31 48 L 31 28 C 31 26.34 29.66 25 28 25 L 21 25 z M 24.5 28.25 C 24.91 28.25 25.25 28.59 25.25 29 L 25.25 47 C 25.25 47.41 24.91 47.75 24.5 47.75 C 24.09 47.75 23.75 47.41 23.75 47 L 23.75 29 C 23.75 28.59 24.09 28.25 24.5 28.25 z M 4 33 C 2.34 33 1 34.34 1 36 L 1 48 C 1 49.66 2.34 51 4 51 L 11 51 C 12.66 51 14 49.66 14 48 L 14 36 C 14 34.34 12.66 33 11 33 L 4 33 z M 7.5 36.25 C 7.91 36.25 8.25 36.59 8.25 37 L 8.25 47 C 8.25 47.41 7.91 47.75 7.5 47.75 C 7.09 47.75 6.75 47.41 6.75 47 L 6.75 37 C 6.75 36.59 7.09 36.25 7.5 36.25 z " />
  <path part="outline" fill="black"
    d="M38.21,16.1c.71,1.01.77,2.5.44,3.46l-.08-.11.09.13c.09.12.18.26.27.4.41.61.82,1.29,1.2,1.99.3.56.57,1.11.81,1.66.21-1.07.48-2.02.79-2.88.54-1.5,1.11-2.42,1.52-2.86.28-.3.76-.32,1.06-.04.3.28.32.76.04,1.06-.05.06-.17.21-.34.48-.29.48-.59,1.1-.87,1.87-.61,1.68-1.05,3.8-1.23,6.44,0,0,0,.02,0,.03v19.27c0,.41-.34.75-.75.75s-.75-.34-.75-.75v-19.3s0-.05,0-.05c0-.53-.09-1.13-.27-1.79-.27-.99-.74-2.07-1.33-3.17-.34-.63-.71-1.23-1.07-1.79-1.14,1.26-2.41,1.66-3.71,1.2-1.15-.41-2.18-1.44-3.13-2.9-.41-.63-.78-1.3-1.11-1.97-.11-.23-.21-.45-.3-.65-.05-.12-.09-.21-.11-.26-.16-.41.06-.87.48-1,4.38-1.32,7.11-.97,8.34.78ZM31.28,16.49l-.15.04.02.05c.22.46.47.93.74,1.37l.27.44c.79,1.21,1.61,2.04,2.38,2.31.84.3,1.67-.07,2.62-1.47.24-.36.3-1.58-.18-2.26-.7-1-2.49-1.31-5.71-.48ZM46.09,13.4c.37.19.51.64.32,1.01-.23.44-.43.89-.6,1.35-.14.39-.58.59-.96.44-.39-.14-.59-.58-.44-.96.19-.52.42-1.03.68-1.53.19-.37.64-.51,1.01-.32ZM50.85,7.89c.36-.2.82-.06,1.02.3.2.36.06.82-.3,1.02-.43.23-.85.49-1.26.78-.4.28-.79.59-1.16.93-.37.33-.72.68-1.05,1.06-.27.31-.75.34-1.06.07-.31-.27-.34-.75-.07-1.06.37-.42.76-.81,1.17-1.18.42-.37.85-.72,1.3-1.03.46-.32.93-.61,1.41-.88ZM24.5,28.25c.41,0,.75.34.75.75v18c0,.41-.34.75-.75.75s-.75-.34-.75-.75v-18c0-.41.34-.75.75-.75ZM7.5,36.25c.41,0,.75.34.75.75v10c0,.41-.34.75-.75.75s-.75-.34-.75-.75v-10c0-.41.34-.75.75-.75Z" />
  <path part="highlight" fill="cadetblue"
    d="M52.5,5.02c-18.36,2.37-11.94,12.47-10.48,13.48.19.13.38.25.57.37.24-.43.47-.76.67-.97.28-.3.76-.32,1.06-.04.3.28.32.76.04,1.06-.05.06-.17.21-.34.48-.04.07-.08.15-.13.22,8.49,4.25,10.58-6.89,11.09-12.21.13-1.41-1.09-2.56-2.49-2.38ZM46.41,14.41c-.23.44-.43.89-.6,1.35-.14.39-.58.59-.96.44s-.59-.58-.44-.96c.19-.52.42-1.03.68-1.53.19-.37.64-.51,1.01-.32.37.19.51.64.32,1.01ZM51.56,9.21c-.43.23-.85.49-1.26.78-.4.28-.79.59-1.16.93-.37.33-.72.68-1.05,1.06-.27.31-.75.34-1.06.07-.31-.27-.34-.75-.07-1.06.37-.42.76-.81,1.17-1.18.42-.37.85-.72,1.3-1.03.46-.32.93-.61,1.41-.88.36-.2.82-.06,1.02.3.2.36.06.82-.3,1.02Z" />
</svg>