<?xml version="1.0" encoding="UTF-8" standalone="no"?>
<svg
   width="56"
   height="56"
   viewBox="0 0 56 56"
   version="1.1"
   xmlns="http://www.w3.org/2000/svg"
   >
  <circle
     part="highlight"
     fill="cadetblue"
     cx="28.252018"
     cy="5.0688362"

     r="3.1504884"
     />
  <path
     part="background"
     fill="silver"
     d="m 46.210504,40.856143 a 5.0423,5.0423 0 0 1 -4.725149,3.282489 H 15.018682 a 5.0428841,5.0428841 0 0 1 -4.718139,-3.263214 7.1829266,7.1829266 0 0 0 -4.7975727,6.791013 v 1.135438 a 7.1823426,7.1823426 0 0 0 7.1986967,7.198112 h 31.1632 a 7.1823426,7.1823426 0 0 0 7.198697,-7.198112 v -1.135438 c 0,-3.165674 -2.023812,-5.841311 -4.85306,-6.810288 z"
     
      />
  <path
     part="outline"
     fill="black"
     d="M 31.70681,8.3882569e-4 A 0.58465682,0.58465682 0 0 0 31.390826,1.05509 4.7724584,4.7724584 0 0 1 33.151222,3.5362311 0.58407275,0.58407275 0 0 0 34.272641,3.2097344 5.9400198,5.9400198 0 0 0 32.084121,0.11473292 0.58115238,0.58115238 0 0 0 31.706226,8.3882569e-4 Z M 28.251435,1.287551 a 3.781287,3.781287 0 0 0 -0.62963,7.5100074 V 13.261042 H 15.018682 a 5.6701782,5.6701782 0 0 0 -5.6713447,5.671347 v 5.356531 a 4.4103333,4.4103333 0 0 0 -4.410919,4.409749 v 0.612108 a 4.4115015,4.4115015 0 0 0 4.411502,4.410918 V 39.0975 a 5.6701782,5.6701782 0 0 0 5.6707617,5.670762 h 26.466673 a 5.6701782,5.6701782 0 0 0 5.671347,-5.671346 l 5.84e-4,-5.408514 a 4.4109174,4.4109174 0 0 0 3.869482,-4.377625 v -0.611524 c 0,-2.253353 -1.687971,-4.111872 -3.869482,-4.378209 l -0.0012,-5.389239 A 5.6701782,5.6701782 0 0 0 41.485355,13.261042 H 28.882234 V 8.7975584 A 3.781871,3.781871 0 0 0 28.251435,1.287551 Z m 0,1.260429 a 2.520566,2.520566 0 1 1 0.0012,5.0411318 2.520274,2.520274 0 0 1 -0.0012,-5.0405478 z m 5.604762,2.3374591 a 0.58407275,0.58407275 0 0 0 -0.56655,0.6015949 c 0.0064,0.2090981 -0.08235,0.5899135 -0.274514,1.1132427 -0.189824,0.5169044 -0.425789,0.9222508 -0.704976,1.2195439 a 0.58407275,0.58407275 0 0 0 0.850994,0.7995956 C 33.5554,8.1994679 33.870215,7.6597846 34.111437,7.0027028 34.350907,6.3520458 34.46889,5.8444865 34.457208,5.4525737 A 0.58407275,0.58407275 0 0 0 33.855613,4.8860232 Z M 15.018682,14.520303 h 26.466673 a 4.4103333,4.4103333 0 0 1 4.410333,4.411502 V 39.0975 a 4.4097492,4.4097492 0 0 1 -4.409749,4.409749 H 15.018099 A 4.4097492,4.4097492 0 0 1 10.607766,39.0975 V 18.931805 a 4.4103333,4.4103333 0 0 1 4.409748,-4.411502 z m 7.240167,6.862855 a 3.4655956,3.4655956 0 1 0 0,6.931191 3.4655956,3.4655956 0 0 0 0,-6.931191 z m 11.973491,0 a 3.4655956,3.4655956 0 1 0 0,6.931191 3.4655956,3.4655956 0 0 0 0,-6.931191 z m -11.973491,1.261013 a 2.2060428,2.2060428 0 1 1 0.0012,4.411501 2.2060428,2.2060428 0 0 1 -0.0012,-4.411501 z m 11.973491,0 a 2.2060428,2.2060428 0 1 1 -0.0012,4.410917 2.2060428,2.2060428 0 0 1 0.0012,-4.410917 z m -24.8844187,2.90401 v 6.913669 a 3.1510725,3.1510725 0 0 1 -3.151073,-3.150489 v -0.611524 a 3.1510725,3.1510725 0 0 1 3.151073,-3.151072 z m 37.8081967,0.04673 a 3.1516565,3.1516565 0 0 1 2.610805,3.104347 v 0.611524 A 3.1516565,3.1516565 0 0 1 47.156117,32.41454 Z M 21.633891,33.54531 a 0.63079857,0.63079857 0 0 0 -0.296709,1.185083 c 2.158733,1.162305 4.410333,1.74521 6.748961,1.74521 2.331618,0 4.686015,-0.579985 7.057935,-1.733528 a 0.63006418,0.63006418 0 1 0 -0.551365,-1.133102 c -2.204875,1.072942 -4.372953,1.606201 -6.50657,1.606201 -2.127193,0 -4.174952,-0.530339 -6.152039,-1.594519 a 0.62495784,0.62495784 0 0 0 -0.300213,-0.07593 z"
   
      />
</svg>
